<?xml version="1.0" encoding="UTF-8" standalone="no"?>
<svg
   xmlns:dc="http://purl.org/dc/elements/1.1/"
   xmlns:cc="http://creativecommons.org/ns#"
   xmlns:rdf="http://www.w3.org/1999/02/22-rdf-syntax-ns#"
   xmlns:svg="http://www.w3.org/2000/svg"
   xmlns="http://www.w3.org/2000/svg"
   xmlns:sodipodi="http://sodipodi.sourceforge.net/DTD/sodipodi-0.dtd"
   xmlns:inkscape="http://www.inkscape.org/namespaces/inkscape"
   id="Capa_1"
   enable-background="new 0 0 479.058 479.058"
   height="512"
   viewBox="0 0 479.058 479.058"
   width="512"
   version="1.1"
   sodipodi:docname="a.svg"
   inkscape:version="0.92.3 (2405546, 2018-03-11)">
  <metadata
     id="metadata9">
    <rdf:RDF>
      <cc:Work
         rdf:about="">
        <dc:format>image/svg+xml</dc:format>
        <dc:type
           rdf:resource="http://purl.org/dc/dcmitype/StillImage" />
        <dc:title></dc:title>
      </cc:Work>
    </rdf:RDF>
  </metadata>
  <defs
     id="defs7" />
  <sodipodi:namedview
     pagecolor="#ffffff"
     bordercolor="#666666"
     borderopacity="1"
     objecttolerance="10"
     gridtolerance="10"
     guidetolerance="10"
     inkscape:pageopacity="0"
     inkscape:pageshadow="2"
     inkscape:window-width="640"
     inkscape:window-height="480"
     id="namedview5"
     showgrid="false"
     inkscape:showpageshadow="false"
     inkscape:zoom="0.4609375"
     inkscape:cx="218.0339"
     inkscape:cy="256"
     inkscape:window-x="0"
     inkscape:window-y="0"
     inkscape:window-maximized="0"
     inkscape:current-layer="Capa_1" />
  <path
     d="m239.529 0c-132.074 0-239.529 107.455-239.529 239.529s107.455 239.529 239.529 239.529c45.379 0 89.56-12.763 127.761-36.885l-15.994-25.321c-33.406 21.111-72.06 32.266-111.767 32.266-115.568 0-209.588-94.019-209.588-209.588s94.019-209.589 209.588-209.589 209.588 94.019 209.588 209.588v14.971c0 24.766-20.146 44.912-44.912 44.912s-44.912-20.146-44.912-44.912v-104.794h-29.941v11.449c-21.97-25.15-53.884-41.39-89.823-41.39-66.037 0-119.764 53.727-119.764 119.764s53.727 119.764 119.764 119.764c44.742 0 83.367-24.95 103.926-61.395 13.593 18.965 35.69 31.454 60.75 31.454 41.271 0 74.853-33.581 74.853-74.853v-14.971c0-132.073-107.455-239.528-239.529-239.528zm0 329.352c-49.532 0-89.823-40.292-89.823-89.823s40.292-89.823 89.823-89.823 89.823 40.292 89.823 89.823-40.292 89.823-89.823 89.823z"
     id="path2" />
</svg>
