<?xml version="1.0" encoding="UTF-8" standalone="no"?>
<svg
   xmlns:dc="http://purl.org/dc/elements/1.1/"
   xmlns:cc="http://creativecommons.org/ns#"
   xmlns:rdf="http://www.w3.org/1999/02/22-rdf-syntax-ns#"
   xmlns:svg="http://www.w3.org/2000/svg"
   xmlns="http://www.w3.org/2000/svg"
   xmlns:sodipodi="http://sodipodi.sourceforge.net/DTD/sodipodi-0.dtd"
   xmlns:inkscape="http://www.inkscape.org/namespaces/inkscape"
   enable-background="new 0 0 64 64"
   height="512"
   id="Layer_1"
   version="1.1"
   viewBox="0 0 512 512"
   width="512"
   xml:space="preserve"
   sodipodi:docname="amazon-square.svg"
   inkscape:version="0.92.3 (2405546, 2018-03-11)"><metadata
     id="metadata27"><rdf:RDF><cc:Work
         rdf:about=""><dc:format>image/svg+xml</dc:format><dc:type
           rdf:resource="http://purl.org/dc/dcmitype/StillImage" /><dc:title></dc:title></cc:Work></rdf:RDF></metadata><defs
     id="defs25" /><sodipodi:namedview
     pagecolor="#ffffff"
     bordercolor="#666666"
     borderopacity="1"
     objecttolerance="10"
     gridtolerance="10"
     guidetolerance="10"
     inkscape:pageopacity="0"
     inkscape:pageshadow="2"
     inkscape:window-width="1366"
     inkscape:window-height="743"
     id="namedview23"
     showgrid="false"
     inkscape:showpageshadow="false"
     inkscape:zoom="0.65186406"
     inkscape:cx="129.8981"
     inkscape:cy="233.77164"
     inkscape:window-x="0"
     inkscape:window-y="0"
     inkscape:window-maximized="1"
     inkscape:current-layer="g14" /><g
     id="g20"
     transform="translate(0,448)"><g
       id="g14"><rect
         style="opacity:1;fill:#ff9900;fill-opacity:1;fill-rule:nonzero;stroke:none;stroke-width:1.60000002;stroke-miterlimit:4;stroke-dasharray:none;stroke-opacity:0"
         id="rect986"
         width="516.97894"
         height="515.44489"
         x="-3.0681243"
         y="-449.91083" /><g
         id="g842"
         transform="matrix(0.73798799,0,0,0.7162265,73.626982,-61.732696)"
         style="stroke:none;stroke-opacity:1;fill:#ffffff;fill-opacity:1"><path
           inkscape:connector-curvature="0"
           style="fill:#ffffff;stroke:none;stroke-width:12.23403263;stroke-miterlimit:4;stroke-dasharray:none;stroke-opacity:1;fill-opacity:1"
           id="path2"
           d="m 375.82514,-131.45811 c -0.27486,-0.53603 -1.29032,-1.0644 -1.60336,-1.57746 -11.4678,-14.68715 -24.50078,-27.28379 -24.50078,-55.57072 v -94.34082 c 0,-39.81918 4.67263,-76.51409 -24.56951,-103.74428 -24.01214,-21.97712 -60.13344,-30.39275 -89.38321,-30.39275 H 223.2163 c -53.24665,3.1013 -109.63129,26.17345 -122.22908,92.21203 -2.069091,8.41563 4.21453,11.5399 8.37562,12.58132 l 58.51482,7.33592 c 6.26071,-1.05674 9.41398,-7.6269 10.44471,-12.81871 5.20708,-23.07215 23.46242,-38.05029 44.90157,-38.05029 h 4.19926 c 12.55198,0 24.92071,6.57017 32.21216,17.06865 8.34508,12.56601 6.10038,30.67608 6.10038,45.36323 v 8.37734 c -7.63502,1.03377 -28.0587,2.06754 -43.72577,4.13507 -24.01978,3.19319 -47.42876,7.37421 -67.26455,16.81595 -38.64849,15.72857 -64.477771,49.26857 -64.477771,98.50652 0,12.6579 1.88585,23.99105 4.962764,34.099 11.941177,39.252518 45.214607,59.192737 85.130507,59.192737 16.70543,0 30.31104,-2.121137 42.81721,-5.214781 19.88923,-6.317466 36.58703,-17.849712 56.43045,-38.831356 11.49071,15.72092 14.66688,23.095123 34.49503,39.857466 5.24526,2.067534 10.46762,2.067534 14.61344,-1.02611 12.55961,-10.513794 34.51794,-29.389616 45.97811,-39.857466 4.72607,-3.77516 3.58082,-9.26562 1.12998,-14.12049 z M 222.00997,-232.65243 c 13.56743,-3.12427 28.45573,-4.18867 43.72577,-4.18867 v 12.59664 c 0,24.09826 2.2447,42.95877 -10.27674,63.93276 -7.31435,14.66418 -19.27079,24.09826 -32.83823,27.27613 -2.06909,0 -4.90932,1.04143 -8.05495,1.04143 -22.95851,0 -36.99168,-17.81143 -36.99168,-44.01551 0,-33.57063 19.37768,-49.26092 44.43583,-56.64278 z" /><path
           sodipodi:nodetypes="cccccccccsscccscccccccc"
           inkscape:connector-curvature="0"
           style="fill:#ffffff;stroke:none;stroke-width:12.23403263;stroke-miterlimit:4;stroke-dasharray:none;stroke-opacity:1;fill-opacity:1"
           id="path6"
           d="m 428.8122,-49.384661 c 4.24507,-0.03063 8.44433,0.275672 11.07078,0.827014 1.29795,0.290986 2.48138,0.627918 3.00057,0.895932 0.20614,0.06126 0.44283,0.145493 0.53445,0.199096 0.10689,0.359904 0.3283,1.309438 0.3054,2.626534 0.0458,5.015685 -2.03855,14.350219 -4.9704,23.455027 -2.8326,9.097151 -6.28363,18.2325895 -8.55886,24.2973567 -0.54972,1.3936712 -0.91621,2.9328356 -0.91621,4.6098356 -0.0458,2.4274384 0.95438,6.2944937 3.07692,8.2395067 2.06145,1.952671 4.73371,3.629671 6.9555,3.629671 h 0.11453 c 3.34414,0 6.192,-2.26663 8.63521,-4.181013 23.08831,-20.8514661 31.16616,-54.582905 31.49447,-73.313234 l -0.0382,-3.438232 v -0.03063 c 0,-4.939109 -1.28268,-8.714274 -3.34414,-11.83089 l -0.23668,-0.321617 -0.25196,-0.298643 c -2.08436,-2.297261 -4.1,-3.154904 -6.26835,-4.104439 -6.4974,-2.519329 -16.7207,-3.859397 -28.08161,-3.890027 -4.59629,0 -7.63503,0.298644 -15.27005,0.857644 -37.5213,5.947645 -71.87416,31.346476 0,31.80174 0.008,-0.0077 2.13017,-0.03063 2.74861,-0.03063 z" /><path
           sodipodi:nodetypes="ccccccscccccccccc"
           inkscape:connector-curvature="0"
           style="fill:#ffffff;stroke:none;stroke-width:12.23403263;stroke-miterlimit:4;stroke-dasharray:none;stroke-opacity:1;fill-opacity:1"
           id="path10"
           d="m 424.78091,-26.549893 c -4.355,-14.584042 -18.28059,-14.125096 -40.90082,0 C 334.35933,-3.5772904 282.5786,6.5153398 234.56958,7.5491069 186.95758,7.5797371 139.31504,-3.5772904 99.02502,-26.549893 79.448821,-34.207428 59.590127,-42.209551 44.320081,-52.769291 c -7.635023,-3.131931 -12.857379,-6.279178 -18.514931,-9.426424 -2.229426,-1.179261 -5.306341,-1.799521 -7.535767,-1.799521 -2.863134,0 -6.199639,1.095027 -8.3374452,3.101301 -2.1454414,2.036905 -3.6190008,4.96974 -3.5884607,7.971494 -0.03054,3.867054 1.9622008,7.443123 4.8940499,9.755698 C 71.202996,9.1035864 136.90237,57.629381 225.3312,57.682984 c 1.71788,0 3.45103,-0.0536 5.19945,-0.08423 56.24722,-1.255836 119.83169,-20.330753 169.21502,-51.4509729 l 0.29776,-0.1761232 c 6.46687,-3.8900275 12.91846,-8.3160823 19.01121,-13.1939316 3.78697,-2.8179723 6.39815,-9.0971503 6.39815,-13.6916713 -0.0382,-1.340069 -0.31304,2.021589 -0.67188,-5.635945 z" /></g><ellipse
         style="opacity:1;fill:none;fill-opacity:1;fill-rule:nonzero;stroke:none;stroke-width:1.60000002;stroke-miterlimit:4;stroke-dasharray:none;stroke-opacity:1"
         id="path863"
         cx="256.18839"
         cy="-191.42136"
         rx="254.65433"
         ry="255.42136" /></g></g></svg>