<?xml version="1.0" encoding="UTF-8" standalone="no"?>
<svg
   xmlns:dc="http://purl.org/dc/elements/1.1/"
   xmlns:cc="http://creativecommons.org/ns#"
   xmlns:rdf="http://www.w3.org/1999/02/22-rdf-syntax-ns#"
   xmlns:svg="http://www.w3.org/2000/svg"
   xmlns="http://www.w3.org/2000/svg"
   xmlns:sodipodi="http://sodipodi.sourceforge.net/DTD/sodipodi-0.dtd"
   xmlns:inkscape="http://www.inkscape.org/namespaces/inkscape"
   height="512pt"
   viewBox="0 0 512 512"
   width="512pt"
   version="1.1"
   id="svg10"
   sodipodi:docname="amazon.svg"
   inkscape:version="0.92.3 (2405546, 2018-03-11)">
  <metadata
     id="metadata16">
    <rdf:RDF>
      <cc:Work
         rdf:about="">
        <dc:format>image/svg+xml</dc:format>
        <dc:type
           rdf:resource="http://purl.org/dc/dcmitype/StillImage" />
        <dc:title />
      </cc:Work>
    </rdf:RDF>
  </metadata>
  <defs
     id="defs14" />
  <sodipodi:namedview
     pagecolor="#ffffff"
     bordercolor="#666666"
     borderopacity="1"
     objecttolerance="10"
     gridtolerance="10"
     guidetolerance="10"
     inkscape:pageopacity="0"
     inkscape:pageshadow="2"
     inkscape:window-width="1366"
     inkscape:window-height="743"
     id="namedview12"
     showgrid="false"
     inkscape:showpageshadow="false"
     inkscape:zoom="0.51611505"
     inkscape:cx="68.812001"
     inkscape:cy="285.67694"
     inkscape:window-x="0"
     inkscape:window-y="0"
     inkscape:window-maximized="1"
     inkscape:current-layer="svg10" />
  <g
     id="g826"
     transform="matrix(1.5211348,0,0,1.5232649,-113.01718,-111.19471)"
     style="fill:#000000;fill-opacity:1">
    <path
       style="fill:#000000;stroke:#000000;stroke-width:4.5;stroke-miterlimit:4;stroke-dasharray:none;stroke-opacity:1;fill-opacity:1"
       id="path2"
       d="m 250.19922,174.22266 c -8.48047,-0.67188 -26.94141,-0.90235 -55.37891,5 -40.52344,8.41406 -59.22656,45.82421 -59.22656,75.13281 0,29.29687 28.05078,63.27734 70.13672,63.27734 32.20312,0 50.35937,-19.35937 57.09375,-28.44922 1.51172,-2.01953 4.55469,-1.91797 5.92578,0.20703 1.66797,2.60157 4.04687,6.05079 7.11328,9.84375 3.28906,4.08204 7.67969,8.14844 11.23828,11.19922 3.4375,2.94922 8.55469,2.77735 11.84375,-0.33593 l 27.89453,-26.57813 c 3.23047,-3.07812 3.67969,-8.07031 1.03125,-11.66016 -1.53906,-2.08203 -3.48047,-4.76953 -5.8789,-8.15234 -7.48438,-10.60156 -7.16797,-19.01562 -7.16797,-19.01562 v -98.50782 c 0,-11.84375 -7.17188,-60.468746 -82.60938,-60.468746 -61.60547,0 -80.3789,43.863286 -85.19531,59.949216 -0.92187,3.07813 1.08203,6.2461 4.25,6.77735 l 38.25391,6.46484 c 2.32422,0.39063 4.63281,-0.76953 5.67578,-2.88672 4.19531,-8.49219 16.39062,-29.16406 35.45703,-29.16406 24.01172,0.008 24.94531,19.64453 24.94531,19.64453 v 22.69922 c 0,2.92969 -2.47265,5.25 -5.40234,5.02344 z m 6.03125,36.42968 V 239.375 c 0,15 -10.32813,28.14844 -24.96875,31.39844 -3.78516,0.84765 -8.11328,1.34765 -13.07031,1.34765 -31.79297,0 -25.8711,-40.83593 -11.21485,-52.99609 11.10547,-9.21875 33.66406,-12.34375 43.9375,-13.30859 2.85547,-0.26954 5.31641,1.97265 5.31641,4.83593 z m 0,0"
       inkscape:connector-curvature="0" />
    <path
       style="fill:#000000;stroke:#000000;stroke-width:4.5;stroke-miterlimit:4;stroke-dasharray:none;stroke-opacity:1;fill-opacity:1"
       id="path4"
       d="m 345.52734,330.17187 c 15.4336,-1.86718 22.21485,-3.80859 26.88672,0.32422 4.67969,4.125 3.03906,12.53907 0,22.125 -3.03125,9.57813 -10.53906,17.57422 -3.27344,21.51172 8.49219,4.59766 41.1836,-37.68359 27.59375,-58.68359 -11.30078,-17.46094 -58.6875,2.10547 -62.1914,4.4375 -3.50391,2.34375 -3.50391,5.14062 -3.50391,5.14062 0,0 -0.93359,7.01953 14.48828,5.14453 z m 0,0"
       inkscape:connector-curvature="0" />
    <path
       style="fill:#000000;stroke:#000000;stroke-width:4.5;stroke-miterlimit:4;stroke-dasharray:none;stroke-opacity:1;fill-opacity:1"
       id="path6"
       d="m 228.49609,399.28516 c 57.02735,0 81.03516,-11.83204 105.66407,-25.54688 24.62109,-13.71875 29.30078,-24 25.87109,-30.43359 -3.42969,-6.42969 -17.46484,0.19922 -29.92578,5.49218 -12.47266,5.30079 -50.80469,19.95704 -105.98047,19.95704 -55.17578,0 -110.66406,-38.97266 -122.51172,-47.22657 -11.843749,-8.26562 -16.05078,0 -16.05078,0 0,0 -3.578125,6.85547 7.332031,20.26172 10.898439,13.40625 66.300779,57.4961 135.601559,57.4961 z m 0,0"
       inkscape:connector-curvature="0" />
  </g>
</svg>
