<?xml version="1.0" encoding="UTF-8" standalone="no"?>
<!-- Generator: Adobe Illustrator 19.0.0, SVG Export Plug-In . SVG Version: 6.00 Build 0)  -->

<svg
   xmlns:dc="http://purl.org/dc/elements/1.1/"
   xmlns:cc="http://creativecommons.org/ns#"
   xmlns:rdf="http://www.w3.org/1999/02/22-rdf-syntax-ns#"
   xmlns:svg="http://www.w3.org/2000/svg"
   xmlns="http://www.w3.org/2000/svg"
   xmlns:sodipodi="http://sodipodi.sourceforge.net/DTD/sodipodi-0.dtd"
   xmlns:inkscape="http://www.inkscape.org/namespaces/inkscape"
   version="1.1"
   id="Capa_1"
   x="0px"
   y="0px"
   viewBox="0 0 512 512"
   style="enable-background:new 0 0 512 512;"
   xml:space="preserve"
   sodipodi:docname="badoo.svg"
   inkscape:version="0.92.3 (2405546, 2018-03-11)"><metadata
   id="metadata49"><rdf:RDF><cc:Work
       rdf:about=""><dc:format>image/svg+xml</dc:format><dc:type
         rdf:resource="http://purl.org/dc/dcmitype/StillImage" /><dc:title></dc:title></cc:Work></rdf:RDF></metadata><defs
   id="defs47" /><sodipodi:namedview
   pagecolor="#ffffff"
   bordercolor="#666666"
   borderopacity="1"
   objecttolerance="10"
   gridtolerance="10"
   guidetolerance="10"
   inkscape:pageopacity="0"
   inkscape:pageshadow="2"
   inkscape:window-width="640"
   inkscape:window-height="480"
   id="namedview45"
   showgrid="false"
   inkscape:showpageshadow="false"
   inkscape:zoom="0.4609375"
   inkscape:cx="218.0339"
   inkscape:cy="256"
   inkscape:window-x="0"
   inkscape:window-y="0"
   inkscape:window-maximized="0"
   inkscape:current-layer="Capa_1" />
<g
   id="g6">
	<g
   id="g4">
		<path
   d="M406.271,149.213C366.132,109.074,312.765,86.968,256,86.968c-46.749,0-91.194,14.994-127.843,42.705V15    c0-8.284-6.716-15-15-15H58.484c-8.284,0-15,6.716-15,15v284.484c0,56.766,22.106,110.133,62.245,150.271    C145.868,489.895,199.235,512,256,512s110.132-22.105,150.271-62.244c40.139-40.139,62.245-93.506,62.245-150.271    C468.516,242.719,446.41,189.352,406.271,149.213z M385.058,428.543C350.585,463.016,304.752,482,256,482    s-94.585-18.984-129.058-53.457c-34.473-34.473-53.458-80.307-53.458-129.059V30h24.673v133.077c0,6.128,3.728,11.64,9.415,13.921    c5.688,2.282,12.191,0.874,16.426-3.554c0.97-1.014,1.949-2.022,2.944-3.018c34.473-34.473,80.307-53.458,129.058-53.458    c48.751,0,94.585,18.985,129.058,53.458c34.473,34.473,53.458,80.307,53.458,129.058    C438.516,348.236,419.531,394.07,385.058,428.543z"
   id="path2" />
	</g>
</g>
<g
   id="g12">
	<g
   id="g10">
		<path
   d="M256,141.641c-87.035,0-157.843,70.808-157.843,157.843S168.965,457.327,256,457.327s157.843-70.808,157.843-157.843    S343.035,141.641,256,141.641z M256,427.327c-70.493,0-127.843-57.35-127.843-127.843S185.507,171.641,256,171.641    s127.843,57.35,127.843,127.843S326.493,427.327,256,427.327z"
   id="path8" />
	</g>
</g>
<g
   id="g14">
</g>
<g
   id="g16">
</g>
<g
   id="g18">
</g>
<g
   id="g20">
</g>
<g
   id="g22">
</g>
<g
   id="g24">
</g>
<g
   id="g26">
</g>
<g
   id="g28">
</g>
<g
   id="g30">
</g>
<g
   id="g32">
</g>
<g
   id="g34">
</g>
<g
   id="g36">
</g>
<g
   id="g38">
</g>
<g
   id="g40">
</g>
<g
   id="g42">
</g>
</svg>