<?xml version="1.0" encoding="UTF-8" standalone="no"?>
<svg
   xmlns:dc="http://purl.org/dc/elements/1.1/"
   xmlns:cc="http://creativecommons.org/ns#"
   xmlns:rdf="http://www.w3.org/1999/02/22-rdf-syntax-ns#"
   xmlns:svg="http://www.w3.org/2000/svg"
   xmlns="http://www.w3.org/2000/svg"
   xmlns:sodipodi="http://sodipodi.sourceforge.net/DTD/sodipodi-0.dtd"
   xmlns:inkscape="http://www.inkscape.org/namespaces/inkscape"
   height="512"
   viewBox="0 0 512 512"
   width="512"
   version="1.1"
   id="svg8"
   sodipodi:docname="badoo-square.svg"
   inkscape:version="0.92.3 (2405546, 2018-03-11)">
  <metadata
     id="metadata14">
    <rdf:RDF>
      <cc:Work
         rdf:about="">
        <dc:format>image/svg+xml</dc:format>
        <dc:type
           rdf:resource="http://purl.org/dc/dcmitype/StillImage" />
        <dc:title></dc:title>
      </cc:Work>
    </rdf:RDF>
  </metadata>
  <defs
     id="defs12" />
  <sodipodi:namedview
     pagecolor="#ffffff"
     bordercolor="#666666"
     borderopacity="1"
     objecttolerance="10"
     gridtolerance="10"
     guidetolerance="10"
     inkscape:pageopacity="0"
     inkscape:pageshadow="2"
     inkscape:window-width="1366"
     inkscape:window-height="743"
     id="namedview10"
     showgrid="false"
     inkscape:showpageshadow="false"
     inkscape:zoom="0.40972222"
     inkscape:cx="-549.63399"
     inkscape:cy="-123.04336"
     inkscape:window-x="0"
     inkscape:window-y="0"
     inkscape:window-maximized="1"
     inkscape:current-layer="g6" />
  <g
     id="g6"
     style="fill:none;fill-rule:evenodd"
     transform="translate(0,440)">
    <rect
       height="513.7627"
       rx="0"
       width="513.7627"
       id="rect2"
       x="0"
       y="-441.76273"
       style="fill:#7100e7;stroke-width:7.13559341" />
    <path
       d="m 172.73481,-44.805636 c 1.42712,0.702427 1.17069,-1.014596 1.04804,1.081492 l 2.75391,1.984601 c 14.67262,8.083314 14.1263,12.38699 41.05212,21.228468 16.77986,5.507807 36.97143,8.350906 56.03692,6.121026 90.83423,-10.669981 145.44403,-97.434681 118.30637,-181.490061 -3.45632,-10.69229 -9.477,-22.83399 -15.50883,-31.92075 -2.16298,-3.24449 -5.07298,-6.32172 -6.26597,-9.44356 -1.17069,-1.04804 -1.00344,-0.8585 -2.10723,-2.99918 -1.67241,0.73585 -0.6021,0.4683 -1.11495,-0.62437 -2.89884,-2.59781 -6.27711,-6.91263 -9.20941,-9.75573 -3.18873,-3.08839 -6.18792,-6.15448 -9.82263,-8.97528 -42.74682,-33.14719 -93.69962,-41.37545 -144.39597,-18.7087 -27.40525,12.24205 -35.49972,24.75168 -43.54959,29.78007 -0.5463,-13.69148 0.93654,-88.35906 -1.13725,-94.81457 -5.597,-17.38193 -31.99879,-17.24813 -36.492,1.60552 -1.48287,6.25481 -0.6355,84.42331 -0.6467,94.56927 -0.0335,28.01846 -1.92885,100.55651 3.11069,123.80303 3.6347,16.791 10.2463,32.723512 18.25157,44.932112 6.31057,9.64424 13.08941,18.273876 21.41802,26.045015 2.46402,2.285631 6.64505,5.719649 8.27286,7.581597 m 30.87274,-137.706334 c -34.58547,6.60045 -28.16341,59.78312 9.26516,54.85508 13.94791,-1.82849 25.86662,-15.64262 22.94547,-32.50052 -2.30792,-13.32354 -16.22238,-25.39835 -32.21063,-22.35456 m -43.40465,36.15753 c -6.77884,-77.73368 89.20641,-145.78966 168.06618,-79.76287 15.73181,13.16746 30.49363,38.7665 32.33328,68.88105 5.01723,81.90355 -93.57698,142.589772 -168.16652,78.837457 -19.04319,-16.278137 -29.92501,-41.576137 -32.23294,-67.955637"
       id="path4"
       inkscape:connector-curvature="0"
       style="fill:#ffffff;stroke-width:7.13559341" />
  </g>
</svg>
