<?xml version="1.0" encoding="UTF-8" standalone="no"?>
<svg
   xmlns:dc="http://purl.org/dc/elements/1.1/"
   xmlns:cc="http://creativecommons.org/ns#"
   xmlns:rdf="http://www.w3.org/1999/02/22-rdf-syntax-ns#"
   xmlns:svg="http://www.w3.org/2000/svg"
   xmlns="http://www.w3.org/2000/svg"
   xmlns:sodipodi="http://sodipodi.sourceforge.net/DTD/sodipodi-0.dtd"
   xmlns:inkscape="http://www.inkscape.org/namespaces/inkscape"
   id="Layer_1"
   version="1.1"
   viewBox="0 0 512 512"
   xml:space="preserve"
   sodipodi:docname="badoo-circle.svg"
   width="512"
   height="512"
   inkscape:version="0.92.3 (2405546, 2018-03-11)"><metadata
     id="metadata15"><rdf:RDF><cc:Work
         rdf:about=""><dc:format>image/svg+xml</dc:format><dc:type
           rdf:resource="http://purl.org/dc/dcmitype/StillImage" /><dc:title></dc:title></cc:Work></rdf:RDF></metadata><defs
     id="defs13"><filter
       style="color-interpolation-filters:sRGB;"
       inkscape:label="Drop Shadow"
       id="filter835"><feFlood
         flood-opacity="0.498039"
         flood-color="rgb(0,0,0)"
         result="flood"
         id="feFlood825" /><feComposite
         in="flood"
         in2="SourceGraphic"
         operator="in"
         result="composite1"
         id="feComposite827" /><feGaussianBlur
         in="composite1"
         stdDeviation="0.5"
         result="blur"
         id="feGaussianBlur829" /><feOffset
         dx="1"
         dy="1"
         result="offset"
         id="feOffset831" /><feComposite
         in="SourceGraphic"
         in2="offset"
         operator="over"
         result="composite2"
         id="feComposite833" /></filter></defs><sodipodi:namedview
     pagecolor="#ffffff"
     bordercolor="#666666"
     borderopacity="1"
     objecttolerance="10"
     gridtolerance="10"
     guidetolerance="10"
     inkscape:pageopacity="0"
     inkscape:pageshadow="2"
     inkscape:window-width="800"
     inkscape:window-height="480"
     id="namedview11"
     showgrid="false"
     inkscape:showpageshadow="false"
     inkscape:zoom="0.57943472"
     inkscape:cx="257.76439"
     inkscape:cy="260.83539"
     inkscape:window-x="0"
     inkscape:window-y="0"
     inkscape:window-maximized="0"
     inkscape:current-layer="g8" /><style
     type="text/css"
     id="style2">
	.st0{fill:#7100E7;}
	.st1{fill:#FFFFFF;}
</style><g
     id="g8"
     transform="matrix(7.1362487,0,0,7.0883092,0,1.6417357)"><path
       class="st0"
       d="m 36,0 v 0 c 19.9,0 36,16.1 36,36 v 0 C 72,55.9 55.9,72 36,72 v 0 C 16.1,72 0,55.9 0,36 v 0 C 0,16.1 16.1,0 36,0 Z"
       id="path4"
       inkscape:connector-curvature="0"
       style="fill:#7100e7" /><path
       class="st1"
       d="m 24.2,55.6 c 0.2,0.1 0.2,-0.1 0.1,0.2 l 0.4,0.3 c 2.1,1.1 2,1.7 5.8,3 2.4,0.8 5.2,1.2 7.9,0.9 C 51.1,58.5 58.8,46.3 55,34.6 54.5,33.1 53.7,31.4 52.8,30.1 52.5,29.6 52.1,29.2 51.9,28.8 51.7,28.7 51.8,28.7 51.6,28.4 51.4,28.5 51.5,28.5 51.4,28.3 51,27.9 50.5,27.3 50.1,26.9 49.7,26.5 49.2,26 48.7,25.6 42.7,21 35.6,19.8 28.5,23 c 0,0 -0.1,0 -0.1,0.1 -2.8,1.3 -6,-0.7 -6,-3.8 0,-2.6 0,-5 -0.2,-5.4 -0.8,-2.4 -4.5,-2.4 -5.1,0.2 C 16.9,15 17,25.9 17,27.4 c 0,3.9 -0.3,14.1 0.4,17.4 0.5,2.4 1.4,4.6 2.6,6.3 0.9,1.4 1.8,2.6 3,3.7 0.4,0.1 1,0.6 1.2,0.8 m 4.3,-19.3 c -4.8,0.9 -3.9,8.4 1.3,7.7 2,-0.3 3.6,-2.2 3.2,-4.6 -0.3,-1.8 -2.2,-3.5 -4.5,-3.1 m -6,5.1 C 21.5,30.5 35,21 46,30.2 c 2.2,1.8 4.3,5.4 4.5,9.7 0.7,11.5 -13.1,20 -23.6,11 -2.6,-2.3 -4.1,-5.8 -4.4,-9.5"
       id="path6"
       inkscape:connector-curvature="0"
       style="fill:#ffffff;filter:url(#filter835)" /></g></svg>