<?xml version="1.0" encoding="UTF-8" standalone="no"?>
<svg
   xmlns:dc="http://purl.org/dc/elements/1.1/"
   xmlns:cc="http://creativecommons.org/ns#"
   xmlns:rdf="http://www.w3.org/1999/02/22-rdf-syntax-ns#"
   xmlns:svg="http://www.w3.org/2000/svg"
   xmlns="http://www.w3.org/2000/svg"
   xmlns:xlink="http://www.w3.org/1999/xlink"
   xmlns:sodipodi="http://sodipodi.sourceforge.net/DTD/sodipodi-0.dtd"
   xmlns:inkscape="http://www.inkscape.org/namespaces/inkscape"
   id="Layer_1"
   data-name="Layer 1"
   viewBox="0 0 512 512"
   version="1.1"
   sodipodi:docname="square-behance-icon-8265.svg"
   inkscape:version="0.92.3 (2405546, 2018-03-11)">
  <metadata
     id="metadata12">
    <rdf:RDF>
      <cc:Work
         rdf:about="">
        <dc:format>image/svg+xml</dc:format>
        <dc:type
           rdf:resource="http://purl.org/dc/dcmitype/StillImage" />
        <dc:title>behance-square-flat</dc:title>
      </cc:Work>
    </rdf:RDF>
  </metadata>
  <defs
     id="defs10">
    <linearGradient
       inkscape:collect="always"
       id="linearGradient826">
      <stop
         style="stop-color:#1769ff;stop-opacity:1"
         offset="0"
         id="stop822" />
      <stop
         style="stop-color:#1769ff;stop-opacity:1"
         offset="1"
         id="stop824" />
    </linearGradient>
    <linearGradient
       inkscape:collect="always"
       xlink:href="#linearGradient826"
       id="linearGradient828"
       x1="0"
       y1="256"
       x2="512"
       y2="256"
       gradientUnits="userSpaceOnUse" />
  </defs>
  <sodipodi:namedview
     pagecolor="#ffffff"
     bordercolor="#666666"
     borderopacity="1"
     objecttolerance="10"
     gridtolerance="10"
     guidetolerance="10"
     inkscape:pageopacity="0"
     inkscape:pageshadow="2"
     inkscape:window-width="1366"
     inkscape:window-height="743"
     id="namedview8"
     showgrid="false"
     inkscape:showpageshadow="false"
     inkscape:zoom="0.4609375"
     inkscape:cx="-114.30725"
     inkscape:cy="256"
     inkscape:window-x="0"
     inkscape:window-y="0"
     inkscape:window-maximized="1"
     inkscape:current-layer="Behance" />
  <title
     id="title2">behance-square-flat</title>
  <g
     id="Behance"
     style="fill:url(#linearGradient828);fill-opacity:1">
    <rect
       id="back"
       width="512"
       height="512"
       fill="#1d6fed"
       style="fill:url(#linearGradient828);fill-opacity:1" />
    <path
       id="Behance-2"
       data-name="Behance"
       d="M194.29,265.88H148.41v48.41h45.16c15.52,0,27.82-4.94,27.82-23.24C221.4,273.1,211,265.88,194.29,265.88Zm-5.89-70.46h-40V236.6h43c13.62,0,23.86-6.14,23.86-20.95C215.26,198.79,202.37,195.42,188.4,195.42Zm73.22,96.35c0,35.78-30.71,51.07-62.74,51.07H112.64V165.67h83.71c33.83,0,56.83,11.93,56.83,44.8,0,17.23-8.78,29.27-24.19,36.73C250.65,253.34,261.62,269.86,261.62,291.77ZM303.78,177.6h71.29v23.72H303.78Zm31.91,60.7c-22.4,0-28.91,12.53-29.39,22.28h57.57C360.62,242.87,352.91,238.29,335.68,238.29Zm-29.39,45.29c1,22.16,11.93,36.37,31.56,36.37,14.2,0,27.22-11.57,29.51-19.51h31.07c-9.88,30.12-32.65,45.89-61.79,45.89-40.58,0-66.13-27.59-66.13-67.09,0-38.18,27.09-67.33,66.13-67.33,43.85,0,65,32.41,62.51,71.67Z"
       fill-rule="evenodd"
       fill="#fff"
       style="fill:#ffffff;fill-opacity:1" />
  </g>
</svg>
