<?xml version="1.0" encoding="UTF-8" standalone="no"?>
<svg
   xmlns:dc="http://purl.org/dc/elements/1.1/"
   xmlns:cc="http://creativecommons.org/ns#"
   xmlns:rdf="http://www.w3.org/1999/02/22-rdf-syntax-ns#"
   xmlns:svg="http://www.w3.org/2000/svg"
   xmlns="http://www.w3.org/2000/svg"
   xmlns:sodipodi="http://sodipodi.sourceforge.net/DTD/sodipodi-0.dtd"
   xmlns:inkscape="http://www.inkscape.org/namespaces/inkscape"
   enable-background="new 0 0 550 550"
   id="Layer_1"
   version="1.1"
   viewBox="0 0 512 512"
   xml:space="preserve"
   sodipodi:docname="blogger-circle.svg"
   width="512"
   height="512"
   inkscape:version="0.92.3 (2405546, 2018-03-11)"><metadata
     id="metadata15"><rdf:RDF><cc:Work
         rdf:about=""><dc:format>image/svg+xml</dc:format><dc:type
           rdf:resource="http://purl.org/dc/dcmitype/StillImage" /><dc:title /></cc:Work></rdf:RDF></metadata><defs
     id="defs13"><filter
       style="color-interpolation-filters:sRGB;"
       inkscape:label="Drop Shadow"
       id="filter901"><feFlood
         flood-opacity="0.498039"
         flood-color="rgb(0,0,0)"
         result="flood"
         id="feFlood891" /><feComposite
         in="flood"
         in2="SourceGraphic"
         operator="in"
         result="composite1"
         id="feComposite893" /><feGaussianBlur
         in="composite1"
         stdDeviation="1"
         result="blur"
         id="feGaussianBlur895" /><feOffset
         dx="2"
         dy="2"
         result="offset"
         id="feOffset897" /><feComposite
         in="SourceGraphic"
         in2="offset"
         operator="over"
         result="composite2"
         id="feComposite899" /></filter></defs><sodipodi:namedview
     pagecolor="#ffffff"
     bordercolor="#666666"
     borderopacity="1"
     objecttolerance="10"
     gridtolerance="10"
     guidetolerance="10"
     inkscape:pageopacity="0"
     inkscape:pageshadow="2"
     inkscape:window-width="1366"
     inkscape:window-height="743"
     id="namedview11"
     showgrid="false"
     inkscape:showpageshadow="false"
     inkscape:zoom="0.42909091"
     inkscape:cx="-400.84746"
     inkscape:cy="275"
     inkscape:window-x="0"
     inkscape:window-y="0"
     inkscape:window-maximized="1"
     inkscape:current-layer="g6" /><g
     id="g8"
     transform="matrix(0.98634468,0,0,0.99544822,-16.054108,-19.269448)"><g
       id="g6"><circle
         cx="275"
         cy="275"
         r="256"
         id="circle2"
         style="fill:#f57d00;fill-opacity:1" /><path
         d="m 380,257 -1.8,-3.7 -3,-2.3 c -3.9,-3.1 -23.6,0.2 -28.9,-4.6 -3.8,-3.5 -4.3,-9.7 -5.5,-18.1 -2.1,-16.4 -3.5,-17.2 -6,-22.8 C 325.5,185.8 300.4,171 283.1,169 h -46.8 c -36.8,0 -66.9,30.2 -66.9,67 v 78.1 c 0,36.8 30.1,66.9 66.9,66.9 h 76.9 c 36.8,0 66.7,-30.1 66.9,-66.9 L 380.5,260 Z M 237.2,223.7 h 37.1 c 7.1,0 12.8,5.7 12.8,12.8 0,7 -5.7,12.8 -12.8,12.8 h -37.1 c -7.1,0 -12.8,-5.8 -12.8,-12.8 -0.1,-7 5.7,-12.8 12.8,-12.8 z m 75.4,102.2 h -75.5 c -7.1,0 -12.8,-5.8 -12.8,-12.8 0,-7 5.7,-12.7 12.8,-12.7 h 75.5 c 7,0 12.7,5.7 12.7,12.7 0.1,7 -5.7,12.8 -12.7,12.8 z"
         id="path4"
         inkscape:connector-curvature="0"
         style="clip-rule:evenodd;fill:#ffffff;fill-rule:evenodd;filter:url(#filter901)" /></g></g></svg>