<?xml version="1.0" encoding="UTF-8" standalone="no"?>
<!-- Generator: Adobe Illustrator 19.0.0, SVG Export Plug-In . SVG Version: 6.00 Build 0)  -->

<svg
   xmlns:dc="http://purl.org/dc/elements/1.1/"
   xmlns:cc="http://creativecommons.org/ns#"
   xmlns:rdf="http://www.w3.org/1999/02/22-rdf-syntax-ns#"
   xmlns:svg="http://www.w3.org/2000/svg"
   xmlns="http://www.w3.org/2000/svg"
   xmlns:sodipodi="http://sodipodi.sourceforge.net/DTD/sodipodi-0.dtd"
   xmlns:inkscape="http://www.inkscape.org/namespaces/inkscape"
   version="1.1"
   id="Capa_1"
   x="0px"
   y="0px"
   viewBox="0 0 512 512"
   xml:space="preserve"
   sodipodi:docname="blogger.svg"
   width="512"
   height="512"
   inkscape:version="0.92.3 (2405546, 2018-03-11)"><metadata
   id="metadata47"><rdf:RDF><cc:Work
       rdf:about=""><dc:format>image/svg+xml</dc:format><dc:type
         rdf:resource="http://purl.org/dc/dcmitype/StillImage" /><dc:title></dc:title></cc:Work></rdf:RDF></metadata><defs
   id="defs45" /><sodipodi:namedview
   pagecolor="#ffffff"
   bordercolor="#666666"
   borderopacity="1"
   objecttolerance="10"
   gridtolerance="10"
   guidetolerance="10"
   inkscape:pageopacity="0"
   inkscape:pageshadow="2"
   inkscape:window-width="1366"
   inkscape:window-height="743"
   id="namedview43"
   showgrid="false"
   inkscape:showpageshadow="false"
   inkscape:zoom="0.45347065"
   inkscape:cx="-84.363372"
   inkscape:cy="484.33993"
   inkscape:window-x="0"
   inkscape:window-y="0"
   inkscape:window-maximized="1"
   inkscape:current-layer="Capa_1" />
<g
   id="g10"
   transform="matrix(11.26765,0,0,11.115222,-4.6101751,0.69976912)">
	<g
   id="g8">
		<path
   d="M 29.701,27 H 15.123 c -2.067,0 -3.749,1.792 -3.749,3.996 0,2.203 1.682,3.995 3.749,3.995 H 29.7 c 2.066,0 3.748,-1.792 3.748,-3.995 C 33.449,28.792 31.767,27 29.701,27 Z m 0,5.99 H 15.123 c -0.965,0 -1.749,-0.895 -1.749,-1.995 0,-1.101 0.784,-1.996 1.749,-1.996 H 29.7 c 0.964,0 1.748,0.895 1.748,1.996 0.001,1.1 -0.784,1.995 -1.747,1.995 z"
   id="path2"
   inkscape:connector-curvature="0" />
		<path
   d="m 15.432,19.845 h 7.959 c 2.237,0 4.058,-1.743 4.058,-3.884 0,-2.119 -1.744,-3.716 -4.058,-3.716 h -7.959 c -2.313,0 -4.058,1.598 -4.058,3.716 0,2.142 1.821,3.884 4.058,3.884 z m 0,-5.6 h 7.959 c 1.023,0 2.058,0.589 2.058,1.716 0,1.039 -0.923,1.884 -2.058,1.884 h -7.959 c -1.135,0 -2.058,-0.845 -2.058,-1.884 0,-1.127 1.035,-1.716 2.058,-1.716 z"
   id="path4"
   inkscape:connector-curvature="0" />
		<path
   d="M 45.432,20.737 C 45.161,17.563 41.799,16.43 40.059,16.274 39.673,16.239 38.936,16.24 38.319,16.249 V 15.247 C 38.319,7.125 31.499,0 23.726,0 H 14.738 C 6.992,0 0.449,6.982 0.449,15.247 v 16.08 c 0,8.064 6.41,14.625 14.289,14.625 L 22.374,45.948 22.355,46 32.991,45.999 c 0.004,0 0.021,0 0.049,0 0.832,0 11.641,-0.259 12.396,-12.963 0.01,-0.375 0.257,-9.242 -0.004,-12.299 z M 43.438,32.949 C 42.775,44.096 33.442,44.015 33.019,44 h -7.887 l 0.015,-0.047 H 14.738 C 7.962,43.953 2.449,38.29 2.449,31.328 V 15.248 C 2.449,8.066 8.076,2 14.738,2 h 8.988 c 6.708,0 12.593,6.19 12.593,13.247 V 18.3 l 1.029,-0.03 c 0.537,-0.016 2.041,-0.048 2.534,-0.003 0.033,0.003 3.359,0.327 3.558,2.641 0.251,2.943 -10e-4,11.981 -0.002,12.041 z"
   id="path6"
   inkscape:connector-curvature="0" />
	</g>
</g>
<g
   id="g12"
   transform="translate(0,466)">
</g>
<g
   id="g14"
   transform="translate(0,466)">
</g>
<g
   id="g16"
   transform="translate(0,466)">
</g>
<g
   id="g18"
   transform="translate(0,466)">
</g>
<g
   id="g20"
   transform="translate(0,466)">
</g>
<g
   id="g22"
   transform="translate(0,466)">
</g>
<g
   id="g24"
   transform="translate(0,466)">
</g>
<g
   id="g26"
   transform="translate(0,466)">
</g>
<g
   id="g28"
   transform="translate(0,466)">
</g>
<g
   id="g30"
   transform="translate(0,466)">
</g>
<g
   id="g32"
   transform="translate(0,466)">
</g>
<g
   id="g34"
   transform="translate(0,466)">
</g>
<g
   id="g36"
   transform="translate(0,466)">
</g>
<g
   id="g38"
   transform="translate(0,466)">
</g>
<g
   id="g40"
   transform="translate(0,466)">
</g>
</svg>