<?xml version="1.0" encoding="UTF-8" standalone="no"?>
<svg
   xmlns:dc="http://purl.org/dc/elements/1.1/"
   xmlns:cc="http://creativecommons.org/ns#"
   xmlns:rdf="http://www.w3.org/1999/02/22-rdf-syntax-ns#"
   xmlns:svg="http://www.w3.org/2000/svg"
   xmlns="http://www.w3.org/2000/svg"
   xmlns:sodipodi="http://sodipodi.sourceforge.net/DTD/sodipodi-0.dtd"
   xmlns:inkscape="http://www.inkscape.org/namespaces/inkscape"
   id="Layer_1"
   data-name="Layer 1"
   viewBox="0 0 512 512"
   version="1.1"
   sodipodi:docname="dribbble-circle.svg"
   inkscape:version="0.92.3 (2405546, 2018-03-11)">
  <metadata
     id="metadata12">
    <rdf:RDF>
      <cc:Work
         rdf:about="">
        <dc:format>image/svg+xml</dc:format>
        <dc:type
           rdf:resource="http://purl.org/dc/dcmitype/StillImage" />
        <dc:title>dribbble-flat</dc:title>
      </cc:Work>
    </rdf:RDF>
  </metadata>
  <defs
     id="defs10">
    <filter
       style="color-interpolation-filters:sRGB;"
       inkscape:label="Drop Shadow"
       id="filter832">
      <feFlood
         flood-opacity="0.498039"
         flood-color="rgb(0,0,0)"
         result="flood"
         id="feFlood822" />
      <feComposite
         in="flood"
         in2="SourceGraphic"
         operator="in"
         result="composite1"
         id="feComposite824" />
      <feGaussianBlur
         in="composite1"
         stdDeviation="0.5"
         result="blur"
         id="feGaussianBlur826" />
      <feOffset
         dx="1"
         dy="1"
         result="offset"
         id="feOffset828" />
      <feComposite
         in="SourceGraphic"
         in2="offset"
         operator="over"
         result="composite2"
         id="feComposite830" />
    </filter>
  </defs>
  <sodipodi:namedview
     pagecolor="#ffffff"
     bordercolor="#666666"
     borderopacity="1"
     objecttolerance="10"
     gridtolerance="10"
     guidetolerance="10"
     inkscape:pageopacity="0"
     inkscape:pageshadow="2"
     inkscape:window-width="800"
     inkscape:window-height="480"
     id="namedview8"
     showgrid="false"
     inkscape:showpageshadow="false"
     inkscape:zoom="0.4609375"
     inkscape:cx="391.59322"
     inkscape:cy="256"
     inkscape:window-x="0"
     inkscape:window-y="0"
     inkscape:window-maximized="0"
     inkscape:current-layer="Dribbble" />
  <title
     id="title2">dribbble-flat</title>
  <g
     id="Dribbble">
    <circle
       id="back"
       cx="256"
       cy="256"
       r="256"
       fill="#ea4c89" />
    <path
       id="dribble"
       d="M323.63,354.79A435.87,435.87,0,0,0,301,273.2c20.9-2.62,45-2,73,3.11A120.27,120.27,0,0,1,323.63,354.79Zm-140.27-3.7c20.21-30.46,48.41-60.57,94.15-73.23a409.4,409.4,0,0,1,24.15,88.89,121,121,0,0,1-45.65,9A119,119,0,0,1,183.36,351.09ZM136.29,256v-3.83H137c42.65,0,85.08-2.87,123-14,2.76,5.73,5.64,11.59,8.24,17.68-49.93,14.71-81.11,47.55-102.37,78.84A118.63,118.63,0,0,1,136.29,256ZM204.5,147.88a588.67,588.67,0,0,1,44.33,68.81c-33.69,9.21-71.32,11.71-109.31,11.83A120.58,120.58,0,0,1,204.5,147.88Zm129,17c-16.84,20.55-38,34.64-62,44.2a620.54,620.54,0,0,0-43.7-69.41A122.11,122.11,0,0,1,256,136.3,119.12,119.12,0,0,1,333.55,164.84ZM350,182a119.76,119.76,0,0,1,25.67,70.6c-32.25-5.61-60-5.86-83.87-2-3.09-6.93-6.2-13.76-9.43-20.32C308.08,219.8,331.15,204.39,350,182Zm-94-69.41A143.36,143.36,0,1,0,399.36,256,143.32,143.32,0,0,0,256,112.64Z"
       fill="#fff"
       style="filter:url(#filter832)" />
  </g>
</svg>
