<?xml version="1.0" encoding="UTF-8" standalone="no"?>
<!-- Generator: Adobe Illustrator 19.0.0, SVG Export Plug-In . SVG Version: 6.00 Build 0)  -->

<svg
   xmlns:dc="http://purl.org/dc/elements/1.1/"
   xmlns:cc="http://creativecommons.org/ns#"
   xmlns:rdf="http://www.w3.org/1999/02/22-rdf-syntax-ns#"
   xmlns:svg="http://www.w3.org/2000/svg"
   xmlns="http://www.w3.org/2000/svg"
   xmlns:sodipodi="http://sodipodi.sourceforge.net/DTD/sodipodi-0.dtd"
   xmlns:inkscape="http://www.inkscape.org/namespaces/inkscape"
   version="1.1"
   id="Layer_1"
   x="0px"
   y="0px"
   viewBox="0 0 511.99999 511.99999"
   xml:space="preserve"
   sodipodi:docname="dropbox.svg"
   width="512"
   height="512"
   inkscape:version="0.92.3 (2405546, 2018-03-11)"><metadata
   id="metadata43"><rdf:RDF><cc:Work
       rdf:about=""><dc:format>image/svg+xml</dc:format><dc:type
         rdf:resource="http://purl.org/dc/dcmitype/StillImage" /><dc:title></dc:title></cc:Work></rdf:RDF></metadata><defs
   id="defs41" /><sodipodi:namedview
   pagecolor="#ffffff"
   bordercolor="#666666"
   borderopacity="1"
   objecttolerance="10"
   gridtolerance="10"
   guidetolerance="10"
   inkscape:pageopacity="0"
   inkscape:pageshadow="2"
   inkscape:window-width="640"
   inkscape:window-height="480"
   id="namedview39"
   showgrid="false"
   inkscape:showpageshadow="false"
   inkscape:zoom="0.46403073"
   inkscape:cx="216.58048"
   inkscape:cy="254.2935"
   inkscape:window-x="0"
   inkscape:window-y="0"
   inkscape:window-maximized="0"
   inkscape:current-layer="Layer_1" />
<g
   transform="translate(2,5.4129944)"
   id="g6">
	<g
   id="g4">
		<path
   d="M 405.775,198.222 506.587,124.293 363.227,38.106 261.254,106.088 159.28,38.107 -2,123.44 l 102.123,78.672 -85.056,78.341 83.627,48.82 v 33.953 c 0,2.56 1.707,5.12 4.267,6.827 l 142.365,92.956 c 0.711,1.021 1.624,1.899 2.702,2.617 1.707,0.853 2.56,0.853 4.267,0.853 1.04,0 1.763,-0.003 2.555,-0.582 0.701,-0.314 1.305,-0.718 1.711,-1.124 l 145.067,-93.867 c 2.56,-0.853 4.267,-4.267 4.267,-6.827 v -40.566 l 83.627,-53.3 z M 251.993,276.968 130.54,202.072 260.627,126.188 374.431,198.064 Z m 83.927,70.899 -69.12,-59.733 123.733,-79.36 69.973,60.587 z m 27.307,-289.28 112.64,67.413 -83.337,60.836 -0.29,-0.249 -2.184,1.407 -113.458,-71.123 0.442,-0.258 -0.427,-0.284 z m -205.654,0 87.04,58.027 -130.56,75.093 -85.333,-64.854 z m -42.666,153.6 122.847,75.402 -67.38,62.838 -58.88,-34.133 c -0.448,-0.299 -0.928,-0.526 -1.42,-0.72 L 44.08,277.04 Z m 0.853,127.146 51.2,29.867 c 0.642,0.481 1.314,0.842 1.999,1.093 l 3.975,2.32 25.837,-24.178 44.99,-41.529 v 135.68 l -128,-83.627 v -19.626 z m 223.573,27.307 49.493,-31.573 v 24.747 l -128,82.773 V 306.053 l 68.267,59.733 c 0.911,0.911 2.041,1.492 3.269,1.793 l 1.851,1.62 2.591,-1.651 c 0.868,-0.201 1.723,-0.505 2.529,-0.908 z"
   id="path2"
   inkscape:connector-curvature="0" />
	</g>
</g>
<g
   id="g8"
   transform="translate(0,3.4129944)">
</g>
<g
   id="g10"
   transform="translate(0,3.4129944)">
</g>
<g
   id="g12"
   transform="translate(0,3.4129944)">
</g>
<g
   id="g14"
   transform="translate(0,3.4129944)">
</g>
<g
   id="g16"
   transform="translate(0,3.4129944)">
</g>
<g
   id="g18"
   transform="translate(0,3.4129944)">
</g>
<g
   id="g20"
   transform="translate(0,3.4129944)">
</g>
<g
   id="g22"
   transform="translate(0,3.4129944)">
</g>
<g
   id="g24"
   transform="translate(0,3.4129944)">
</g>
<g
   id="g26"
   transform="translate(0,3.4129944)">
</g>
<g
   id="g28"
   transform="translate(0,3.4129944)">
</g>
<g
   id="g30"
   transform="translate(0,3.4129944)">
</g>
<g
   id="g32"
   transform="translate(0,3.4129944)">
</g>
<g
   id="g34"
   transform="translate(0,3.4129944)">
</g>
<g
   id="g36"
   transform="translate(0,3.4129944)">
</g>
</svg>