<?xml version="1.0" encoding="UTF-8" standalone="no"?>
<!-- Generator: Adobe Illustrator 19.0.0, SVG Export Plug-In . SVG Version: 6.00 Build 0)  -->

<svg
   xmlns:dc="http://purl.org/dc/elements/1.1/"
   xmlns:cc="http://creativecommons.org/ns#"
   xmlns:rdf="http://www.w3.org/1999/02/22-rdf-syntax-ns#"
   xmlns:svg="http://www.w3.org/2000/svg"
   xmlns="http://www.w3.org/2000/svg"
   xmlns:sodipodi="http://sodipodi.sourceforge.net/DTD/sodipodi-0.dtd"
   xmlns:inkscape="http://www.inkscape.org/namespaces/inkscape"
   version="1.1"
   id="Layer_1"
   x="0px"
   y="0px"
   viewBox="0 0 512 512"
   xml:space="preserve"
   sodipodi:docname="dropbox-square.svg"
   width="512"
   height="512"
   inkscape:version="0.92.3 (2405546, 2018-03-11)"><metadata
   id="metadata43"><rdf:RDF><cc:Work
       rdf:about=""><dc:format>image/svg+xml</dc:format><dc:type
         rdf:resource="http://purl.org/dc/dcmitype/StillImage" /><dc:title></dc:title></cc:Work></rdf:RDF></metadata><defs
   id="defs41" /><sodipodi:namedview
   pagecolor="#ffffff"
   bordercolor="#666666"
   borderopacity="1"
   objecttolerance="10"
   gridtolerance="10"
   guidetolerance="10"
   inkscape:pageopacity="0"
   inkscape:pageshadow="2"
   inkscape:window-width="1366"
   inkscape:window-height="743"
   id="namedview39"
   showgrid="false"
   inkscape:showpageshadow="false"
   inkscape:zoom="0.81010851"
   inkscape:cx="114.51586"
   inkscape:cy="272.41981"
   inkscape:window-x="0"
   inkscape:window-y="0"
   inkscape:window-maximized="1"
   inkscape:current-layer="g6" />
<g
   id="g6"
   transform="matrix(1.7670311,0,0,1.7578295,0,-0.08913348)">
	<rect
   style="opacity:1;fill:#3d9ae8;fill-opacity:1;fill-rule:nonzero;stroke:none;stroke-width:0.91883129;stroke-miterlimit:4;stroke-dasharray:none;stroke-opacity:1"
   id="rect864"
   width="291.30548"
   height="294.23486"
   x="-0.69857436"
   y="-1.5113677" />
	<path
   style="fill:#ffffff"
   d="m 54.631,154.672 53.557,33.729 37.48,-30.161 -54.003,-32.173 z m 53.548,-90.955 -53.548,33.72 37.034,28.631 54.003,-32.173 c 0.001,0.001 -37.489,-30.178 -37.489,-30.178 z m 128.518,33.72 -53.557,-33.72 -37.48,30.17 54.003,32.173 c 0,-0.001 37.034,-28.623 37.034,-28.623 z m -91.037,60.804 37.48,30.161 53.557,-33.729 -37.034,-28.613 c 0,-0.001 -54.004,32.181 -54.003,32.181 z m -0.037,23.742 -38.254,26.401 -16.368,-8.913 v 19.09 l 54.622,27.238 54.613,-27.238 v -19.09 l -16.368,8.913 z"
   id="path4"
   inkscape:connector-curvature="0" />
</g>
<g
   id="g8"
   transform="translate(0,220.681)">
</g>
<g
   id="g10"
   transform="translate(0,220.681)">
</g>
<g
   id="g12"
   transform="translate(0,220.681)">
</g>
<g
   id="g14"
   transform="translate(0,220.681)">
</g>
<g
   id="g16"
   transform="translate(0,220.681)">
</g>
<g
   id="g18"
   transform="translate(0,220.681)">
</g>
<g
   id="g20"
   transform="translate(0,220.681)">
</g>
<g
   id="g22"
   transform="translate(0,220.681)">
</g>
<g
   id="g24"
   transform="translate(0,220.681)">
</g>
<g
   id="g26"
   transform="translate(0,220.681)">
</g>
<g
   id="g28"
   transform="translate(0,220.681)">
</g>
<g
   id="g30"
   transform="translate(0,220.681)">
</g>
<g
   id="g32"
   transform="translate(0,220.681)">
</g>
<g
   id="g34"
   transform="translate(0,220.681)">
</g>
<g
   id="g36"
   transform="translate(0,220.681)">
</g>
</svg>