<?xml version="1.0" encoding="UTF-8" standalone="no"?>
<!-- Generator: Adobe Illustrator 19.0.0, SVG Export Plug-In . SVG Version: 6.00 Build 0)  -->

<svg
   xmlns:dc="http://purl.org/dc/elements/1.1/"
   xmlns:cc="http://creativecommons.org/ns#"
   xmlns:rdf="http://www.w3.org/1999/02/22-rdf-syntax-ns#"
   xmlns:svg="http://www.w3.org/2000/svg"
   xmlns="http://www.w3.org/2000/svg"
   xmlns:xlink="http://www.w3.org/1999/xlink"
   xmlns:sodipodi="http://sodipodi.sourceforge.net/DTD/sodipodi-0.dtd"
   xmlns:inkscape="http://www.inkscape.org/namespaces/inkscape"
   version="1.1"
   id="Layer_1"
   x="0px"
   y="0px"
   viewBox="0 0 512.00001 512.00001"
   xml:space="preserve"
   sodipodi:docname="facebook-square.svg"
   width="512"
   height="512"
   inkscape:version="0.92.3 (2405546, 2018-03-11)"><metadata
   id="metadata39"><rdf:RDF><cc:Work
       rdf:about=""><dc:format>image/svg+xml</dc:format><dc:type
         rdf:resource="http://purl.org/dc/dcmitype/StillImage" /><dc:title /></cc:Work></rdf:RDF></metadata><defs
   id="defs37"><linearGradient
     inkscape:collect="always"
     id="linearGradient850"><stop
       style="stop-color:#1877f2;stop-opacity:1"
       offset="0"
       id="stop846" /><stop
       style="stop-color:#3b5998;stop-opacity:1"
       offset="1"
       id="stop848" /></linearGradient><linearGradient
     inkscape:collect="always"
     xlink:href="#linearGradient850"
     id="linearGradient852"
     x1="0.002"
     y1="255.64143"
     x2="512.71615"
     y2="255.64143"
     gradientUnits="userSpaceOnUse" /></defs><sodipodi:namedview
   pagecolor="#ffffff"
   bordercolor="#666666"
   borderopacity="1"
   objecttolerance="10"
   gridtolerance="10"
   guidetolerance="10"
   inkscape:pageopacity="0"
   inkscape:pageshadow="2"
   inkscape:window-width="1366"
   inkscape:window-height="743"
   id="namedview35"
   showgrid="false"
   inkscape:showpageshadow="false"
   inkscape:zoom="0.28865819"
   inkscape:cx="973.15307"
   inkscape:cy="251.22797"
   inkscape:window-x="0"
   inkscape:window-y="0"
   inkscape:window-maximized="1"
   inkscape:current-layer="Layer_1" />
<g
   id="g838"><rect
     y="65.104652"
     x="93.536232"
     height="450.35965"
     width="346.43051"
     id="rect834"
     style="opacity:1;fill:#ffffff;fill-opacity:1;fill-rule:nonzero;stroke:none;stroke-width:1.55040514;stroke-miterlimit:4;stroke-dasharray:none;stroke-opacity:1" /><path
     inkscape:connector-curvature="0"
     id="path2"
     d="M 443.62513,-0.71714111 H 69.091764 C 30.9353,-0.71714111 0.002,30.214859 0.002,68.37252 v 374.53532 c 0,38.15766 30.932046,69.08966 69.089764,69.08966 H 253.80983 l 0.31482,-183.21647 h -47.59963 c -6.18591,0 -11.20663,-5.0019 -11.23046,-11.1878 l -0.22827,-59.05827 c -0.0238,-6.21976 5.01194,-11.27434 11.23171,-11.27434 h 47.51309 v -57.06529 c 0,-66.22373 40.44545,-102.283048 99.52137,-102.283048 h 48.47634 c 6.20221,0 11.23171,5.028238 11.23171,11.231695 v 49.798233 c 0,6.20095 -5.02573,11.22794 -11.22544,11.2317 l -29.7493,0.0138 c -32.12733,0 -38.34836,15.26657 -38.34836,37.67101 v 49.40316 h 70.59485 c 6.72649,0 11.94538,5.87359 11.1527,12.55366 l -6.99991,59.05827 c -0.66977,5.65159 -5.46221,9.90973 -11.1527,9.90973 h -63.28013 l -0.31481,183.21647 h 109.91023 c 38.15647,0 69.08851,-30.932 69.08851,-69.08841 V 68.37252 c -10e-4,-38.157661 -30.9333,-69.08966111 -69.09102,-69.08966111 z"
     style="fill:url(#linearGradient852);stroke-width:1.25423825;fill-opacity:1" /></g>
<g
   id="g4"
   transform="translate(0,103.21201)">
</g>
<g
   id="g6"
   transform="translate(0,103.21201)">
</g>
<g
   id="g8"
   transform="translate(0,103.21201)">
</g>
<g
   id="g10"
   transform="translate(0,103.21201)">
</g>
<g
   id="g12"
   transform="translate(0,103.21201)">
</g>
<g
   id="g14"
   transform="translate(0,103.21201)">
</g>
<g
   id="g16"
   transform="translate(0,103.21201)">
</g>
<g
   id="g18"
   transform="translate(0,103.21201)">
</g>
<g
   id="g20"
   transform="translate(0,103.21201)">
</g>
<g
   id="g22"
   transform="translate(0,103.21201)">
</g>
<g
   id="g24"
   transform="translate(0,103.21201)">
</g>
<g
   id="g26"
   transform="translate(0,103.21201)">
</g>
<g
   id="g28"
   transform="translate(0,103.21201)">
</g>
<g
   id="g30"
   transform="translate(0,103.21201)">
</g>
<g
   id="g32"
   transform="translate(0,103.21201)">
</g>
</svg>