<?xml version="1.0" encoding="UTF-8" standalone="no"?>
<!-- Generator: Adobe Illustrator 18.0.0, SVG Export Plug-In . SVG Version: 6.00 Build 0)  -->

<svg
   xmlns:dc="http://purl.org/dc/elements/1.1/"
   xmlns:cc="http://creativecommons.org/ns#"
   xmlns:rdf="http://www.w3.org/1999/02/22-rdf-syntax-ns#"
   xmlns:svg="http://www.w3.org/2000/svg"
   xmlns="http://www.w3.org/2000/svg"
   xmlns:sodipodi="http://sodipodi.sourceforge.net/DTD/sodipodi-0.dtd"
   xmlns:inkscape="http://www.inkscape.org/namespaces/inkscape"
   version="1.1"
   id="Capa_1"
   x="0px"
   y="0px"
   viewBox="0 0 512 512"
   xml:space="preserve"
   sodipodi:docname="flickr-circle.svg"
   width="512"
   height="512"
   inkscape:version="0.92.3 (2405546, 2018-03-11)"><metadata
   id="metadata47"><rdf:RDF><cc:Work
       rdf:about=""><dc:format>image/svg+xml</dc:format><dc:type
         rdf:resource="http://purl.org/dc/dcmitype/StillImage" /><dc:title /></cc:Work></rdf:RDF></metadata><defs
   id="defs45"><filter
     style="color-interpolation-filters:sRGB;"
     inkscape:label="Drop Shadow"
     id="filter844"><feFlood
       flood-opacity="0.498039"
       flood-color="rgb(0,0,0)"
       result="flood"
       id="feFlood834" /><feComposite
       in="flood"
       in2="SourceGraphic"
       operator="in"
       result="composite1"
       id="feComposite836" /><feGaussianBlur
       in="composite1"
       stdDeviation="1"
       result="blur"
       id="feGaussianBlur838" /><feOffset
       dx="2"
       dy="2"
       result="offset"
       id="feOffset840" /><feComposite
       in="SourceGraphic"
       in2="offset"
       operator="over"
       result="composite2"
       id="feComposite842" /></filter></defs><sodipodi:namedview
   pagecolor="#ffffff"
   bordercolor="#666666"
   borderopacity="1"
   objecttolerance="10"
   gridtolerance="10"
   guidetolerance="10"
   inkscape:pageopacity="0"
   inkscape:pageshadow="2"
   inkscape:window-width="1366"
   inkscape:window-height="743"
   id="namedview43"
   showgrid="false"
   showborder="true"
   inkscape:showpageshadow="false"
   inkscape:zoom="0.37184634"
   inkscape:cx="-453.76095"
   inkscape:cy="-105.52564"
   inkscape:window-x="0"
   inkscape:window-y="0"
   inkscape:window-maximized="1"
   inkscape:current-layer="g10" />
<g
   id="g10"
   transform="translate(0,399.805)">
	<path
   style="fill:#f40083;fill-opacity:1;stroke-width:4.52356434"
   d="m 252.42915,112.192 c 139.378,0 252.40215,-114.2156984 252.40215,-255.10825 0,-140.87892 -113.02415,-255.09462 -252.40215,-255.09462 C 113.01065,-398.01087 0,-283.79062 0,-142.91625 0,-2.0236984 113.01065,112.192 252.42915,112.192"
   id="path2"
   inkscape:connector-curvature="0" />
	<g
   id="g8"
   transform="matrix(4.4995481,0,0,4.5477085,0,-398.02451)"
   style="fill:#006add;fill-opacity:1;filter:url(#filter844)">
		<path
   style="fill:#006add;fill-opacity:1"
   d="m 84.246,56.096 c 0,6.849 -5.547,12.401 -12.396,12.401 -6.859,0 -12.406,-5.553 -12.406,-12.401 0,-6.847 5.547,-12.4 12.406,-12.4 6.849,0 12.396,5.554 12.396,12.4 z"
   id="path4"
   inkscape:connector-curvature="0" />
		<path
   style="fill:#006add;fill-opacity:1"
   d="m 52.749,56.096 c 0,6.849 -5.547,12.401 -12.406,12.401 -6.847,0 -12.394,-5.553 -12.394,-12.401 0,-6.847 5.547,-12.4 12.394,-12.4 6.859,0 12.406,5.554 12.406,12.4 z"
   id="path6"
   inkscape:connector-curvature="0" />
	</g>
</g>
<g
   id="g12"
   transform="translate(0,399.805)">
</g>
<g
   id="g14"
   transform="translate(0,399.805)">
</g>
<g
   id="g16"
   transform="translate(0,399.805)">
</g>
<g
   id="g18"
   transform="translate(0,399.805)">
</g>
<g
   id="g20"
   transform="translate(0,399.805)">
</g>
<g
   id="g22"
   transform="translate(0,399.805)">
</g>
<g
   id="g24"
   transform="translate(0,399.805)">
</g>
<g
   id="g26"
   transform="translate(0,399.805)">
</g>
<g
   id="g28"
   transform="translate(0,399.805)">
</g>
<g
   id="g30"
   transform="translate(0,399.805)">
</g>
<g
   id="g32"
   transform="translate(0,399.805)">
</g>
<g
   id="g34"
   transform="translate(0,399.805)">
</g>
<g
   id="g36"
   transform="translate(0,399.805)">
</g>
<g
   id="g38"
   transform="translate(0,399.805)">
</g>
<g
   id="g40"
   transform="translate(0,399.805)">
</g>
</svg>