<?xml version="1.0" encoding="UTF-8" standalone="no"?>
<!-- Generator: Adobe Illustrator 19.0.0, SVG Export Plug-In . SVG Version: 6.00 Build 0)  -->

<svg
   xmlns:dc="http://purl.org/dc/elements/1.1/"
   xmlns:cc="http://creativecommons.org/ns#"
   xmlns:rdf="http://www.w3.org/1999/02/22-rdf-syntax-ns#"
   xmlns:svg="http://www.w3.org/2000/svg"
   xmlns="http://www.w3.org/2000/svg"
   xmlns:sodipodi="http://sodipodi.sourceforge.net/DTD/sodipodi-0.dtd"
   xmlns:inkscape="http://www.inkscape.org/namespaces/inkscape"
   version="1.1"
   id="Layer_1"
   x="0px"
   y="0px"
   viewBox="0 0 512 512"
   xml:space="preserve"
   sodipodi:docname="flickr-square.svg"
   width="512"
   height="512"
   inkscape:version="0.92.3 (2405546, 2018-03-11)"><metadata
   id="metadata39"><rdf:RDF><cc:Work
       rdf:about=""><dc:format>image/svg+xml</dc:format><dc:type
         rdf:resource="http://purl.org/dc/dcmitype/StillImage" /><dc:title></dc:title></cc:Work></rdf:RDF></metadata><defs
   id="defs37" /><sodipodi:namedview
   pagecolor="#ffffff"
   bordercolor="#666666"
   borderopacity="1"
   objecttolerance="10"
   gridtolerance="10"
   guidetolerance="10"
   inkscape:pageopacity="0"
   inkscape:pageshadow="2"
   inkscape:window-width="1366"
   inkscape:window-height="743"
   id="namedview35"
   showgrid="false"
   inkscape:showpageshadow="false"
   inkscape:zoom="0.51868132"
   inkscape:cx="25.063559"
   inkscape:cy="227.5"
   inkscape:window-x="0"
   inkscape:window-y="0"
   inkscape:window-maximized="1"
   inkscape:current-layer="Layer_1" />
<path
   style="clip-rule:evenodd;fill-rule:evenodd;stroke-width:1.12923539;fill:#006add;fill-opacity:1"
   d="M 0,-2.7669487 V 512 H 512.83898 V -2.7669487 Z M 158.47176,333.81144 c -43.95537,0 -79.573455,-35.45896 -79.573455,-79.17568 0,-43.75519 35.618085,-79.21528 79.573455,-79.21528 43.9362,0 79.55428,35.46009 79.55428,79.21528 0,43.71672 -35.61695,79.17568 -79.55428,79.17568 z m 195.89548,0 c -43.93622,0 -79.5543,-35.4601 -79.5543,-79.17568 0,-43.75519 35.61808,-79.21528 79.5543,-79.21528 43.9565,0 79.57344,35.46009 79.57344,79.21528 0,43.71672 -35.61808,79.17568 -79.57344,79.17568 z"
   id="path2"
   inkscape:connector-curvature="0" />
<g
   id="g4"
   transform="translate(0,57)">
</g>
<g
   id="g6"
   transform="translate(0,57)">
</g>
<g
   id="g8"
   transform="translate(0,57)">
</g>
<g
   id="g10"
   transform="translate(0,57)">
</g>
<g
   id="g12"
   transform="translate(0,57)">
</g>
<g
   id="g14"
   transform="translate(0,57)">
</g>
<g
   id="g16"
   transform="translate(0,57)">
</g>
<g
   id="g18"
   transform="translate(0,57)">
</g>
<g
   id="g20"
   transform="translate(0,57)">
</g>
<g
   id="g22"
   transform="translate(0,57)">
</g>
<g
   id="g24"
   transform="translate(0,57)">
</g>
<g
   id="g26"
   transform="translate(0,57)">
</g>
<g
   id="g28"
   transform="translate(0,57)">
</g>
<g
   id="g30"
   transform="translate(0,57)">
</g>
<g
   id="g32"
   transform="translate(0,57)">
</g>
<ellipse
   style="opacity:1;fill:#f40083;fill-opacity:1;fill-rule:nonzero;stroke:none;stroke-width:2.16323113;stroke-miterlimit:4;stroke-dasharray:none;stroke-opacity:1"
   id="path846"
   cx="158.16525"
   cy="254.68857"
   rx="80.974579"
   ry="81.93856" /><ellipse
   style="opacity:1;fill:#f40083;fill-opacity:1;fill-rule:nonzero;stroke:none;stroke-width:2.16323113;stroke-miterlimit:4;stroke-dasharray:none;stroke-opacity:1"
   id="path846-3"
   cx="354.52966"
   cy="253.72459"
   rx="80.974579"
   ry="81.93856" /></svg>