<?xml version="1.0" encoding="UTF-8" standalone="no"?>
<!-- Generator: Adobe Illustrator 18.0.0, SVG Export Plug-In . SVG Version: 6.00 Build 0)  -->

<svg
   xmlns:dc="http://purl.org/dc/elements/1.1/"
   xmlns:cc="http://creativecommons.org/ns#"
   xmlns:rdf="http://www.w3.org/1999/02/22-rdf-syntax-ns#"
   xmlns:svg="http://www.w3.org/2000/svg"
   xmlns="http://www.w3.org/2000/svg"
   xmlns:sodipodi="http://sodipodi.sourceforge.net/DTD/sodipodi-0.dtd"
   xmlns:inkscape="http://www.inkscape.org/namespaces/inkscape"
   version="1.1"
   id="Capa_1"
   x="0px"
   y="0px"
   viewBox="0 0 511.99999 511.99999"
   xml:space="preserve"
   sodipodi:docname="gmail.svg"
   width="512"
   height="512"
   inkscape:version="0.92.3 (2405546, 2018-03-11)"><metadata
   id="metadata39"><rdf:RDF><cc:Work
       rdf:about=""><dc:format>image/svg+xml</dc:format><dc:type
         rdf:resource="http://purl.org/dc/dcmitype/StillImage" /><dc:title></dc:title></cc:Work></rdf:RDF></metadata><defs
   id="defs37" /><sodipodi:namedview
   pagecolor="#ffffff"
   bordercolor="#666666"
   borderopacity="1"
   objecttolerance="10"
   gridtolerance="10"
   guidetolerance="10"
   inkscape:pageopacity="0"
   inkscape:pageshadow="2"
   inkscape:window-width="800"
   inkscape:window-height="480"
   id="namedview35"
   showgrid="false"
   inkscape:showpageshadow="false"
   inkscape:zoom="0.23546314"
   inkscape:cx="-329.30388"
   inkscape:cy="242.40826"
   inkscape:window-x="0"
   inkscape:window-y="0"
   inkscape:window-maximized="0"
   inkscape:current-layer="Capa_1" />
<path
   d="M 50.701324,443.49245 H 463.17953 c 25.61526,0 46.45438,-17.95491 46.45438,-40.02452 V 153.36591 c 0,-22.06961 -20.83912,-40.02279 -46.45438,-40.02279 H 50.701324 c -25.615255,0 -46.4543748,17.95491 -46.4543748,40.02279 v 250.10202 c 0,22.06961 20.8391198,40.02452 46.4543748,40.02452 z M 34.501188,153.36591 c 0,-7.70812 7.263034,-13.95837 16.200136,-13.95837 H 463.17953 c 8.94114,0 16.20014,6.25025 16.20014,13.95837 v 250.10202 c 0,7.70985 -7.26102,13.9601 -16.20014,13.9601 H 50.701324 c -8.939119,0 -16.200136,-6.25025 -16.200136,-13.9601 z M 94.481223,398.99527 H 64.226985 V 158.94543 L 253.16268,264.61928 c 2.22268,1.24241 5.3308,1.24414 7.55953,-0.003 L 449.65589,158.94543 V 398.99527 H 419.40165 V 206.9422 l -142.20903,79.53818 c -6.03472,3.37274 -13.03756,5.15381 -20.25219,5.15381 -7.21463,0 -14.21748,-1.78107 -20.24815,-5.15207 L 94.481223,206.9422 Z"
   id="path2"
   inkscape:connector-curvature="0"
   style="stroke-width:1.87208641" />
<g
   id="g4"
   transform="translate(0,261.42999)">
</g>
<g
   id="g6"
   transform="translate(0,261.42999)">
</g>
<g
   id="g8"
   transform="translate(0,261.42999)">
</g>
<g
   id="g10"
   transform="translate(0,261.42999)">
</g>
<g
   id="g12"
   transform="translate(0,261.42999)">
</g>
<g
   id="g14"
   transform="translate(0,261.42999)">
</g>
<g
   id="g16"
   transform="translate(0,261.42999)">
</g>
<g
   id="g18"
   transform="translate(0,261.42999)">
</g>
<g
   id="g20"
   transform="translate(0,261.42999)">
</g>
<g
   id="g22"
   transform="translate(0,261.42999)">
</g>
<g
   id="g24"
   transform="translate(0,261.42999)">
</g>
<g
   id="g26"
   transform="translate(0,261.42999)">
</g>
<g
   id="g28"
   transform="translate(0,261.42999)">
</g>
<g
   id="g30"
   transform="translate(0,261.42999)">
</g>
<g
   id="g32"
   transform="translate(0,261.42999)">
</g>
</svg>