<?xml version="1.0" encoding="UTF-8" standalone="no"?>
<!-- Generator: Adobe Illustrator 19.0.0, SVG Export Plug-In . SVG Version: 6.00 Build 0)  -->

<svg
   xmlns:dc="http://purl.org/dc/elements/1.1/"
   xmlns:cc="http://creativecommons.org/ns#"
   xmlns:rdf="http://www.w3.org/1999/02/22-rdf-syntax-ns#"
   xmlns:svg="http://www.w3.org/2000/svg"
   xmlns="http://www.w3.org/2000/svg"
   xmlns:xlink="http://www.w3.org/1999/xlink"
   xmlns:sodipodi="http://sodipodi.sourceforge.net/DTD/sodipodi-0.dtd"
   xmlns:inkscape="http://www.inkscape.org/namespaces/inkscape"
   version="1.1"
   id="Layer_1"
   x="0px"
   y="0px"
   viewBox="0 0 511.99999 511.99999"
   xml:space="preserve"
   sodipodi:docname="instagram-square.svg"
   width="512"
   height="512"
   inkscape:version="0.92.3 (2405546, 2018-03-11)"><metadata
   id="metadata39"><rdf:RDF><cc:Work
       rdf:about=""><dc:format>image/svg+xml</dc:format><dc:type
         rdf:resource="http://purl.org/dc/dcmitype/StillImage" /><dc:title /></cc:Work></rdf:RDF></metadata><defs
   id="defs37"><linearGradient
     inkscape:collect="always"
     id="linearGradient850"><stop
       style="stop-color:#405de6;stop-opacity:1"
       offset="0"
       id="stop846" /><stop
       id="stop854"
       offset="0.12781955"
       style="stop-color:#833ab4;stop-opacity:1" /><stop
       style="stop-color:#c13584;stop-opacity:1"
       offset="0.24436089"
       id="stop856" /><stop
       id="stop858"
       offset="0.33834586"
       style="stop-color:#e1306c;stop-opacity:1" /><stop
       style="stop-color:#fd1d1d;stop-opacity:1"
       offset="0.51127821"
       id="stop860" /><stop
       id="stop862"
       offset="0.71052629"
       style="stop-color:#f56040;stop-opacity:1" /><stop
       style="stop-color:#f77737;stop-opacity:1"
       offset="0.86842102"
       id="stop864" /><stop
       style="stop-color:#fcaf45;stop-opacity:1"
       offset="1"
       id="stop848" /></linearGradient><linearGradient
     inkscape:collect="always"
     xlink:href="#linearGradient850"
     id="linearGradient852"
     x1="0"
     y1="256.13464"
     x2="513.6618"
     y2="256.13464"
     gradientUnits="userSpaceOnUse"
     spreadMethod="reflect" /></defs><sodipodi:namedview
   pagecolor="#ffffff"
   bordercolor="#666666"
   borderopacity="1"
   objecttolerance="10"
   gridtolerance="10"
   guidetolerance="10"
   inkscape:pageopacity="0"
   inkscape:pageshadow="2"
   inkscape:window-width="1366"
   inkscape:window-height="743"
   id="namedview35"
   showgrid="false"
   inkscape:showpageshadow="false"
   inkscape:zoom="0.73235116"
   inkscape:cx="-12.590596"
   inkscape:cy="280.78481"
   inkscape:window-x="0"
   inkscape:window-y="0"
   inkscape:window-maximized="1"
   inkscape:current-layer="g867" />
<g
   id="g867"><g
     id="g843"><rect
       y="65.492889"
       x="50.522213"
       height="385.06119"
       width="416.46689"
       id="rect838"
       style="opacity:1;fill:#ffffff;fill-opacity:1;fill-rule:nonzero;stroke:none;stroke-width:1.60000002;stroke-miterlimit:4;stroke-dasharray:none;stroke-opacity:1" /><path
       style="fill:url(#linearGradient852);stroke-width:1.12499797;fill-opacity:1"
       d="m 256.82525,205.25126 c -28.15542,0 -51.08101,22.82818 -51.08101,50.87775 0,28.06081 22.92559,50.90022 51.08101,50.90022 28.1667,0 51.08102,-22.83941 51.08102,-50.90022 0,-28.04957 -22.91432,-50.87775 -51.08102,-50.87775 z m 0,0 c -28.15542,0 -51.08101,22.82818 -51.08101,50.87775 0,28.06081 22.92559,50.90022 51.08101,50.90022 28.1667,0 51.08102,-22.83941 51.08102,-50.90022 0,-28.04957 -22.91432,-50.87775 -51.08102,-50.87775 z m 85.09746,-82.9697 H 171.73907 c -27.16356,0 -49.26636,22.0197 -49.26636,49.08114 v 169.54386 c 0,27.06144 22.1028,49.08114 49.26636,49.08114 h 170.18364 c 27.16356,0 49.26636,-22.0197 49.26636,-49.08114 V 171.3627 c 0,-27.06144 -22.1028,-49.08114 -49.26636,-49.08114 z m -85.09746,221.98241 c -48.77042,0 -88.45627,-39.53665 -88.45627,-88.13496 0,-48.58707 39.68585,-88.12372 88.45627,-88.12372 48.7817,0 88.46755,39.53665 88.46755,88.12372 0,48.59831 -39.68585,88.13496 -88.46755,88.13496 z m 91.30789,-158.03432 c -11.5417,0 -20.9306,-9.3536 -20.9306,-20.85191 0,-11.4983 9.3889,-20.8519 20.9306,-20.8519 11.54169,0 20.93059,9.3536 20.93059,20.8519 0,11.49831 -9.3889,20.85191 -20.93059,20.85191 z m -91.30789,19.02161 c -28.15542,0 -51.08101,22.82818 -51.08101,50.87775 0,28.06081 22.92559,50.90022 51.08101,50.90022 28.1667,0 51.08102,-22.83941 51.08102,-50.90022 0,-28.04957 -22.91432,-50.87775 -51.08102,-50.87775 z m 85.09746,-82.9697 H 171.73907 c -27.16356,0 -49.26636,22.0197 -49.26636,49.08114 v 169.54386 c 0,27.06144 22.1028,49.08114 49.26636,49.08114 h 170.18364 c 27.16356,0 49.26636,-22.0197 49.26636,-49.08114 V 171.3627 c 0,-27.06144 -22.1028,-49.08114 -49.26636,-49.08114 z m -85.09746,221.98241 c -48.77042,0 -88.45627,-39.53665 -88.45627,-88.13496 0,-48.58707 39.68585,-88.12372 88.45627,-88.12372 48.7817,0 88.46755,39.53665 88.46755,88.12372 0,48.59831 -39.68585,88.13496 -88.46755,88.13496 z m 91.30789,-158.03432 c -11.5417,0 -20.9306,-9.3536 -20.9306,-20.85191 0,-11.4983 9.3889,-20.8519 20.9306,-20.8519 11.54169,0 20.93059,9.3536 20.93059,20.8519 0,11.49831 -9.3889,20.85191 -20.93059,20.85191 z m -91.30789,19.02161 c -28.15542,0 -51.08101,22.82818 -51.08101,50.87775 0,28.06081 22.92559,50.90022 51.08101,50.90022 28.1667,0 51.08102,-22.83941 51.08102,-50.90022 0,-28.04957 -22.91432,-50.87775 -51.08102,-50.87775 z M 0,0.26926731 V 511.99999 H 513.66178 V 0.26926731 Z M 428.56432,340.90656 c 0,47.59894 -38.86305,86.31589 -86.64161,86.31589 H 171.73907 c -47.77856,0 -86.641612,-38.71695 -86.641612,-86.31589 V 171.3627 c 0,-47.59894 38.863052,-86.315889 86.641612,-86.315889 h 170.18364 c 47.77856,0 86.64161,38.716949 86.64161,86.315889 z m -86.64161,-218.625 H 171.73907 c -27.16356,0 -49.26636,22.0197 -49.26636,49.08114 v 169.54386 c 0,27.06144 22.1028,49.08114 49.26636,49.08114 h 170.18364 c 27.16356,0 49.26636,-22.0197 49.26636,-49.08114 V 171.3627 c 0,-27.06144 -22.1028,-49.08114 -49.26636,-49.08114 z m -85.09746,221.98241 c -48.77042,0 -88.45627,-39.53665 -88.45627,-88.13496 0,-48.58707 39.68585,-88.12372 88.45627,-88.12372 48.7817,0 88.46755,39.53665 88.46755,88.12372 0,48.59831 -39.68585,88.13496 -88.46755,88.13496 z m 91.30789,-158.03432 c -11.5417,0 -20.9306,-9.3536 -20.9306,-20.85191 0,-11.4983 9.3889,-20.8519 20.9306,-20.8519 11.54169,0 20.93059,9.3536 20.93059,20.8519 0,11.49831 -9.3889,20.85191 -20.93059,20.85191 z m -91.30789,19.02161 c -28.15542,0 -51.08101,22.82818 -51.08101,50.87775 0,28.06081 22.92559,50.90022 51.08101,50.90022 28.1667,0 51.08102,-22.83941 51.08102,-50.90022 0,-28.04957 -22.91432,-50.87775 -51.08102,-50.87775 z m 0,0 c -28.15542,0 -51.08101,22.82818 -51.08101,50.87775 0,28.06081 22.92559,50.90022 51.08101,50.90022 28.1667,0 51.08102,-22.83941 51.08102,-50.90022 0,-28.04957 -22.91432,-50.87775 -51.08102,-50.87775 z m 0,0 c -28.15542,0 -51.08101,22.82818 -51.08101,50.87775 0,28.06081 22.92559,50.90022 51.08101,50.90022 28.1667,0 51.08102,-22.83941 51.08102,-50.90022 0,-28.04957 -22.91432,-50.87775 -51.08102,-50.87775 z m 85.09746,-82.9697 H 171.73907 c -27.16356,0 -49.26636,22.0197 -49.26636,49.08114 v 169.54386 c 0,27.06144 22.1028,49.08114 49.26636,49.08114 h 170.18364 c 27.16356,0 49.26636,-22.0197 49.26636,-49.08114 V 171.3627 c 0,-27.06144 -22.1028,-49.08114 -49.26636,-49.08114 z m -85.09746,221.98241 c -48.77042,0 -88.45627,-39.53665 -88.45627,-88.13496 0,-48.58707 39.68585,-88.12372 88.45627,-88.12372 48.7817,0 88.46755,39.53665 88.46755,88.12372 0,48.59831 -39.68585,88.13496 -88.46755,88.13496 z m 91.30789,-158.03432 c -11.5417,0 -20.9306,-9.3536 -20.9306,-20.85191 0,-11.4983 9.3889,-20.8519 20.9306,-20.8519 11.54169,0 20.93059,9.3536 20.93059,20.8519 0,11.49831 -9.3889,20.85191 -20.93059,20.85191 z m -91.30789,19.02161 c -28.15542,0 -51.08101,22.82818 -51.08101,50.87775 0,28.06081 22.92559,50.90022 51.08101,50.90022 28.1667,0 51.08102,-22.83941 51.08102,-50.90022 0,-28.04957 -22.91432,-50.87775 -51.08102,-50.87775 z m 0,0 c -28.15542,0 -51.08101,22.82818 -51.08101,50.87775 0,28.06081 22.92559,50.90022 51.08101,50.90022 28.1667,0 51.08102,-22.83941 51.08102,-50.90022 0,-28.04957 -22.91432,-50.87775 -51.08102,-50.87775 z m 0,0 c -28.15542,0 -51.08101,22.82818 -51.08101,50.87775 0,28.06081 22.92559,50.90022 51.08101,50.90022 28.1667,0 51.08102,-22.83941 51.08102,-50.90022 0,-28.04957 -22.91432,-50.87775 -51.08102,-50.87775 z m 85.09746,-82.9697 H 171.73907 c -27.16356,0 -49.26636,22.0197 -49.26636,49.08114 v 169.54386 c 0,27.06144 22.1028,49.08114 49.26636,49.08114 h 170.18364 c 27.16356,0 49.26636,-22.0197 49.26636,-49.08114 V 171.3627 c 0,-27.06144 -22.1028,-49.08114 -49.26636,-49.08114 z m -85.09746,221.98241 c -48.77042,0 -88.45627,-39.53665 -88.45627,-88.13496 0,-48.58707 39.68585,-88.12372 88.45627,-88.12372 48.7817,0 88.46755,39.53665 88.46755,88.12372 0,48.59831 -39.68585,88.13496 -88.46755,88.13496 z m 91.30789,-158.03432 c -11.5417,0 -20.9306,-9.3536 -20.9306,-20.85191 0,-11.4983 9.3889,-20.8519 20.9306,-20.8519 11.54169,0 20.93059,9.3536 20.93059,20.8519 0,11.49831 -9.3889,20.85191 -20.93059,20.85191 z m -91.30789,19.02161 c -28.15542,0 -51.08101,22.82818 -51.08101,50.87775 0,28.06081 22.92559,50.90022 51.08101,50.90022 28.1667,0 51.08102,-22.83941 51.08102,-50.90022 0,-28.04957 -22.91432,-50.87775 -51.08102,-50.87775 z"
       id="path2"
       inkscape:connector-curvature="0" /></g></g>
<g
   id="g4"
   transform="translate(0,56.269989)">
</g>
<g
   id="g6"
   transform="translate(0,56.269989)">
</g>
<g
   id="g8"
   transform="translate(0,56.269989)">
</g>
<g
   id="g10"
   transform="translate(0,56.269989)">
</g>
<g
   id="g12"
   transform="translate(0,56.269989)">
</g>
<g
   id="g14"
   transform="translate(0,56.269989)">
</g>
<g
   id="g16"
   transform="translate(0,56.269989)">
</g>
<g
   id="g18"
   transform="translate(0,56.269989)">
</g>
<g
   id="g20"
   transform="translate(0,56.269989)">
</g>
<g
   id="g22"
   transform="translate(0,56.269989)">
</g>
<g
   id="g24"
   transform="translate(0,56.269989)">
</g>
<g
   id="g26"
   transform="translate(0,56.269989)">
</g>
<g
   id="g28"
   transform="translate(0,56.269989)">
</g>
<g
   id="g30"
   transform="translate(0,56.269989)">
</g>
<g
   id="g32"
   transform="translate(0,56.269989)">
</g>
</svg>