<?xml version="1.0" encoding="UTF-8" standalone="no"?>
<svg
   xmlns:dc="http://purl.org/dc/elements/1.1/"
   xmlns:cc="http://creativecommons.org/ns#"
   xmlns:rdf="http://www.w3.org/1999/02/22-rdf-syntax-ns#"
   xmlns:svg="http://www.w3.org/2000/svg"
   xmlns="http://www.w3.org/2000/svg"
   xmlns:sodipodi="http://sodipodi.sourceforge.net/DTD/sodipodi-0.dtd"
   xmlns:inkscape="http://www.inkscape.org/namespaces/inkscape"
   height="512pt"
   viewBox="0 0 512 512.90176"
   width="512pt"
   version="1.1"
   id="svg8"
   sodipodi:docname="instagram.svg"
   inkscape:version="0.92.3 (2405546, 2018-03-11)">
  <metadata
     id="metadata14">
    <rdf:RDF>
      <cc:Work
         rdf:about="">
        <dc:format>image/svg+xml</dc:format>
        <dc:type
           rdf:resource="http://purl.org/dc/dcmitype/StillImage" />
        <dc:title></dc:title>
      </cc:Work>
    </rdf:RDF>
  </metadata>
  <defs
     id="defs12" />
  <sodipodi:namedview
     pagecolor="#ffffff"
     bordercolor="#666666"
     borderopacity="1"
     objecttolerance="10"
     gridtolerance="10"
     guidetolerance="10"
     inkscape:pageopacity="0"
     inkscape:pageshadow="2"
     inkscape:window-width="1366"
     inkscape:window-height="743"
     id="namedview10"
     showgrid="false"
     inkscape:showpageshadow="false"
     inkscape:zoom="0.34637965"
     inkscape:cx="290.14407"
     inkscape:cy="340.66667"
     inkscape:window-x="0"
     inkscape:window-y="0"
     inkscape:window-maximized="1"
     inkscape:current-layer="svg8" />
  <path
     d="m 510.94922,151.50176 c -1.19922,-27.19922 -5.59766,-45.89844 -11.89844,-62.101561 -6.5,-17.199219 -16.5,-32.597657 -29.60156,-45.398438 -12.80078,-13 -28.30078,-23.101562 -45.30078,-29.5 C 407.85156,8.2009803 389.25,3.8025423 362.05078,2.6033233 334.64844,1.3025423 325.94922,1.0017613 256.44922,1.0017613 c -69.5,0 -78.19922,0.300781 -105.5,1.5 -27.19922,1.199219 -45.89844,5.601562 -62.097658,11.8984377 -17.203124,6.5 -32.601562,16.5 -45.402343,29.601562 -13,12.800781 -23.097657,28.300781 -29.5,45.300781 C 7.648438,105.60332 3.25,124.20098 2.050781,151.4002 0.75,178.80254 0.449219,187.50176 0.449219,257.00176 c 0,69.5 0.300781,78.19922 1.5,105.5 1.199219,27.19922 5.601562,45.89844 11.902343,62.10156 6.5,17.19922 16.597657,32.59766 29.597657,45.39844 12.800781,13 28.300781,23.10156 45.300781,29.5 16.30078,6.30078 34.89844,10.69922 62.10156,11.89844 27.29688,1.20312 36,1.5 105.5,1.5 69.5,0 78.19922,-0.29688 105.5,-1.5 27.19922,-1.19922 45.89844,-5.59766 62.09766,-11.89844 34.40234,-13.30078 61.60156,-40.5 74.90234,-74.89844 6.29688,-16.30078 10.69922,-34.90234 11.89844,-62.10156 1.19922,-27.30078 1.5,-36 1.5,-105.5 0,-69.5 -0.10156,-78.19922 -1.30078,-105.5 z m -46.09766,209 c -1.10156,25 -5.30078,38.5 -8.80078,47.5 -8.60156,22.30078 -26.30078,40 -48.60156,48.60156 -9,3.5 -22.59766,7.69922 -47.5,8.79688 -27,1.20312 -35.09766,1.5 -103.39844,1.5 -68.30078,0 -76.5,-0.29688 -103.40234,-1.5 -25,-1.09766 -38.5,-5.29688 -47.5,-8.79688 C 94.550781,452.50176 84.449219,446.00176 76.25,437.50176 c -8.5,-8.30078 -15,-18.30078 -19.101562,-29.39844 -3.5,-9 -7.699219,-22.60156 -8.796876,-47.5 -1.203124,-27 -1.5,-35.10156 -1.5,-103.40234 0,-68.30078 0.296876,-76.5 1.5,-103.39844 1.097657,-25 5.296876,-38.5 8.796876,-47.5 C 61.25,95.20098 67.75,85.103323 76.351562,76.900199 c 8.296876,-8.5 18.296876,-15 29.398438,-19.097657 9,-3.5 22.60156,-7.699219 47.5,-8.800781 27,-1.199219 35.10156,-1.5 103.39844,-1.5 68.40234,0 76.5,0.300781 103.40234,1.5 25,1.101562 38.5,5.300781 47.5,8.800781 11.09766,4.097657 21.19922,10.597657 29.39844,19.097657 8.5,8.300781 15,18.300781 19.10156,29.402341 3.5,9 7.69922,22.59766 8.80078,47.5 1.19922,27 1.5,35.09766 1.5,103.39844 0,68.30078 -0.30078,76.30078 -1.5,103.30078 z m 0,0"
     id="path2"
     inkscape:connector-curvature="0" />
  <path
     d="m 256.44922,125.50176 c -72.59766,0 -131.5,58.89844 -131.5,131.5 0,72.60156 58.90234,131.5 131.5,131.5 72.60156,0 131.5,-58.89844 131.5,-131.5 0,-72.60156 -58.89844,-131.5 -131.5,-131.5 z m 0,216.80078 c -47.09766,0 -85.30078,-38.19922 -85.30078,-85.30078 0,-47.10156 38.20312,-85.30078 85.30078,-85.30078 47.10156,0 85.30078,38.19922 85.30078,85.30078 0,47.10156 -38.19922,85.30078 -85.30078,85.30078 z m 0,0"
     id="path4"
     inkscape:connector-curvature="0" />
  <path
     d="m 423.85156,120.30254 c 0,16.95313 -13.74609,30.69922 -30.70312,30.69922 -16.95313,0 -30.69922,-13.74609 -30.69922,-30.69922 0,-16.95703 13.74609,-30.699217 30.69922,-30.699217 16.95703,0 30.70312,13.742187 30.70312,30.699217 z m 0,0"
     id="path6"
     inkscape:connector-curvature="0" />
</svg>
