<?xml version="1.0" encoding="UTF-8" standalone="no"?>
<svg
   xmlns:dc="http://purl.org/dc/elements/1.1/"
   xmlns:cc="http://creativecommons.org/ns#"
   xmlns:rdf="http://www.w3.org/1999/02/22-rdf-syntax-ns#"
   xmlns:svg="http://www.w3.org/2000/svg"
   xmlns="http://www.w3.org/2000/svg"
   xmlns:sodipodi="http://sodipodi.sourceforge.net/DTD/sodipodi-0.dtd"
   xmlns:inkscape="http://www.inkscape.org/namespaces/inkscape"
   id="Bold"
   enable-background="new 0 0 24 24"
   height="512"
   viewBox="0 0 24 24"
   width="512"
   version="1.1"
   sodipodi:docname="linea-circle.svg"
   inkscape:version="0.92.3 (2405546, 2018-03-11)">
  <metadata
     id="metadata9">
    <rdf:RDF>
      <cc:Work
         rdf:about="">
        <dc:format>image/svg+xml</dc:format>
        <dc:type
           rdf:resource="http://purl.org/dc/dcmitype/StillImage" />
        <dc:title></dc:title>
      </cc:Work>
    </rdf:RDF>
  </metadata>
  <defs
     id="defs7">
    <filter
       style="color-interpolation-filters:sRGB;"
       inkscape:label="Drop Shadow"
       id="filter831">
      <feFlood
         flood-opacity="0.498039"
         flood-color="rgb(0,0,0)"
         result="flood"
         id="feFlood821" />
      <feComposite
         in="flood"
         in2="SourceGraphic"
         operator="in"
         result="composite1"
         id="feComposite823" />
      <feGaussianBlur
         in="composite1"
         stdDeviation="0.5"
         result="blur"
         id="feGaussianBlur825" />
      <feOffset
         dx="1"
         dy="1"
         result="offset"
         id="feOffset827" />
      <feComposite
         in="SourceGraphic"
         in2="offset"
         operator="over"
         result="composite2"
         id="feComposite829" />
    </filter>
  </defs>
  <sodipodi:namedview
     pagecolor="#ffffff"
     bordercolor="#666666"
     borderopacity="1"
     objecttolerance="10"
     gridtolerance="10"
     guidetolerance="10"
     inkscape:pageopacity="0"
     inkscape:pageshadow="2"
     inkscape:window-width="1366"
     inkscape:window-height="743"
     id="namedview5"
     showgrid="false"
     inkscape:showpageshadow="false"
     inkscape:zoom="0.4609375"
     inkscape:cx="-145.35593"
     inkscape:cy="256"
     inkscape:window-x="0"
     inkscape:window-y="0"
     inkscape:window-maximized="1"
     inkscape:current-layer="Bold" />
  <ellipse
     style="opacity:1;fill:#00c300;fill-opacity:1;fill-rule:nonzero;stroke:none;stroke-width:0.075;stroke-miterlimit:4;stroke-dasharray:none;stroke-opacity:1"
     id="path819"
     cx="11.949152"
     cy="12"
     rx="12.050848"
     ry="12.101695" />
  <path
     d="m 11.694915,6.0932204 c -4.14839,0 -7.5254235,2.6283857 -7.5254235,5.8585856 0,2.893136 2.6777965,5.317131 6.2931355,5.777906 0.245204,0.0496 0.578831,0.155384 0.663492,0.354993 0.07525,0.181082 0.04954,0.460774 0.02383,0.649626 l -0.102847,0.61317 c -0.02822,0.181083 -0.150509,0.712975 0.657847,0.387863 0.80961,-0.323916 4.337153,-2.452681 5.917492,-4.194778 1.081152,-1.135501 1.597898,-2.29909 1.597898,-3.58878 0,-3.2301999 -3.377034,-5.8585856 -7.525424,-5.8585856 z M 8.749339,13.872595 H 7.253034 c -0.216356,0 -0.395085,-0.17152 -0.395085,-0.378301 v -2.869231 c 0,-0.207378 0.178729,-0.378898 0.395085,-0.378898 0.218237,0 0.395085,0.17152 0.395085,0.378898 v 2.490332 h 1.10122 c 0.218237,0 0.394458,0.170326 0.394458,0.378899 0,0.206781 -0.176848,0.378301 -0.394458,0.378301 z m 1.546475,-0.378301 c 0,0.206781 -0.176848,0.378301 -0.3957124,0.378301 -0.216356,0 -0.393204,-0.17152 -0.393204,-0.378301 v -2.869231 c 0,-0.207378 0.176848,-0.378898 0.395085,-0.378898 0.2169834,0 0.3938314,0.17152 0.3938314,0.378898 z m 3.600288,0 c 0,0.162556 -0.109119,0.306585 -0.270916,0.358579 -0.04013,0.01255 -0.08341,0.01853 -0.124796,0.01853 -0.132322,0 -0.245204,-0.05438 -0.319831,-0.150603 l -1.532051,-1.994896 v 1.767795 c 0,0.206781 -0.174966,0.378301 -0.395711,0.378301 -0.216983,0 -0.392577,-0.17152 -0.392577,-0.378301 v -2.868636 c 0,-0.162556 0.108492,-0.306585 0.269661,-0.357981 0.03763,-0.01375 0.08529,-0.01972 0.121661,-0.01972 0.122289,0 0.23517,0.06275 0.310424,0.152994 l 1.543966,2.002664 v -1.777957 c 0,-0.207378 0.176848,-0.378898 0.395085,-0.378898 0.216356,0 0.395085,0.17152 0.395085,0.378898 z m 2.417542,-1.813813 c 0.218864,0 0.395085,0.171521 0.395085,0.379496 0,0.207379 -0.176221,0.378899 -0.395085,0.378899 h -1.100593 v 0.676519 h 1.100593 c 0.218864,0 0.395085,0.170326 0.395085,0.378899 0,0.206781 -0.176221,0.378301 -0.395085,0.378301 h -1.496305 c -0.216356,0 -0.393203,-0.17152 -0.393203,-0.378301 v -2.869231 c 0,-0.207378 0.176847,-0.378898 0.395084,-0.378898 h 1.496305 c 0.216983,0 0.393204,0.17152 0.393204,0.378898 0,0.209769 -0.176221,0.378899 -0.395085,0.378899 h -1.100593 v 0.676519 z"
     id="path2"
     inkscape:connector-curvature="0"
     style="fill:#ffffff;stroke-width:0.61219776;filter:url(#filter831)" />
</svg>
