<?xml version="1.0" encoding="UTF-8" standalone="no"?>
<!-- Generator: Adobe Illustrator 18.0.0, SVG Export Plug-In . SVG Version: 6.00 Build 0)  -->

<svg
   xmlns:dc="http://purl.org/dc/elements/1.1/"
   xmlns:cc="http://creativecommons.org/ns#"
   xmlns:rdf="http://www.w3.org/1999/02/22-rdf-syntax-ns#"
   xmlns:svg="http://www.w3.org/2000/svg"
   xmlns="http://www.w3.org/2000/svg"
   xmlns:sodipodi="http://sodipodi.sourceforge.net/DTD/sodipodi-0.dtd"
   xmlns:inkscape="http://www.inkscape.org/namespaces/inkscape"
   version="1.1"
   id="Capa_1"
   x="0px"
   y="0px"
   viewBox="0 0 512 512"
   xml:space="preserve"
   sodipodi:docname="linkedin.svg"
   inkscape:version="0.92.3 (2405546, 2018-03-11)"
   width="512"
   height="512"><metadata
   id="metadata45"><rdf:RDF><cc:Work
       rdf:about=""><dc:format>image/svg+xml</dc:format><dc:type
         rdf:resource="http://purl.org/dc/dcmitype/StillImage" /><dc:title></dc:title></cc:Work></rdf:RDF></metadata><defs
   id="defs43"><filter
     style="color-interpolation-filters:sRGB"
     inkscape:label="Drop Shadow"
     id="filter862"><feFlood
       flood-opacity="0.498039"
       flood-color="rgb(0,0,0)"
       result="flood"
       id="feFlood852" /><feComposite
       in="flood"
       in2="SourceGraphic"
       operator="in"
       result="composite1"
       id="feComposite854" /><feGaussianBlur
       in="composite1"
       stdDeviation="1"
       result="blur"
       id="feGaussianBlur856" /><feOffset
       dx="2"
       dy="2"
       result="offset"
       id="feOffset858" /><feComposite
       in="SourceGraphic"
       in2="offset"
       operator="over"
       result="composite2"
       id="feComposite860" /></filter><filter
     style="color-interpolation-filters:sRGB;"
     inkscape:label="Drop Shadow"
     id="filter857"><feFlood
       flood-opacity="0.498039"
       flood-color="rgb(0,0,0)"
       result="flood"
       id="feFlood846" /><feComposite
       in="flood"
       in2="SourceGraphic"
       operator="in"
       result="composite1"
       id="feComposite848" /><feGaussianBlur
       in="composite1"
       stdDeviation="1"
       result="blur"
       id="feGaussianBlur850" /><feOffset
       dx="2"
       dy="2"
       result="offset"
       id="feOffset852" /><feComposite
       in="SourceGraphic"
       in2="offset"
       operator="over"
       result="composite2"
       id="feComposite855" /></filter></defs><sodipodi:namedview
   pagecolor="#ffffff"
   bordercolor="#666666"
   borderopacity="1"
   objecttolerance="10"
   gridtolerance="10"
   guidetolerance="10"
   inkscape:pageopacity="0"
   inkscape:pageshadow="2"
   inkscape:window-width="1366"
   inkscape:window-height="743"
   id="namedview41"
   showgrid="false"
   inkscape:zoom="0.37184303"
   inkscape:cx="288.79535"
   inkscape:cy="190.74034"
   inkscape:window-x="0"
   inkscape:window-y="0"
   inkscape:window-maximized="1"
   inkscape:current-layer="g844"
   inkscape:showpageshadow="false" />
<g
   id="g8"
   transform="translate(0,399.804)">
	
	<g
   id="g6"
   style="filter:url(#filter862)">
		<g
   id="g844"
   transform="matrix(4.4756096,0,0,4.523549,0,-395.32458)"><g
     id="g837"><circle
       style="fill:#007ab9"
       cx="56.098"
       cy="56.097"
       r="56.098"
       id="circle2" /></g><path
     inkscape:connector-curvature="0"
     id="path4"
     d="M 89.616,60.611 V 83.739 H 76.207 V 62.161 c 0,-5.418 -1.936,-9.118 -6.791,-9.118 -3.705,0 -5.906,2.491 -6.878,4.903 -0.353,0.862 -0.444,2.059 -0.444,3.268 v 22.524 h -13.41 c 0,0 0.18,-36.546 0,-40.329 h 13.411 v 5.715 c -0.027,0.045 -0.065,0.089 -0.089,0.132 h 0.089 v -0.132 c 1.782,-2.742 4.96,-6.662 12.085,-6.662 8.822,0 15.436,5.764 15.436,18.149 z M 34.656,23.969 c -4.587,0 -7.588,3.011 -7.588,6.967 0,3.872 2.914,6.97 7.412,6.97 h 0.087 c 4.677,0 7.585,-3.098 7.585,-6.97 -0.089,-3.956 -2.908,-6.967 -7.496,-6.967 z m -6.791,59.77 H 41.27 V 43.409 H 27.865 Z"
     style="fill:#f1f2f2;filter:url(#filter857)" /></g>
	</g>
</g>
<g
   id="g10"
   transform="translate(0,399.804)">
</g>
<g
   id="g12"
   transform="translate(0,399.804)">
</g>
<g
   id="g14"
   transform="translate(0,399.804)">
</g>
<g
   id="g16"
   transform="translate(0,399.804)">
</g>
<g
   id="g18"
   transform="translate(0,399.804)">
</g>
<g
   id="g20"
   transform="translate(0,399.804)">
</g>
<g
   id="g22"
   transform="translate(0,399.804)">
</g>
<g
   id="g24"
   transform="translate(0,399.804)">
</g>
<g
   id="g26"
   transform="translate(0,399.804)">
</g>
<g
   id="g28"
   transform="translate(0,399.804)">
</g>
<g
   id="g30"
   transform="translate(0,399.804)">
</g>
<g
   id="g32"
   transform="translate(0,399.804)">
</g>
<g
   id="g34"
   transform="translate(0,399.804)">
</g>
<g
   id="g36"
   transform="translate(0,399.804)">
</g>
<g
   id="g38"
   transform="translate(0,399.804)">
</g>
</svg>