<?xml version="1.0" encoding="UTF-8" standalone="no"?>
<!-- Generator: Adobe Illustrator 19.1.0, SVG Export Plug-In . SVG Version: 6.00 Build 0)  -->

<svg
   xmlns:dc="http://purl.org/dc/elements/1.1/"
   xmlns:cc="http://creativecommons.org/ns#"
   xmlns:rdf="http://www.w3.org/1999/02/22-rdf-syntax-ns#"
   xmlns:svg="http://www.w3.org/2000/svg"
   xmlns="http://www.w3.org/2000/svg"
   xmlns:sodipodi="http://sodipodi.sourceforge.net/DTD/sodipodi-0.dtd"
   xmlns:inkscape="http://www.inkscape.org/namespaces/inkscape"
   version="1.1"
   id="Capa_1"
   x="0px"
   y="0px"
   viewBox="0 0 512.00001 512.00001"
   xml:space="preserve"
   sodipodi:docname="mail.svg"
   width="512"
   height="512"
   inkscape:version="0.92.3 (2405546, 2018-03-11)"><metadata
   id="metadata45"><rdf:RDF><cc:Work
       rdf:about=""><dc:format>image/svg+xml</dc:format><dc:type
         rdf:resource="http://purl.org/dc/dcmitype/StillImage" /><dc:title></dc:title></cc:Work></rdf:RDF></metadata><defs
   id="defs43" /><sodipodi:namedview
   pagecolor="#ffffff"
   bordercolor="#666666"
   borderopacity="1"
   objecttolerance="10"
   gridtolerance="10"
   guidetolerance="10"
   inkscape:pageopacity="0"
   inkscape:pageshadow="2"
   inkscape:window-width="1366"
   inkscape:window-height="743"
   id="namedview41"
   showgrid="false"
   inkscape:showpageshadow="false"
   inkscape:zoom="0.48830955"
   inkscape:cx="205.81207"
   inkscape:cy="241.64999"
   inkscape:window-x="0"
   inkscape:window-y="0"
   inkscape:window-maximized="1"
   inkscape:current-layer="Capa_1" />
<g
   id="g8"
   transform="matrix(1.0550847,0,0,1.0612471,0,2.6362959)">
	<g
   id="g6">
		<path
   d="M 424.3,57.75 H 59.1 C 26.5,57.75 0,84.25 0,116.85 v 249.6 c 0,32.6 26.5,59.1 59.1,59.1 h 365.1 c 32.6,0 59.1,-26.5 59.1,-59.1 v -249.5 c 0.1,-32.6 -26.4,-59.2 -59,-59.2 z m 32.1,308.7 c 0,17.7 -14.4,32.1 -32.1,32.1 H 59.1 c -17.7,0 -32.1,-14.4 -32.1,-32.1 v -249.5 c 0,-17.7 14.4,-32.1 32.1,-32.1 h 365.1 c 17.7,0 32.1,14.4 32.1,32.1 v 249.5 z"
   id="path2"
   inkscape:connector-curvature="0" />
		<path
   d="m 304.8,238.55 118.2,-106 c 5.5,-5 6,-13.5 1,-19.1 -5,-5.5 -13.5,-6 -19.1,-1 l -163,146.3 -31.8,-28.4 c -0.1,-0.1 -0.2,-0.2 -0.2,-0.3 -0.7,-0.7 -1.4,-1.3 -2.2,-1.9 L 78.3,112.35 c -5.6,-5 -14.1,-4.5 -19.1,1.1 -5,5.6 -4.5,14.1 1.1,19.1 l 119.6,106.9 -119.1,111.5 c -5.4,5.1 -5.7,13.6 -0.6,19.1 2.7,2.8 6.3,4.3 9.9,4.3 3.3,0 6.6,-1.2 9.2,-3.6 l 120.9,-113.1 32.8,29.3 c 2.6,2.3 5.8,3.4 9,3.4 3.2,0 6.5,-1.2 9,-3.5 l 33.7,-30.2 120.2,114.2 c 2.6,2.5 6,3.7 9.3,3.7 3.6,0 7.1,-1.4 9.8,-4.2 5.1,-5.4 4.9,-14 -0.5,-19.1 z"
   id="path4"
   inkscape:connector-curvature="0" />
	</g>
</g>
<g
   id="g10"
   transform="translate(0,28.700012)">
</g>
<g
   id="g12"
   transform="translate(0,28.700012)">
</g>
<g
   id="g14"
   transform="translate(0,28.700012)">
</g>
<g
   id="g16"
   transform="translate(0,28.700012)">
</g>
<g
   id="g18"
   transform="translate(0,28.700012)">
</g>
<g
   id="g20"
   transform="translate(0,28.700012)">
</g>
<g
   id="g22"
   transform="translate(0,28.700012)">
</g>
<g
   id="g24"
   transform="translate(0,28.700012)">
</g>
<g
   id="g26"
   transform="translate(0,28.700012)">
</g>
<g
   id="g28"
   transform="translate(0,28.700012)">
</g>
<g
   id="g30"
   transform="translate(0,28.700012)">
</g>
<g
   id="g32"
   transform="translate(0,28.700012)">
</g>
<g
   id="g34"
   transform="translate(0,28.700012)">
</g>
<g
   id="g36"
   transform="translate(0,28.700012)">
</g>
<g
   id="g38"
   transform="translate(0,28.700012)">
</g>
</svg>