<?xml version="1.0" encoding="UTF-8" standalone="no"?>
<!-- Generator: Adobe Illustrator 19.0.0, SVG Export Plug-In . SVG Version: 6.00 Build 0)  -->

<svg
   xmlns:dc="http://purl.org/dc/elements/1.1/"
   xmlns:cc="http://creativecommons.org/ns#"
   xmlns:rdf="http://www.w3.org/1999/02/22-rdf-syntax-ns#"
   xmlns:svg="http://www.w3.org/2000/svg"
   xmlns="http://www.w3.org/2000/svg"
   xmlns:sodipodi="http://sodipodi.sourceforge.net/DTD/sodipodi-0.dtd"
   xmlns:inkscape="http://www.inkscape.org/namespaces/inkscape"
   version="1.1"
   id="Capa_1"
   x="0px"
   y="0px"
   viewBox="0 0 512 512"
   xml:space="preserve"
   sodipodi:docname="mail-open.svg"
   width="512"
   height="512"
   inkscape:version="0.92.3 (2405546, 2018-03-11)"><metadata
   id="metadata47"><rdf:RDF><cc:Work
       rdf:about=""><dc:format>image/svg+xml</dc:format><dc:type
         rdf:resource="http://purl.org/dc/dcmitype/StillImage" /><dc:title></dc:title></cc:Work></rdf:RDF></metadata><defs
   id="defs45" /><sodipodi:namedview
   pagecolor="#ffffff"
   bordercolor="#666666"
   borderopacity="1"
   objecttolerance="10"
   gridtolerance="10"
   guidetolerance="10"
   inkscape:pageopacity="0"
   inkscape:pageshadow="2"
   inkscape:window-width="1366"
   inkscape:window-height="743"
   id="namedview43"
   showgrid="false"
   inkscape:showpageshadow="false"
   inkscape:zoom="0.46096091"
   inkscape:cx="218.02283"
   inkscape:cy="429.53751"
   inkscape:window-x="0"
   inkscape:window-y="0"
   inkscape:window-maximized="1"
   inkscape:current-layer="Capa_1" />
<g
   id="g10"
   transform="translate(0,0.02600098)">
	<g
   id="g8">
		<g
   id="g6">
			<path
   d="m 511.872,195.725 c -0.053,-0.588 -0.17,-1.169 -0.35,-1.732 -0.117,-0.503 -0.28,-0.994 -0.486,-1.468 -0.239,-0.463 -0.525,-0.901 -0.853,-1.306 -0.329,-0.481 -0.71,-0.924 -1.135,-1.323 -0.137,-0.119 -0.196,-0.282 -0.341,-0.401 L 426.642,125.76 V 59.704 c 0,-14.138 -11.462,-25.6 -25.6,-25.6 H 308.566 L 271.539,5.355 c -9.147,-7.134 -21.974,-7.134 -31.121,0 l -37.035,28.749 h -92.476 c -14.138,0 -25.6,11.461 -25.6,25.6 v 66.057 L 3.268,189.496 c -0.145,0.12 -0.205,0.282 -0.341,0.401 -0.425,0.398 -0.806,0.842 -1.135,1.323 -0.328,0.405 -0.614,0.842 -0.853,1.306 -0.207,0.473 -0.369,0.965 -0.486,1.468 -0.178,0.555 -0.295,1.127 -0.35,1.707 0,0.179 -0.102,0.333 -0.102,0.512 V 486.37 c 0.012,5.428 1.768,10.708 5.009,15.061 0.051,0.077 0.06,0.171 0.119,0.239 0.06,0.068 0.188,0.145 0.273,0.239 4.794,6.308 12.25,10.027 20.173,10.061 h 460.8 c 7.954,-0.024 15.441,-3.761 20.241,-10.103 0.068,-0.085 0.171,-0.111 0.23,-0.196 0.06,-0.085 0.068,-0.162 0.12,-0.239 3.241,-4.354 4.997,-9.634 5.009,-15.061 V 196.237 c -0.001,-0.179 -0.094,-0.333 -0.103,-0.512 z M 250.854,18.82 c 2.98,-2.368 7.2,-2.368 10.18,0 L 280.72,34.103 H 231.227 Z M 27.725,494.904 250.855,321.583 c 2.982,-2.364 7.199,-2.364 10.18,0 L 484.224,494.904 Z M 494.908,481.6 271.539,308.117 c -9.149,-7.128 -21.972,-7.128 -31.121,0 L 17.041,481.6 V 209.233 L 156.877,317.82 c 3.726,2.889 9.088,2.211 11.977,-1.515 2.889,-3.726 2.211,-9.088 -1.515,-11.977 L 25.276,194.018 85.308,147.366 v 65.937 c 0,4.713 3.821,8.533 8.533,8.533 4.713,0 8.533,-3.821 8.533,-8.533 v -153.6 c 0,-4.713 3.82,-8.533 8.533,-8.533 H 401.04 c 4.713,0 8.533,3.82 8.533,8.533 v 153.6 c 0,4.713 3.82,8.533 8.533,8.533 4.713,0 8.533,-3.821 8.533,-8.533 v -65.937 l 60.032,46.652 -142.31,110.507 c -2.448,1.855 -3.711,4.883 -3.305,7.928 0.406,3.045 2.417,5.637 5.266,6.786 2.849,1.149 6.096,0.679 8.501,-1.232 L 494.906,209.233 V 481.6 Z"
   id="path2"
   inkscape:connector-curvature="0" />
			<path
   d="m 358.374,204.77 v -34.133 c 0,-56.554 -45.846,-102.4 -102.4,-102.4 -56.554,0 -102.4,45.846 -102.4,102.4 0,56.554 45.846,102.4 102.4,102.4 4.713,0 8.533,-3.82 8.533,-8.533 0,-4.713 -3.82,-8.533 -8.533,-8.533 -47.128,0 -85.333,-38.205 -85.333,-85.333 0,-47.128 38.205,-85.333 85.333,-85.333 47.128,0 85.333,38.205 85.333,85.333 v 34.133 c 0,9.426 -7.641,17.067 -17.067,17.067 -9.426,0 -17.067,-7.641 -17.067,-17.067 v -34.133 c 0,-4.713 -3.82,-8.533 -8.533,-8.533 -4.713,0 -8.533,3.82 -8.533,8.533 0,18.851 -15.282,34.133 -34.133,34.133 -18.851,0 -34.133,-15.282 -34.133,-34.133 0,-18.851 15.282,-34.133 34.133,-34.133 4.713,0 8.533,-3.82 8.533,-8.533 0,-4.713 -3.82,-8.533 -8.533,-8.533 -22.915,-0.051 -43.074,15.13 -49.354,37.168 -6.28,22.038 2.847,45.565 22.347,57.601 19.5,12.036 44.622,9.65 61.507,-5.843 1.858,18.046 17.543,31.464 35.659,30.505 18.117,-0.96 32.298,-15.958 32.241,-34.1 z"
   id="path4"
   inkscape:connector-curvature="0" />
		</g>
	</g>
</g>
<g
   id="g12"
   transform="translate(0,0.02600098)">
</g>
<g
   id="g14"
   transform="translate(0,0.02600098)">
</g>
<g
   id="g16"
   transform="translate(0,0.02600098)">
</g>
<g
   id="g18"
   transform="translate(0,0.02600098)">
</g>
<g
   id="g20"
   transform="translate(0,0.02600098)">
</g>
<g
   id="g22"
   transform="translate(0,0.02600098)">
</g>
<g
   id="g24"
   transform="translate(0,0.02600098)">
</g>
<g
   id="g26"
   transform="translate(0,0.02600098)">
</g>
<g
   id="g28"
   transform="translate(0,0.02600098)">
</g>
<g
   id="g30"
   transform="translate(0,0.02600098)">
</g>
<g
   id="g32"
   transform="translate(0,0.02600098)">
</g>
<g
   id="g34"
   transform="translate(0,0.02600098)">
</g>
<g
   id="g36"
   transform="translate(0,0.02600098)">
</g>
<g
   id="g38"
   transform="translate(0,0.02600098)">
</g>
<g
   id="g40"
   transform="translate(0,0.02600098)">
</g>
</svg>