<?xml version="1.0" encoding="UTF-8" standalone="no"?>
<svg
   xmlns:dc="http://purl.org/dc/elements/1.1/"
   xmlns:cc="http://creativecommons.org/ns#"
   xmlns:rdf="http://www.w3.org/1999/02/22-rdf-syntax-ns#"
   xmlns:svg="http://www.w3.org/2000/svg"
   xmlns="http://www.w3.org/2000/svg"
   xmlns:sodipodi="http://sodipodi.sourceforge.net/DTD/sodipodi-0.dtd"
   xmlns:inkscape="http://www.inkscape.org/namespaces/inkscape"
   id="regular"
   enable-background="new 0 0 24 24"
   height="512"
   viewBox="0 0 24 24"
   width="512"
   version="1.1"
   sodipodi:docname="messenger-square.svg"
   inkscape:version="0.92.3 (2405546, 2018-03-11)">
  <metadata
     id="metadata11">
    <rdf:RDF>
      <cc:Work
         rdf:about="">
        <dc:format>image/svg+xml</dc:format>
        <dc:type
           rdf:resource="http://purl.org/dc/dcmitype/StillImage" />
        <dc:title></dc:title>
      </cc:Work>
    </rdf:RDF>
  </metadata>
  <defs
     id="defs9" />
  <sodipodi:namedview
     pagecolor="#ffffff"
     bordercolor="#666666"
     borderopacity="1"
     objecttolerance="10"
     gridtolerance="10"
     guidetolerance="10"
     inkscape:pageopacity="0"
     inkscape:pageshadow="2"
     inkscape:window-width="1366"
     inkscape:window-height="743"
     id="namedview7"
     showgrid="false"
     inkscape:showpageshadow="false"
     inkscape:zoom="0.65186406"
     inkscape:cx="49.321131"
     inkscape:cy="388.18214"
     inkscape:window-x="0"
     inkscape:window-y="0"
     inkscape:window-maximized="1"
     inkscape:current-layer="regular" />
  <rect
     style="opacity:1;fill:#0084ff;fill-opacity:1;fill-rule:nonzero;stroke:none;stroke-width:0.075;stroke-miterlimit:4;stroke-dasharray:none;stroke-opacity:1"
     id="rect885"
     width="24.16148"
     height="24.233387"
     x="0"
     y="-0.089570016" />
  <g
     id="g897"
     transform="translate(-1.7258199,2.2291841)">
    <path
       id="path2"
       d="m 8.0248175,17.147818 c 0,0.402533 0.4425508,0.654292 0.8006017,0.458636 l 2.9295718,-1.615042 c 2.709729,0.718108 5.622115,0.190046 7.836301,-1.427801 2.012961,-1.470578 3.168033,-3.654355 3.168033,-5.9910117 0,-4.2623633 -3.854775,-7.7294784 -8.593219,-7.7294784 -4.7384454,0 -8.5932207,3.4671151 -8.5932207,7.7294784 0,2.0449247 0.8686314,3.9530997 2.4519322,5.3991337 z M 6.6470378,8.5725993 c 0,-3.6824079 3.3728392,-6.6775624 7.5190682,-6.6775624 4.146228,0 7.519067,2.9951545 7.519067,6.6775624 0,2.0014457 -0.997529,3.8780627 -2.736225,5.1480767 -2.004368,1.463566 -4.663253,1.913084 -7.109457,1.200587 -0.13964,-0.04067 -0.290021,-0.02384 -0.416771,0.04558 l -2.3244661,1.281233 v -2.509871 c 0,-0.150775 -0.066598,-0.295238 -0.1818898,-0.394819 C 7.4526523,12.082492 6.6470378,10.388206 6.6470378,8.5725993 Z"
       inkscape:connector-curvature="0"
       style="fill:#ffffff;stroke-width:0.70865059" />
    <path
       inkscape:connector-curvature="0"
       id="path838"
       d="M 8.8622021,15.214573 V 13.790647 L 8.392798,13.324314 C 7.3728368,12.311024 6.7286794,11.157013 6.4524326,9.848144 6.32211,9.230669 6.3178518,8.0081892 6.443954,7.4140064 6.7158736,6.1327439 7.2559065,5.0927611 8.1387804,4.150146 9.0255926,3.2033267 10.074763,2.5246839 11.339584,2.0797463 12.30471,1.7402351 12.911804,1.6470387 14.1486,1.6485271 c 0.930489,0.00112 1.165546,0.018893 1.662534,0.1257152 1.565275,0.3364364 2.924582,1.0394378 3.981369,2.0590711 1.031349,0.9950895 1.626855,2.0134897 1.95511,3.3435209 0.180081,0.7296577 0.201205,1.951186 0.0462,2.6713097 -0.593764,2.758421 -2.84756,4.886512 -5.883668,5.555508 -1.160349,0.255679 -2.499903,0.246054 -3.690113,-0.02651 -0.319295,-0.07312 -0.640455,-0.132948 -0.713688,-0.132948 -0.113421,0 -0.841787,0.38042 -2.3137371,1.208448 l -0.3303998,0.185862 z m 6.5740059,-3.463164 c 0.103404,-0.04366 1.122765,-1.025017 2.51116,-2.4175358 2.317183,-2.3240625 2.337077,-2.3458636 2.335271,-2.5592039 -9.99e-4,-0.1183462 -0.03894,-0.2687442 -0.08433,-0.3342192 -0.09743,-0.1405753 -0.343572,-0.2787136 -0.496632,-0.2787136 -0.05974,0 -1.063826,0.4828046 -2.23131,1.0728994 L 15.347673,8.3075353 14.312009,7.2623948 C 13.189316,6.1294307 13.103534,6.0725892 12.76704,6.2386748 12.66918,6.2869757 11.547679,7.3652953 10.274817,8.6349393 8.1405816,10.763777 7.9606377,10.957163 7.9620178,11.120528 c 0.00304,0.359428 0.2244678,0.594496 0.5617502,0.596344 0.1709534,9.38e-4 0.4719448,-0.126412 1.4273269,-0.603903 0.6658801,-0.3328 1.5984861,-0.794133 2.0724591,-1.025184 l 0.86177,-0.4200928 1.014902,1.0229508 c 0.888224,0.89527 1.146732,1.116646 1.320567,1.130883 0.02274,0.0018 0.119677,-0.02969 0.215415,-0.07011 z"
       style="opacity:1;fill:#ffffff;fill-opacity:1;fill-rule:nonzero;stroke:none;stroke-width:0.08503095;stroke-miterlimit:4;stroke-dasharray:none;stroke-opacity:1" />
  </g>
</svg>
