<?xml version="1.0" encoding="UTF-8" standalone="no"?>
<!-- Generator: Adobe Illustrator 19.0.0, SVG Export Plug-In . SVG Version: 6.00 Build 0)  -->

<svg
   xmlns:dc="http://purl.org/dc/elements/1.1/"
   xmlns:cc="http://creativecommons.org/ns#"
   xmlns:rdf="http://www.w3.org/1999/02/22-rdf-syntax-ns#"
   xmlns:svg="http://www.w3.org/2000/svg"
   xmlns="http://www.w3.org/2000/svg"
   xmlns:sodipodi="http://sodipodi.sourceforge.net/DTD/sodipodi-0.dtd"
   xmlns:inkscape="http://www.inkscape.org/namespaces/inkscape"
   version="1.1"
   id="Capa_1"
   x="0px"
   y="0px"
   viewBox="0 0 512.00001 512.00001"
   xml:space="preserve"
   sodipodi:docname="paypal-square.svg"
   width="512"
   height="512"
   inkscape:version="0.92.3 (2405546, 2018-03-11)"><metadata
   id="metadata83"><rdf:RDF><cc:Work
       rdf:about=""><dc:format>image/svg+xml</dc:format><dc:type
         rdf:resource="http://purl.org/dc/dcmitype/StillImage" /><dc:title></dc:title></cc:Work></rdf:RDF></metadata><defs
   id="defs81" /><sodipodi:namedview
   pagecolor="#ffffff"
   bordercolor="#666666"
   borderopacity="1"
   objecttolerance="10"
   gridtolerance="10"
   guidetolerance="10"
   inkscape:pageopacity="0"
   inkscape:pageshadow="2"
   inkscape:window-width="1366"
   inkscape:window-height="743"
   id="namedview79"
   showgrid="false"
   inkscape:showpageshadow="false"
   inkscape:zoom="0.48281507"
   inkscape:cx="-18.368389"
   inkscape:cy="244.39999"
   inkscape:window-x="0"
   inkscape:window-y="0"
   inkscape:window-maximized="1"
   inkscape:current-layer="Capa_1" />














<rect
   style="opacity:1;fill:#cccccc;fill-opacity:1;fill-rule:nonzero;stroke:none;stroke-width:1.60000002;stroke-miterlimit:4;stroke-dasharray:none;stroke-opacity:1"
   id="rect915"
   width="513.65424"
   height="511.58304"
   x="2.0711863"
   y="2.4881482" /><g
   id="g913"
   transform="translate(20.711864,-18.640678)"><path
     inkscape:connector-curvature="0"
     id="path2"
     d="m 381.6,223.60001 c -12,0 -21.6,3.2 -29.6,4.8 l -2.4,18.4 c 4,-1.6 15.2,-4.8 24.8,-5.6 9.6,0 15.2,1.6 13.6,10.4 -28.8,0 -48,5.6 -52,24.8 -5.6,32 29.6,32.8 43.2,18.4 l -1.6,8.8 h 25.6 l 11.2,-52 c 4,-21.6 -15.2,-28.8 -32.8,-28 z m 1.6,53.6 c -1.6,6.4 -7.2,8.8 -13.6,9.6 -5.6,0 -10.4,-3.2 -7.2,-9.6 3.2,-4.8 10.4,-4.8 16,-4.8 1.6,0 4,0 6.4,0 -0.8,-0.8 -1.6,2.4 -1.6,4.8 z"
     style="fill:#32a6ce" /><path
     inkscape:connector-curvature="0"
     id="path4"
     d="m 349.6,246.80001 c 4,-1.6 15.2,-4.8 24.8,-5.6 9.6,0 15.2,1.6 13.6,10.4 -28.8,0 -48,5.6 -52,24.8 -5.6,32 29.6,32.8 43.2,18.4 l -1.6,8.8 h 25.6 l 11.2,-52 c 4.8,-21.6 -15.2,-27.2 -32.8,-27.2 m 1.6,52.8 c -1.6,6.4 -7.2,8.8 -13.6,9.6 -5.6,0 -10.4,-3.2 -7.2,-9.6 3.2,-4.8 10.4,-4.8 16,-4.8 1.6,0 4,0 6.4,0 -0.8,-0.8 -1.6,2.4 -1.6,4.8 z"
     style="fill:#1a80ad" /><polygon
     transform="translate(0,23.200012)"
     id="polygon6"
     points="415.2,280.4 440.8,280.4 462.4,176.4 436,176.4 "
     style="fill:#32a6ce" /><polygon
     transform="translate(0,23.200012)"
     id="polygon8"
     points="436,176.4 454.4,176.4 415.2,280.4 440.8,280.4 462.4,176.4 436,176.4 "
     style="fill:#1a80ad" /><path
     inkscape:connector-curvature="0"
     id="path10"
     d="m 316.8,199.60001 h -47.2 l -20.8,104 h 28 l 7.2,-32 h 20 c 19.2,0 35.2,-11.2 39.2,-31.2 4,-23.2 -12.8,-40.8 -26.4,-40.8 z m -0.8,36 c -1.6,7.2 -8.8,12 -16,12 h -12.8 l 5.6,-24 h 13.6 c 7.2,0 11.2,4.8 9.6,12 z"
     style="fill:#32a6ce" /><path
     inkscape:connector-curvature="0"
     id="path12"
     d="m 316.8,199.60001 h -32 l -36.8,104 h 28 l 7.2,-32 h 20 c 19.2,0 35.2,-11.2 39.2,-31.2 4.8,-23.2 -12,-40.8 -25.6,-40.8 z m -0.8,36 c -1.6,7.2 -8.8,12 -16,12 h -12.8 l 5.6,-24 h 13.6 c 7.2,0 11.2,4.8 9.6,12 z"
     style="fill:#1a80ad" /><path
     inkscape:connector-curvature="0"
     id="path14"
     d="m 132,223.60001 c -12,0 -21.6,3.2 -28.8,4.8 l -2.4,18.4 c 3.2,-1.6 15.2,-4.8 24.8,-5.6 9.6,0 15.2,1.6 13.6,10.4 -28,0 -47.2,5.6 -51.2,24.8 -5.6,32 28.8,32.8 42.4,18.4 l -1.6,8.8 h 25.6 l 11.2,-52 c 4,-21.6 -16,-28.8 -33.6,-28 z m 2.4,53.6 c -1.6,6.4 -7.2,8.8 -13.6,9.6 -5.6,0 -10.4,-3.2 -6.4,-9.6 3.2,-4.8 10.4,-4.8 15.2,-4.8 2.4,0 4,0 6.4,0 -0.8,-0.8 -1.6,2.4 -1.6,4.8 z"
     style="fill:#21789e" /><path
     inkscape:connector-curvature="0"
     id="path16"
     d="m 101.6,246.80001 c 3.2,-1.6 15.2,-4.8 24.8,-5.6 9.6,0 15.2,1.6 13.6,10.4 -28,0 -47.2,5.6 -51.2,24.8 -5.6,32 28.8,32.8 42.4,18.4 l -2.4,8.8 h 25.6 l 11.2,-52 c 4.8,-21.6 -15.2,-27.2 -32.8,-27.2 m 1.6,52.8 c -1.6,6.4 -7.2,8.8 -13.6,9.6 -5.6,0 -10.4,-3.2 -6.4,-9.6 3.2,-4.8 10.4,-4.8 15.2,-4.8 2.4,0 4,0 6.4,0 -0.8,-0.8 -1.6,2.4 -1.6,4.8 z"
     style="fill:#1a5b80" /><polygon
     transform="translate(0,23.200012)"
     id="polygon18"
     points="196.8,312.4 168,312.4 186.4,278.8 176,200.4 201.6,200.4 205.6,245.2 231.2,200.4 257.6,200.4 "
     style="fill:#21789e" /><polyline
     transform="translate(0,23.200012)"
     id="polyline20"
     points="201.6,202 205.6,246 231.2,200.4 257.6,200.4 196.8,312.4 168,312.4 186.4,279.6 "
     style="fill:#1a5b80" /><path
     inkscape:connector-curvature="0"
     id="path22"
     d="m 68.8,199.60001 h -48 l -20.8,104 h 28 l 7.2,-32 h 20 c 19.2,0 35.2,-11.2 39.2,-31.2 4.8,-23.2 -12,-40.8 -25.6,-40.8 z m -0.8,36 c -1.6,7.2 -8.8,12 -16,12 H 39.2 l 5.6,-24 h 13.6 c 7.2,0 11.2,4.8 9.6,12 z"
     style="fill:#21789e" /><path
     inkscape:connector-curvature="0"
     id="path24"
     d="M 68.8,199.60001 H 47.2 l -47.2,104 h 28 l 7.2,-32 h 20 c 19.2,0 35.2,-11.2 39.2,-31.2 4.8,-23.2 -12,-40.8 -25.6,-40.8 z m -0.8,36 c -1.6,7.2 -8.8,12 -16,12 H 39.2 l 5.6,-24 h 13.6 c 7.2,0 11.2,4.8 9.6,12 z"
     style="fill:#1a5b80" /><g
     transform="translate(0,23.200012)"
     id="g32">
	<path
   inkscape:connector-curvature="0"
   id="path26"
   d="m 127.2,228.4 c -21.6,1.6 -36,8 -39.2,24 -5.6,32 28.8,32.8 42.4,18.4 l -1.6,9.6 h 25.6 l 4,-19.2 z m 7.2,25.6 c -1.6,6.4 -7.2,8.8 -13.6,9.6 -5.6,0 -10.4,-3.2 -6.4,-9.6 3.2,-4.8 10.4,-4.8 15.2,-4.8 2.4,0 4,0 6.4,0 -0.8,-0.8 -1.6,2.4 -1.6,4.8 z"
   style="fill:#06435e" />
	<polygon
   id="polygon28"
   points="207.2,244.4 205.6,246.8 222.4,262.8 257.6,200.4 231.2,200.4 "
   style="fill:#06435e" />
	<polygon
   id="polygon30"
   points="2.4,280.4 28,280.4 35.2,248.4 "
   style="fill:#06435e" />
</g><g
     transform="translate(0,23.200012)"
     id="g40">
	<polygon
   id="polygon34"
   points="283.2,246.8 283.2,247.6 250.4,280.4 276,280.4 "
   style="fill:#2273aa" />
	<path
   inkscape:connector-curvature="0"
   id="path36"
   d="m 376,228.4 c -21.6,1.6 -36,8 -39.2,24 -5.6,32 29.6,32.8 43.2,18.4 l -2.4,9.6 h 25.6 l 4,-19.2 z m 7.2,25.6 c -1.6,6.4 -7.2,8.8 -13.6,9.6 -5.6,0 -10.4,-3.2 -7.2,-9.6 3.2,-4.8 10.4,-4.8 16,-4.8 1.6,0 4,0 6.4,0 -0.8,-0.8 -1.6,2.4 -1.6,4.8 z"
   style="fill:#2273aa" />
	<polygon
   id="polygon38"
   points="415.2,280.4 440.8,280.4 448,248.4 433.6,233.2 "
   style="fill:#2273aa" />
</g><g
     transform="translate(0,23.200012)"
     id="g46">
	<path
   inkscape:connector-curvature="0"
   id="path42"
   d="M 468,193.2 V 182 h -4 v -1.6 h 10.4 v 1.6 h -4 v 11.2 z"
   style="fill:#32a6ce" />
	<path
   inkscape:connector-curvature="0"
   id="path44"
   d="m 476,193.2 v -12.8 h 2.4 l 3.2,8.8 c 0,0.8 0.8,1.6 0.8,1.6 0,-0.8 0,-0.8 0.8,-2.4 l 3.2,-8.8 h 2.4 v 12.8 h -1.6 v -11.2 l -4,11.2 h -2.4 l -4,-11.2 v 11.2 H 476 Z"
   style="fill:#32a6ce" />
</g></g>
<g
   id="g48"
   transform="translate(0,23.200012)">
</g>
<g
   id="g50"
   transform="translate(0,23.200012)">
</g>
<g
   id="g52"
   transform="translate(0,23.200012)">
</g>
<g
   id="g54"
   transform="translate(0,23.200012)">
</g>
<g
   id="g56"
   transform="translate(0,23.200012)">
</g>
<g
   id="g58"
   transform="translate(0,23.200012)">
</g>
<g
   id="g60"
   transform="translate(0,23.200012)">
</g>
<g
   id="g62"
   transform="translate(0,23.200012)">
</g>
<g
   id="g64"
   transform="translate(0,23.200012)">
</g>
<g
   id="g66"
   transform="translate(0,23.200012)">
</g>
<g
   id="g68"
   transform="translate(0,23.200012)">
</g>
<g
   id="g70"
   transform="translate(0,23.200012)">
</g>
<g
   id="g72"
   transform="translate(0,23.200012)">
</g>
<g
   id="g74"
   transform="translate(0,23.200012)">
</g>
<g
   id="g76"
   transform="translate(0,23.200012)">
</g>
</svg>