<?xml version="1.0" encoding="UTF-8" standalone="no"?>
<svg
   xmlns:dc="http://purl.org/dc/elements/1.1/"
   xmlns:cc="http://creativecommons.org/ns#"
   xmlns:rdf="http://www.w3.org/1999/02/22-rdf-syntax-ns#"
   xmlns:svg="http://www.w3.org/2000/svg"
   xmlns="http://www.w3.org/2000/svg"
   xmlns:sodipodi="http://sodipodi.sourceforge.net/DTD/sodipodi-0.dtd"
   xmlns:inkscape="http://www.inkscape.org/namespaces/inkscape"
   viewBox="-61 0 512 512"
   version="1.1"
   id="svg6"
   sodipodi:docname="periscope.svg"
   inkscape:version="0.92.3 (2405546, 2018-03-11)">
  <metadata
     id="metadata12">
    <rdf:RDF>
      <cc:Work
         rdf:about="">
        <dc:format>image/svg+xml</dc:format>
        <dc:type
           rdf:resource="http://purl.org/dc/dcmitype/StillImage" />
        <dc:title></dc:title>
      </cc:Work>
    </rdf:RDF>
  </metadata>
  <defs
     id="defs10" />
  <sodipodi:namedview
     pagecolor="#ffffff"
     bordercolor="#666666"
     borderopacity="1"
     objecttolerance="10"
     gridtolerance="10"
     guidetolerance="10"
     inkscape:pageopacity="0"
     inkscape:pageshadow="2"
     inkscape:window-width="1366"
     inkscape:window-height="743"
     id="namedview8"
     showgrid="false"
     inkscape:showpageshadow="false"
     inkscape:zoom="0.4609375"
     inkscape:cx="-145.35593"
     inkscape:cy="256"
     inkscape:window-x="0"
     inkscape:window-y="0"
     inkscape:window-maximized="1"
     inkscape:current-layer="svg6" />
  <path
     d="m195 0c-107.523438 0-195 87.476562-195 195 0 80.855469 88.414062 217.402344 143.011719 278.761719 29.980469 33.695312 43.105469 38.238281 51.988281 38.238281s22.007812-4.542969 51.988281-38.238281c54.53125-61.285157 143.011719-197.882813 143.011719-278.761719 0-107.523438-87.476562-195-195-195zm34.382812 448.320312c-20.34375 23.671876-30.71875 30.980469-34.382812 33.078126-3.664062-2.097657-14.039062-9.40625-34.382812-33.078126-52.902344-61.5625-130.617188-185.796874-130.617188-253.320312 0-90.980469 74.019531-165 165-165s165 74.019531 165 165c0 67.066406-76.847656 190.75-130.617188 253.320312zm0 0"
     id="path2" />
  <path
     d="m195 60c-74.4375 0-135 60.5625-135 135s60.5625 135 135 135 135-60.5625 135-135-60.5625-135-135-135zm-54.777344 45.453125c14.175782 2.460937 24.777344 14.738281 24.777344 29.546875 0 16.542969-13.457031 30-30 30-14.804688 0-27.085938-10.601562-29.546875-24.777344 8.6875-14.144531 20.625-26.082031 34.769531-34.769531zm54.777344 194.546875c-57.898438 0-105-47.101562-105-105 0-6.292969.558594-12.457031 1.625-18.449219 10.921875 11.398438 26.308594 18.449219 43.375 18.449219 33.085938 0 60-26.914062 60-60 0-17.066406-7.050781-32.453125-18.449219-43.375 5.992188-1.066406 12.15625-1.625 18.449219-1.625 57.898438 0 105 47.101562 105 105s-47.101562 105-105 105zm0 0"
     id="path4" />
</svg>
