<?xml version="1.0" encoding="UTF-8" standalone="no"?>
<svg
   xmlns:dc="http://purl.org/dc/elements/1.1/"
   xmlns:cc="http://creativecommons.org/ns#"
   xmlns:rdf="http://www.w3.org/1999/02/22-rdf-syntax-ns#"
   xmlns:svg="http://www.w3.org/2000/svg"
   xmlns="http://www.w3.org/2000/svg"
   xmlns:sodipodi="http://sodipodi.sourceforge.net/DTD/sodipodi-0.dtd"
   xmlns:inkscape="http://www.inkscape.org/namespaces/inkscape"
   viewBox="-61 0 512 512"
   version="1.1"
   id="svg6"
   sodipodi:docname="periscope-square.svg"
   inkscape:version="0.92.3 (2405546, 2018-03-11)">
  <metadata
     id="metadata12">
    <rdf:RDF>
      <cc:Work
         rdf:about="">
        <dc:format>image/svg+xml</dc:format>
        <dc:type
           rdf:resource="http://purl.org/dc/dcmitype/StillImage" />
        <dc:title />
      </cc:Work>
    </rdf:RDF>
  </metadata>
  <defs
     id="defs10" />
  <sodipodi:namedview
     pagecolor="#ffffff"
     bordercolor="#666666"
     borderopacity="1"
     objecttolerance="10"
     gridtolerance="10"
     guidetolerance="10"
     inkscape:pageopacity="0"
     inkscape:pageshadow="2"
     inkscape:window-width="1366"
     inkscape:window-height="743"
     id="namedview8"
     showgrid="false"
     inkscape:showpageshadow="false"
     inkscape:zoom="0.4609375"
     inkscape:cx="441.28506"
     inkscape:cy="158.17033"
     inkscape:window-x="0"
     inkscape:window-y="0"
     inkscape:window-maximized="1"
     inkscape:current-layer="svg6"
     showguides="true"
     inkscape:guide-bbox="true">
    <sodipodi:guide
       position="239.72881,256"
       orientation="0,1"
       id="guide825"
       inkscape:locked="false" />
    <sodipodi:guide
       position="257.08475,321.08475"
       orientation="1,0"
       id="guide827"
       inkscape:locked="false" />
  </sodipodi:namedview>
  <rect
     style="opacity:1;fill:#3aa4c6;fill-opacity:1;fill-rule:nonzero;stroke:none;stroke-width:1.60000002;stroke-miterlimit:4;stroke-dasharray:none;stroke-opacity:1"
     id="rect920"
     width="510.91525"
     height="513.08472"
     x="-59.915253"
     y="-2.7014971e-07" />
  <ellipse
     style="opacity:1;fill:#d75444;fill-opacity:1;fill-rule:nonzero;stroke:none;stroke-width:1.77357018;stroke-miterlimit:4;stroke-dasharray:none;stroke-opacity:1"
     id="path819"
     cx="202.8587"
     cy="220.91171"
     rx="90.509666"
     ry="90.126152" />
  <g
     transform="matrix(20.45619,0,0,20.37046,-130.78384,1.459308)"
     id="Official_copy_2">
    <g
       id="g7">
      <path
         style="clip-rule:evenodd;fill:#ffffff;fill-rule:evenodd"
         inkscape:connector-curvature="0"
         d="m 16.091,4.263 c -3.647,0 -6.53,3.058 -6.53,6.748 0,3.855 5.07,9.604 6.53,9.604 1.279,0 6.349,-5.749 6.349,-9.604 -0.001,-3.69 -2.884,-6.748 -6.349,-6.748 z m 0.021,10.255 c -2.277,0 -4.032,-1.737 -4.032,-3.769 0,-0.941 0.319,-1.781 0.841,-2.454 0.007,0.836 0.693,1.511 1.539,1.511 0.85,0 1.54,-0.683 1.54,-1.524 0,-0.619 -0.374,-1.149 -0.909,-1.388 0.326,-0.081 0.664,-0.137 1.021,-0.137 2.053,0 3.808,1.737 3.808,3.991 0,2.033 -1.755,3.77 -3.808,3.77 z"
         id="path5" />
    </g>
  </g>
</svg>
