<?xml version="1.0" encoding="UTF-8" standalone="no"?>
<svg
   xmlns:dc="http://purl.org/dc/elements/1.1/"
   xmlns:cc="http://creativecommons.org/ns#"
   xmlns:rdf="http://www.w3.org/1999/02/22-rdf-syntax-ns#"
   xmlns:svg="http://www.w3.org/2000/svg"
   xmlns="http://www.w3.org/2000/svg"
   xmlns:sodipodi="http://sodipodi.sourceforge.net/DTD/sodipodi-0.dtd"
   xmlns:inkscape="http://www.inkscape.org/namespaces/inkscape"
   id="Layer_1"
   data-name="Layer 1"
   viewBox="0 0 512 512"
   version="1.1"
   sodipodi:docname="pinterest-square.svg"
   inkscape:version="0.92.3 (2405546, 2018-03-11)">
  <metadata
     id="metadata12">
    <rdf:RDF>
      <cc:Work
         rdf:about="">
        <dc:format>image/svg+xml</dc:format>
        <dc:type
           rdf:resource="http://purl.org/dc/dcmitype/StillImage" />
        <dc:title>pinterest-square-flat</dc:title>
      </cc:Work>
    </rdf:RDF>
  </metadata>
  <defs
     id="defs10" />
  <sodipodi:namedview
     pagecolor="#ffffff"
     bordercolor="#666666"
     borderopacity="1"
     objecttolerance="10"
     gridtolerance="10"
     guidetolerance="10"
     inkscape:pageopacity="0"
     inkscape:pageshadow="2"
     inkscape:window-width="800"
     inkscape:window-height="480"
     id="namedview8"
     showgrid="false"
     inkscape:showpageshadow="false"
     inkscape:zoom="0.4609375"
     inkscape:cx="28.20339"
     inkscape:cy="256"
     inkscape:window-x="0"
     inkscape:window-y="0"
     inkscape:window-maximized="0"
     inkscape:current-layer="Pinterest" />
  <title
     id="title2">pinterest-square-flat</title>
  <g
     id="Pinterest">
    <rect
       id="back"
       width="512"
       height="512"
       fill="#bd081c" />
    <path
       id="pinterest-2"
       data-name="pinterest"
       d="M367,207c0,64.62-35.9,112.88-88.86,112.88-17.78,0-34.5-9.62-40.24-20.54,0,0-9.56,38-11.58,45.28-7.12,25.86-28.1,51.76-29.72,53.9a2.2,2.2,0,0,1-3.92-.94c-.46-3.3-5.8-36,.5-62.6,3.16-13.36,21.18-89.74,21.18-89.74s-5.26-10.52-5.26-26.06c0-24.41,14.16-42.63,31.76-42.63,15,0,22.22,11.24,22.22,24.72,0,15.07-9.58,37.59-14.54,58.45-4.14,17.48,8.76,31.72,26,31.72,31.2,0,52.2-40.08,52.2-87.56,0-36.09-24.3-63.12-68.52-63.12-49.94,0-81.08,37.26-81.08,78.88,0,14.34,4.24,24.47,10.86,32.29,3,3.6,3.48,5.05,2.38,9.19-.82,3-2.6,10.32-3.38,13.22-1.08,4.16-4.46,5.66-8.24,4.12-23-9.4-33.72-34.6-33.72-62.92,0-46.79,39.46-102.88,117.7-102.88C325.62,112.64,367,158.13,367,207Z"
       fill="#fff" />
  </g>
</svg>
