<?xml version="1.0" encoding="UTF-8" standalone="no"?>
<svg
   xmlns:dc="http://purl.org/dc/elements/1.1/"
   xmlns:cc="http://creativecommons.org/ns#"
   xmlns:rdf="http://www.w3.org/1999/02/22-rdf-syntax-ns#"
   xmlns:svg="http://www.w3.org/2000/svg"
   xmlns="http://www.w3.org/2000/svg"
   xmlns:sodipodi="http://sodipodi.sourceforge.net/DTD/sodipodi-0.dtd"
   xmlns:inkscape="http://www.inkscape.org/namespaces/inkscape"
   viewBox="0 0 512 512"
   version="1.1"
   id="svg33"
   sodipodi:docname="qq-square.svg"
   width="512"
   height="512"
   inkscape:version="0.92.3 (2405546, 2018-03-11)">
  <metadata
     id="metadata37">
    <rdf:RDF>
      <cc:Work
         rdf:about="">
        <dc:format>image/svg+xml</dc:format>
        <dc:type
           rdf:resource="http://purl.org/dc/dcmitype/StillImage" />
        <dc:title></dc:title>
      </cc:Work>
    </rdf:RDF>
  </metadata>
  <sodipodi:namedview
     pagecolor="#ffffff"
     bordercolor="#666666"
     borderopacity="1"
     objecttolerance="10"
     gridtolerance="10"
     guidetolerance="10"
     inkscape:pageopacity="0"
     inkscape:pageshadow="2"
     inkscape:window-width="1366"
     inkscape:window-height="743"
     id="namedview35"
     showgrid="false"
     inkscape:showpageshadow="false"
     inkscape:zoom="0.65186406"
     inkscape:cx="22.577112"
     inkscape:cy="388.88177"
     inkscape:window-x="0"
     inkscape:window-y="0"
     inkscape:window-maximized="1"
     inkscape:current-layer="_10-qq"
     showguides="true"
     inkscape:guide-bbox="true">
    <sodipodi:guide
       position="257.72244,481.69552"
       orientation="1,0"
       id="guide898"
       inkscape:locked="false" />
    <sodipodi:guide
       position="-73.634984,254.65432"
       orientation="0,1"
       id="guide900"
       inkscape:locked="false" />
  </sodipodi:namedview>
  <defs
     id="defs4">
    <style
       id="style2">.cls-1{fill:#fff;}.cls-2{fill:#808285;}.cls-3{fill:#ffae30;}.cls-4{fill:#231f20;}.cls-5{fill:#f22128;}</style>
    <filter
       style="color-interpolation-filters:sRGB;"
       inkscape:label="Drop Shadow"
       id="filter896">
      <feFlood
         flood-opacity="0.498039"
         flood-color="rgb(0,0,0)"
         result="flood"
         id="feFlood886" />
      <feComposite
         in="flood"
         in2="SourceGraphic"
         operator="in"
         result="composite1"
         id="feComposite888" />
      <feGaussianBlur
         in="composite1"
         stdDeviation="0.5"
         result="blur"
         id="feGaussianBlur890" />
      <feOffset
         dx="1"
         dy="1"
         result="offset"
         id="feOffset892" />
      <feComposite
         in="SourceGraphic"
         in2="offset"
         operator="over"
         result="composite2"
         id="feComposite894" />
    </filter>
  </defs>
  <g
     data-name="10-qq"
     id="_10-qq"
     transform="matrix(7.9751879,0,0,7.9991577,3.119495e-5,0.05387844)">
    <rect
       style="opacity:1;fill:#3e7bd1;fill-opacity:1;fill-rule:nonzero;stroke:none;stroke-width:0.20032142;stroke-miterlimit:4;stroke-dasharray:none;stroke-opacity:1"
       id="rect921"
       width="64.438713"
       height="64.245613"
       x="-3.9115002e-06"
       y="-0.24561392" />
    <g
       id="g882"
       transform="matrix(0.84224019,0,0,0.86431235,5.2362776,4.4726658)"
       style="filter:url(#filter896)">
      <path
         style="fill:#ffae30"
         inkscape:connector-curvature="0"
         id="path12"
         d="m 22,53.91 c 0,0 -8.15,2.09 -6.4,4.09 1.33,1.53 15.93,0.67 15.93,-0.33 0,-1 -2.8,-4.56 -9.53,-3.76 z"
         class="cls-3" />
      <path
         style="fill:#ffae30"
         inkscape:connector-curvature="0"
         id="path14"
         d="m 42,53.91 c 0,0 8.15,2.09 6.4,4.09 -1.33,1.53 -15.93,0.67 -15.93,-0.33 0,-1 2.8,-4.56 9.53,-3.76 z"
         class="cls-3" />
      <path
         style="fill:#231f20"
         inkscape:connector-curvature="0"
         id="path16"
         d="m 32,58.31 c 17.07,0 17.35,-14.75 17.35,-14.75 a 16.27,16.27 0 0 0 4.32,5 0.39,0.39 0 0 0 0.62,-0.2 C 56,43 48.77,27.7 48.77,27.7 48.77,3.74 32,5.14 32,5.14 c 0,0 -16.77,-1.4 -16.77,22.56 0,0 -7.27,15.32 -5.52,20.65 a 0.39,0.39 0 0 0 0.62,0.2 16.27,16.27 0 0 0 4.32,-5 c 0,0 2.42,14.76 17.35,14.76 z"
         class="cls-4" />
      <ellipse
         style="fill:#ffffff"
         id="ellipse18"
         transform="rotate(-3.34,27.513794,15.906619)"
         ry="4.4000001"
         rx="2.8"
         cy="15.94"
         cx="27.5"
         class="cls-1" />
      <ellipse
         style="fill:#ffffff"
         id="ellipse20"
         transform="rotate(-86.66,36.500085,15.940631)"
         ry="2.8"
         rx="4.4000001"
         cy="15.94"
         cx="36.5"
         class="cls-1" />
      <path
         style="fill:#ffae30"
         inkscape:connector-curvature="0"
         id="path22"
         d="m 32,27 c 4,0 8.36,-2.19 9.75,-2.95 a 0.4,0.4 0 0 0 0.06,-0.66 C 40.99,22.73 38.58,21.5 32,21.5 c -6.58,0 -9,1.23 -9.81,1.89 a 0.4,0.4 0 0 0 0.06,0.66 C 23.64,24.85 28,27 32,27 Z"
         class="cls-3" />
      <ellipse
         id="ellipse24"
         ry="1.7"
         rx="1.03"
         cy="16.34"
         cx="28.700001" />
      <path
         inkscape:connector-curvature="0"
         id="path26"
         d="m 34.89,17.49 a 0.61,0.61 0 0 1 -0.31,-0.09 0.6,0.6 0 0 1 -0.2,-0.82 3.15,3.15 0 0 1 2,-1.44 2.33,2.33 0 0 1 2,0.77 0.61,0.61 0 0 1 0,0.85 0.6,0.6 0 0 1 -0.85,0 1.2,1.2 0 0 0 -1,-0.44 2,2 0 0 0 -1.15,0.88 0.62,0.62 0 0 1 -0.49,0.29 z" />
      <path
         style="fill:#ffffff"
         inkscape:connector-curvature="0"
         id="path28"
         d="m 32,56.44 c 16.87,0 12.43,-23.3 12.43,-23.3 H 19.57 c 0,0 -4.44,23.3 12.43,23.3 z"
         class="cls-1" />
      <path
         style="fill:#f22128"
         inkscape:connector-curvature="0"
         id="path30"
         d="m 21.62,43.24 v -7.76 c -3.58,-0.64 -6.8,-1.42 -8.87,-2 1.3,-3.32 2.48,-5.81 2.48,-5.81 0,0 0,-0.13 0,-0.2 2.78,1 8,2.24 16.76,2.24 8.76,0 14,-1.25 16.76,-2.24 0,0.07 0,0.13 0,0.2 0,0.07 1.18,2.49 2.48,5.81 -4,1.06 -12.38,3 -19.25,3 -1,0 -2,0 -3,-0.11 v 7.24 c 0,0 -5.58,0.39 -7.36,-0.37 z"
         class="cls-5" />
    </g>
  </g>
</svg>
