<?xml version="1.0" encoding="UTF-8" standalone="no"?>
<svg
   xmlns:dc="http://purl.org/dc/elements/1.1/"
   xmlns:cc="http://creativecommons.org/ns#"
   xmlns:rdf="http://www.w3.org/1999/02/22-rdf-syntax-ns#"
   xmlns:svg="http://www.w3.org/2000/svg"
   xmlns="http://www.w3.org/2000/svg"
   xmlns:sodipodi="http://sodipodi.sourceforge.net/DTD/sodipodi-0.dtd"
   xmlns:inkscape="http://www.inkscape.org/namespaces/inkscape"
   viewBox="0 0 51.2 51.2"
   width="512"
   height="512"
   version="1.1"
   id="svg4"
   sodipodi:docname="qq.svg"
   style="fill:#000000"
   inkscape:version="0.92.3 (2405546, 2018-03-11)">
  <metadata
     id="metadata10">
    <rdf:RDF>
      <cc:Work
         rdf:about="">
        <dc:format>image/svg+xml</dc:format>
        <dc:type
           rdf:resource="http://purl.org/dc/dcmitype/StillImage" />
        <dc:title></dc:title>
      </cc:Work>
    </rdf:RDF>
  </metadata>
  <defs
     id="defs8" />
  <sodipodi:namedview
     pagecolor="#ffffff"
     bordercolor="#666666"
     borderopacity="1"
     objecttolerance="10"
     gridtolerance="10"
     guidetolerance="10"
     inkscape:pageopacity="0"
     inkscape:pageshadow="2"
     inkscape:window-width="800"
     inkscape:window-height="480"
     id="namedview6"
     showgrid="false"
     inkscape:showpageshadow="false"
     inkscape:zoom="0.472"
     inkscape:cx="382.41525"
     inkscape:cy="250"
     inkscape:window-x="0"
     inkscape:window-y="0"
     inkscape:window-maximized="0"
     inkscape:current-layer="svg4" />
  <path
     d="m 26.483051,0.23389831 c -8.970852,0 -17.1864408,6.61142219 -17.1864408,14.81124869 v 6.220557 c -0.381828,0.09564 -0.7426755,0.253646 -1.0573689,0.486501 -0.6923247,0.507291 -1.0909362,1.259913 -1.0909362,2.070747 v 2.253705 c 0,0.15385 0.016784,0.303543 0.04196,0.453235 C 5.9230998,28.762806 5,31.028986 5,32.916775 c 0,5.434672 0.9189042,5.63842 1.0573689,5.63842 0.012588,0 0.016784,0 0.016784,0 0.7594592,0 2.714753,-1.59672 3.8518445,-2.943954 0.8056136,2.183017 1.9469006,4.183077 3.3483336,5.921173 -1.951097,0.794203 -3.222457,2.02085 -3.222457,3.380557 0,2.328551 3.667224,4.287029 8.219784,4.287029 2.261595,0 4.292415,-0.486501 5.777766,-1.259913 0.793026,0.120587 1.607033,0.195433 2.433627,0.195433 0.826594,0 1.632208,-0.07484 2.421039,-0.195433 1.485352,0.773412 3.528759,1.259913 5.790353,1.259913 4.552562,0 8.219785,-1.958478 8.219785,-4.287029 0,-1.359707 -1.262968,-2.594671 -3.222458,-3.384715 1.40563,-1.738097 2.542721,-3.738156 3.344139,-5.917015 1.137092,1.347234 3.096581,2.943954 3.85604,2.943954 0,0 0.0042,0 0.01679,0 0.138459,0 1.057364,-0.203748 1.057364,-5.63842 0,-2.544773 -0.583232,-4.336926 -2.160893,-6.698742 0.0042,-0.0499 0.01259,-0.09564 0.01259,-0.141376 v -2.253705 c 0,-0.810834 -0.398612,-1.563456 -1.090937,-2.070747 -0.314693,-0.237013 -0.675541,-0.390864 -1.057368,-0.49066 v -6.12492 c 0,-8.2039841 -8.215589,-14.90272669 -17.186441,-14.90272669 z m 0,2.12896089 c 8.009989,0 15.038135,5.9669123 15.038135,12.7737658 v 6.233032 c -2.148305,0.365915 -5.425309,0.748463 -10.217037,0.906471 3.432254,-0.424128 7.43515,-1.434553 7.43515,-3.813002 0,-1.04369 0.0042,-2.266178 -4.271434,-2.898214 1.040585,-1.160117 1.682559,-2.815051 1.682559,-4.686209 0,-3.5801469 -2.3581,-6.3868828 -5.370763,-6.3868828 -1.774869,0 -3.323159,0.9730022 -4.29661,2.5115086 C 25.5096,5.4648224 23.96131,4.4918202 22.186441,4.4918202 c -3.012662,0 -5.370763,2.8067359 -5.370763,6.3868828 0,1.871158 0.641974,3.526092 1.682559,4.686209 -4.27563,0.632036 -4.271434,1.854524 -4.271434,2.898214 0,2.378449 4.002896,3.384716 7.435149,3.813002 -4.791727,-0.158008 -8.072927,-0.540556 -10.217037,-0.906471 v -6.32451 c 0,-6.7569573 7.028147,-12.6822878 15.038136,-12.6822878 z m -4.29661,4.2579219 c 1.779065,0 3.222457,1.9044227 3.222457,4.2579219 0,2.3535 -1.443392,4.257922 -3.222457,4.257922 -1.779065,0 -3.222458,-1.904422 -3.222458,-4.257922 0,-2.3534992 1.443393,-4.2579219 3.222458,-4.2579219 z m 8.59322,0 c 1.779065,0 3.222458,1.9044227 3.222458,4.2579219 0,2.3535 -1.443393,4.257922 -3.222458,4.257922 -1.779065,0 -3.222458,-1.904422 -3.222458,-4.257922 0,-2.3534992 1.443393,-4.2579219 3.222458,-4.2579219 z m -8.59322,4.2579219 c -0.591623,0 -1.074153,0.478185 -1.074153,1.06448 0,0.586296 0.48253,1.064481 1.074153,1.064481 0.591622,0 1.074152,-0.478185 1.074152,-1.064481 0,-0.586295 -0.48253,-1.06448 -1.074152,-1.06448 z m 8.59322,0 c -0.591623,0 -1.074153,0.478185 -1.074153,1.06448 h 2.148306 c 0,-0.586295 -0.48253,-1.06448 -1.074153,-1.06448 z m -4.29661,6.386883 c 5.559578,0 10.107943,0.557189 10.107943,1.19754 0,0.640352 -4.548365,1.995901 -10.107943,1.995901 -5.559578,0 -10.107943,-1.355549 -10.107943,-1.995901 0,-0.640351 4.548365,-1.19754 10.107943,-1.19754 z m -16.422785,6.025125 c 0.04196,0 0.08392,0.0042 0.125877,0.01248 2.744124,0.536398 7.804389,1.17675 16.296908,1.17675 8.492518,0 13.548588,-0.640352 16.301104,-1.17675 0.04196,-0.0083 0.08392,-0.01248 0.121682,-0.01248 0.125876,0 0.247558,0.04158 0.348259,0.116428 0.142662,0.103957 0.218188,0.249488 0.218188,0.415813 v 2.253705 c 0,0.241171 -0.172032,0.453235 -0.427983,0.515608 -2.542721,0.59877 -7.481304,1.318126 -16.548662,1.318126 -8.249157,0 -13.074451,-0.590454 -15.801792,-1.151801 -0.55386,-0.137218 -1.2126169,-0.253646 -1.2042245,-1.018741 v -1.916897 c 0,-0.166325 0.079721,-0.311859 0.2181872,-0.415813 0.1048975,-0.07484 0.2265785,-0.116428 0.3524563,-0.116428 z m 34.469386,4.919065 c 0.952472,1.609195 1.288145,2.894056 1.288145,4.706999 0,1.014583 -0.03357,1.800469 -0.08392,2.407556 -0.356651,-0.328492 -0.725891,-0.694407 -1.048976,-1.076955 l -2.391668,-2.831684 -1.275557,3.467877 c -0.713303,1.946003 -1.724518,3.733998 -3.000074,5.314087 l -1.800045,2.224598 2.668598,1.076954 c 1.430804,0.582138 1.879767,1.239122 1.879767,1.413763 0,0.540557 -2.156696,2.158068 -6.07148,2.158068 -1.808435,0 -3.553933,-0.370073 -4.787531,-1.014583 l -0.62519,-0.328492 -0.700717,0.108112 c -0.751068,0.116427 -1.435,0.170483 -2.097954,0.170483 -0.66715,0 -1.355279,-0.05406 -2.10215,-0.170483 l -0.700717,-0.108112 -0.633582,0.328492 c -1.233597,0.64451 -2.979095,1.014583 -4.774944,1.014583 -3.914782,0 -6.071479,-1.617511 -6.071479,-2.158068 0,-0.162166 0.465746,-0.831625 1.888159,-1.405446 l 2.660205,-1.076955 -1.795848,-2.228756 c -0.99443,-1.226648 -1.825221,-2.582197 -2.483978,-4.0417 0.344065,0.270278 0.751068,0.449078 1.191638,0.528083 l 1.980469,0.340965 0.60421,0.769255 c 3.218262,4.091597 6.566597,6.079181 10.238017,6.079181 6.734433,0 11.82407,-6.914966 13.880065,-13.767559 l 0.268538,-0.902313 c 1.195833,-0.1788 2.152501,-0.365915 2.907764,-0.548873 0.36924,-0.08317 0.700717,-0.24117 0.990234,-0.449077 z m -35.8624275,0.08732 c 0.062938,0.174642 1.0489765,0.432445 1.0489765,0.432445 l 0.541272,0.112271 c 0.671345,0.141377 1.393041,0.26612 2.160893,0.382548 l -0.9231,4.307819 -0.0084,0.03327 -0.0084,0.03743 c 0,0.0042 0,0.0042 0,0.0083 l -0.805614,-2.195491 -2.3916673,2.831684 c -0.3231126,0.382558 -0.6923525,0.748473 -1.0490044,1.076965 -0.050351,-0.607087 -0.083918,-1.392973 -0.083918,-2.407556 0,-0.814993 0.2769305,-2.262021 1.5189194,-4.619679 z m 5.8868585,1.193383 c 0.952472,0.103957 2.005645,0.19959 3.176304,0.278594 l -0.960864,4.756898 c -0.05035,0.28691 -0.310497,0.44076 -0.524489,0.44076 -0.03357,0 -0.06713,-0.0042 -0.0965,-0.0083 l -2.114738,-0.370073 c -0.293713,-0.04989 -0.486726,-0.328493 -0.436375,-0.615403 z m 23.744646,0.01663 c -1.98886,6.636371 -6.528834,12.241526 -11.815678,12.241526 -3.457429,0 -6.230924,-2.320235 -8.54287,-5.255873 0.48253,-0.390863 0.830791,-0.948053 0.948276,-1.59672 l 0.969254,-5.006385 c 1.93851,0.09564 4.132971,0.149693 6.637928,0.149693 5.089636,0 8.924697,-0.228698 11.80309,-0.532241 z"
     id="path2"
     inkscape:connector-curvature="0"
     style="stroke-width:1.06930554" />
</svg>
