<?xml version="1.0" encoding="UTF-8" standalone="no"?>
<!-- Generator: Adobe Illustrator 16.0.0, SVG Export Plug-In . SVG Version: 6.00 Build 0)  -->

<svg
   xmlns:dc="http://purl.org/dc/elements/1.1/"
   xmlns:cc="http://creativecommons.org/ns#"
   xmlns:rdf="http://www.w3.org/1999/02/22-rdf-syntax-ns#"
   xmlns:svg="http://www.w3.org/2000/svg"
   xmlns="http://www.w3.org/2000/svg"
   xmlns:sodipodi="http://sodipodi.sourceforge.net/DTD/sodipodi-0.dtd"
   xmlns:inkscape="http://www.inkscape.org/namespaces/inkscape"
   version="1.1"
   id="Capa_1"
   x="0px"
   y="0px"
   width="512"
   height="512"
   viewBox="0 0 512 512"
   xml:space="preserve"
   sodipodi:docname="qzone-circle.svg"
   inkscape:version="0.92.3 (2405546, 2018-03-11)"><metadata
   id="metadata45"><rdf:RDF><cc:Work
       rdf:about=""><dc:format>image/svg+xml</dc:format><dc:type
         rdf:resource="http://purl.org/dc/dcmitype/StillImage" /><dc:title></dc:title></cc:Work></rdf:RDF></metadata><defs
   id="defs43"><filter
     style="color-interpolation-filters:sRGB;"
     inkscape:label="Drop Shadow"
     id="filter928"><feFlood
       flood-opacity="0.498039"
       flood-color="rgb(0,0,0)"
       result="flood"
       id="feFlood918" /><feComposite
       in="flood"
       in2="SourceGraphic"
       operator="in"
       result="composite1"
       id="feComposite920" /><feGaussianBlur
       in="composite1"
       stdDeviation="0.5"
       result="blur"
       id="feGaussianBlur922" /><feOffset
       dx="1"
       dy="1"
       result="offset"
       id="feOffset924" /><feComposite
       in="SourceGraphic"
       in2="offset"
       operator="over"
       result="composite2"
       id="feComposite926" /></filter></defs><sodipodi:namedview
   pagecolor="#ffffff"
   bordercolor="#666666"
   borderopacity="1"
   objecttolerance="10"
   gridtolerance="10"
   guidetolerance="10"
   inkscape:pageopacity="0"
   inkscape:pageshadow="2"
   inkscape:window-width="1366"
   inkscape:window-height="743"
   id="namedview41"
   showgrid="false"
   inkscape:showpageshadow="false"
   showguides="true"
   inkscape:guide-bbox="true"
   inkscape:zoom="0.42679591"
   inkscape:cx="207.4142"
   inkscape:cy="247.88436"
   inkscape:window-x="0"
   inkscape:window-y="0"
   inkscape:window-maximized="1"
   inkscape:current-layer="g8"><sodipodi:guide
     position="576.3879,260.07747"
     orientation="0,1"
     id="guide914"
     inkscape:locked="false" /><sodipodi:guide
     position="260.07747,487.35237"
     orientation="1,0"
     id="guide916"
     inkscape:locked="false" /></sodipodi:namedview>
<g
   id="g8"
   transform="matrix(5.1947012,0,0,5.218671,0,1.8749136)"
   style="fill:#ffce00;fill-opacity:1">
	
<ellipse
   style="opacity:1;fill:#ffce00;fill-opacity:1;fill-rule:nonzero;stroke:none;stroke-width:0.307298;stroke-miterlimit:4;stroke-dasharray:none;stroke-opacity:1"
   id="path852"
   cx="49.840393"
   cy="48.363014"
   rx="48.938301"
   ry="48.938015" /><g
   id="g912"
   transform="matrix(0.55728145,0,0,0.56248207,22.687967,20.600729)"
   style="fill:#fffcff;fill-opacity:1;filter:url(#filter928)"><g
     id="g856"
     style="fill:#fffcff;fill-opacity:1">
	<path
   id="path854"
   d="M 97.578,37.764 C 97.329,37.01 96.648,36.473 95.846,36.399 L 64.45,33.489 50.817,3.469 C 50.505,2.72 49.765,2.232 48.944,2.232 c -0.82,0 -1.561,0.489 -1.871,1.237 L 33.021,32.831 1.833,36.399 C 1.024,36.474 0.34,37.018 0.095,37.78 -0.151,38.542 0.091,39.375 0.708,39.894 L 23.755,61.031 18.083,92.97 c -0.183,0.781 0.126,1.592 0.784,2.062 0.354,0.252 0.771,0.378 1.188,0.378 0.361,0 0.725,-0.096 1.047,-0.288 l 28.05,-16.117 27.632,16.326 c 0.688,0.202 1.558,0.17 2.214,-0.285 0.657,-0.455 0.978,-1.25 0.815,-2.025 L 75.638,69.376 c 1.103,-0.512 4.345,-1.941 6.05,-3.902 -2.78,1.099 -3.826,1.389 -6.607,1.914 V 67.382 C 56.518,70.948 28.036,67.923 27.077,67.876 L 58.316,45 C 47.741,43.059 23.189,42.284 21.674,42.237 c -0.197,0.032 -0.232,0.034 -0.079,-0.002 0,0 0.028,0 0.079,0.002 1.275,-0.206 33.333,-5.459 51.921,-0.21 l -31.461,22.06 c 0,0 24.257,2.358 32.813,1.367 L 74.374,61.03 97.204,39.872 c 0.396,-0.525 0.625,-1.354 0.374,-2.108 z"
   inkscape:connector-curvature="0"
   style="fill:#fffcff;fill-opacity:1" />
</g><g
     id="g858"
     style="fill:#fffcff;fill-opacity:1">
</g><g
     id="g860"
     style="fill:#fffcff;fill-opacity:1">
</g><g
     id="g862"
     style="fill:#fffcff;fill-opacity:1">
</g><g
     id="g864"
     style="fill:#fffcff;fill-opacity:1">
</g><g
     id="g866"
     style="fill:#fffcff;fill-opacity:1">
</g><g
     id="g868"
     style="fill:#fffcff;fill-opacity:1">
</g><g
     id="g870"
     style="fill:#fffcff;fill-opacity:1">
</g><g
     id="g872"
     style="fill:#fffcff;fill-opacity:1">
</g><g
     id="g874"
     style="fill:#fffcff;fill-opacity:1">
</g><g
     id="g876"
     style="fill:#fffcff;fill-opacity:1">
</g><g
     id="g878"
     style="fill:#fffcff;fill-opacity:1">
</g><g
     id="g880"
     style="fill:#fffcff;fill-opacity:1">
</g><g
     id="g882"
     style="fill:#fffcff;fill-opacity:1">
</g><g
     id="g884"
     style="fill:#fffcff;fill-opacity:1">
</g><g
     id="g886"
     style="fill:#fffcff;fill-opacity:1">
</g></g></g>
<g
   id="g10"
   transform="translate(0,414.25)">
</g>
<g
   id="g12"
   transform="translate(0,414.25)">
</g>
<g
   id="g14"
   transform="translate(0,414.25)">
</g>
<g
   id="g16"
   transform="translate(0,414.25)">
</g>
<g
   id="g18"
   transform="translate(0,414.25)">
</g>
<g
   id="g20"
   transform="translate(0,414.25)">
</g>
<g
   id="g22"
   transform="translate(0,414.25)">
</g>
<g
   id="g24"
   transform="translate(0,414.25)">
</g>
<g
   id="g26"
   transform="translate(0,414.25)">
</g>
<g
   id="g28"
   transform="translate(0,414.25)">
</g>
<g
   id="g30"
   transform="translate(0,414.25)">
</g>
<g
   id="g32"
   transform="translate(0,414.25)">
</g>
<g
   id="g34"
   transform="translate(0,414.25)">
</g>
<g
   id="g36"
   transform="translate(0,414.25)">
</g>
<g
   id="g38"
   transform="translate(0,414.25)">
</g>
</svg>