<?xml version="1.0" encoding="UTF-8" standalone="no"?>
<svg
   xmlns:dc="http://purl.org/dc/elements/1.1/"
   xmlns:cc="http://creativecommons.org/ns#"
   xmlns:rdf="http://www.w3.org/1999/02/22-rdf-syntax-ns#"
   xmlns:svg="http://www.w3.org/2000/svg"
   xmlns="http://www.w3.org/2000/svg"
   xmlns:sodipodi="http://sodipodi.sourceforge.net/DTD/sodipodi-0.dtd"
   xmlns:inkscape="http://www.inkscape.org/namespaces/inkscape"
   viewBox="0 0 256 256"
   width="512"
   height="512"
   version="1.1"
   id="svg4"
   sodipodi:docname="reddit.svg"
   style="fill:#000000"
   inkscape:version="0.92.3 (2405546, 2018-03-11)">
  <metadata
     id="metadata10">
    <rdf:RDF>
      <cc:Work
         rdf:about="">
        <dc:format>image/svg+xml</dc:format>
        <dc:type
           rdf:resource="http://purl.org/dc/dcmitype/StillImage" />
        <dc:title></dc:title>
      </cc:Work>
    </rdf:RDF>
  </metadata>
  <defs
     id="defs8" />
  <sodipodi:namedview
     pagecolor="#ffffff"
     bordercolor="#666666"
     borderopacity="1"
     objecttolerance="10"
     gridtolerance="10"
     guidetolerance="10"
     inkscape:pageopacity="0"
     inkscape:pageshadow="2"
     inkscape:window-width="1366"
     inkscape:window-height="743"
     id="namedview6"
     showgrid="false"
     inkscape:showpageshadow="false"
     inkscape:zoom="0.834386"
     inkscape:cx="158.07659"
     inkscape:cy="308.30423"
     inkscape:window-x="0"
     inkscape:window-y="0"
     inkscape:window-maximized="1"
     inkscape:current-layer="svg4" />
  <path
     d="m 149.93046,1.0626671 c -5.19382,0 -10.17122,2.3162924 -13.85017,6.0507626 -3.67895,3.7344703 -6.29751,8.6743133 -8.31011,14.5596473 -3.57075,10.494261 -5.06397,24.132136 -5.36694,40.086303 -26.575023,0.898176 -51.029233,8.414312 -70.635888,20.799498 -5.907963,-6.050763 -13.438995,-9.076145 -20.948387,-9.076145 -7.812363,0 -15.646369,3.285383 -21.6408971,9.83249 -12.0106985,13.117871 -12.0106985,34.153707 0,47.271577 l 1.3850171,1.51269 c -2.9431613,8.34346 -4.6744329,17.13595 -4.6744329,26.28301 0,27.39386 14.2180679,51.95148 36.3567059,69.2056 22.138639,17.25411 52.32769,27.6066 85.524822,27.6066 33.19714,0 63.38618,-10.35249 85.52483,-27.6066 22.13863,-17.25412 36.3567,-41.81174 36.3567,-69.2056 0,-9.14706 -1.73127,-17.93955 -4.67443,-26.28301 l 1.38501,-1.51269 c 12.0107,-13.11787 12.0107,-34.153706 0,-47.271577 -5.99452,-6.547107 -13.82853,-9.83249 -21.64089,-9.83249 -7.50939,0 -15.04042,3.025382 -20.94839,9.076145 -19.52009,-12.31427 -43.8661,-19.830408 -70.28963,-20.799498 0.34625,-15.032393 1.83947,-27.606604 4.67443,-35.926403 1.60143,-4.7035 3.61403,-8.083456 5.54007,-10.021576 1.92603,-1.93812 3.67895,-2.647208 6.23258,-2.647208 2.55363,0 3.78716,0.756345 5.7132,2.458121 1.92603,1.701778 4.17669,4.490817 7.09821,7.752541 5.21545,5.838017 13.20095,12.266953 26.48845,13.614216 2.46707,13.921474 13.74198,24.581223 27.18097,24.581223 15.23519,0 27.70035,-13.614216 27.70035,-30.253814 0,-16.639597 -12.46516,-30.2538129 -27.70035,-30.2538129 -13.26586,0 -24.51913,10.3524919 -27.18097,24.0139639 -9.86824,-1.040004 -14.21806,-5.199904 -18.5246,-10.021575 -2.4887,-2.789039 -4.78264,-6.0507629 -7.96385,-8.8870579 -3.18121,-2.836295 -7.61759,-5.105331 -12.81141,-5.105331 z m 66.48083,12.1015259 c 9.24066,0 16.62021,8.059797 16.62021,18.152287 0,10.092492 -7.37955,18.152289 -16.62021,18.152289 -9.24067,0 -16.6202,-8.059797 -16.6202,-18.152289 0,-10.09249 7.37953,-18.152287 16.6202,-18.152287 z M 127.77018,73.67182 c 31.07633,0 59.14457,9.761575 79.11912,25.337569 19.97455,15.576001 31.68227,36.540921 31.68227,59.373111 0,22.83219 -11.70772,43.79711 -31.68227,59.37311 -19.97455,15.57599 -48.04279,25.33756 -79.11912,25.33756 -31.076327,0 -59.144568,-9.76157 -79.119117,-25.33756 -19.974549,-15.576 -31.682272,-36.54092 -31.682272,-59.37311 0,-22.83219 11.707723,-43.79711 31.682272,-59.373111 C 68.625612,83.433395 96.693853,73.67182 127.77018,73.67182 Z M 30.818965,85.395173 c 3.895361,0 7.834006,1.276347 11.253266,3.970813 -11.101779,8.69797 -20.190955,19.215894 -26.488458,31.010164 -6.4706285,-8.60346 -6.0378105,-20.444988 1.385018,-28.552042 3.960286,-4.325327 8.916049,-6.428935 13.850174,-6.428935 z m 193.902435,0 c 4.93413,0 9.88989,2.103608 13.85017,6.428935 7.42283,8.107054 7.85565,19.948582 1.38502,28.552042 -6.2975,-11.79427 -15.38668,-22.312194 -26.48846,-31.010164 3.41926,-2.694466 7.35791,-3.970813 11.25327,-3.970813 z M 83.449624,116.02716 c -12.183825,0 -22.160277,10.89609 -22.160277,24.20305 0,13.30696 9.976452,24.20305 22.160277,24.20305 12.183827,0 22.160276,-10.89609 22.160276,-24.20305 0,-13.30696 -9.976449,-24.20305 -22.160276,-24.20305 z m 88.641116,0 c -12.18383,0 -22.16028,10.89609 -22.16028,24.20305 0,13.30696 9.97645,24.20305 22.16028,24.20305 12.18382,0 22.16027,-10.89609 22.16027,-24.20305 0,-13.30696 -9.97645,-24.20305 -22.16027,-24.20305 z m -88.641116,12.10152 c 6.1893,0 11.080139,5.34168 11.080139,12.10153 0,6.75985 -4.890839,12.10153 -11.080139,12.10153 -6.189293,0 -11.080138,-5.34168 -11.080138,-12.10153 0,-6.75985 4.890845,-12.10153 11.080138,-12.10153 z m 88.641116,0 c 6.1893,0 11.08014,5.34168 11.08014,12.10153 0,6.75985 -4.89084,12.10153 -11.08014,12.10153 -6.18929,0 -11.08015,-5.34168 -11.08015,-12.10153 0,-6.75985 4.89086,-12.10153 11.08015,-12.10153 z m 6.4057,59.5622 c -0.30298,0.0484 -0.58431,0.0944 -0.86564,0.18878 -1.75291,0.37817 -3.22448,1.63087 -3.98192,3.40356 0,0 -2.89988,4.39624 -10.2145,9.45431 -7.31462,5.05808 -18.71938,10.21067 -35.6642,10.21067 -16.94482,0 -28.34957,-5.15259 -35.664197,-10.21067 -7.31462,-5.05807 -10.214503,-9.45431 -10.214503,-9.45431 -1.255169,-2.15086 -3.614031,-3.21447 -5.886323,-2.64722 -1.796196,0.49617 -3.246132,1.91454 -3.873722,3.829 -0.627585,1.89086 -0.346254,3.99447 0.757432,5.62533 0,0 4.263255,6.71253 13.157665,12.85787 8.89441,6.14527 22.658018,12.10153 41.723648,12.10153 19.06563,0 32.82924,-5.95626 41.72365,-12.10153 8.89441,-6.14534 13.15766,-12.85787 13.15766,-12.85787 1.66635,-1.74904 2.1641,-4.46716 1.23353,-6.78345 -0.93056,-2.31635 -3.073,-3.75813 -5.38858,-3.6163 z"
     id="path2"
     inkscape:connector-curvature="0"
     style="stroke-width:5.78978777" />
</svg>
