<?xml version="1.0" encoding="UTF-8" standalone="no"?>
<!-- Generator: Adobe Illustrator 16.0.0, SVG Export Plug-In . SVG Version: 6.00 Build 0)  -->

<svg
   xmlns:dc="http://purl.org/dc/elements/1.1/"
   xmlns:cc="http://creativecommons.org/ns#"
   xmlns:rdf="http://www.w3.org/1999/02/22-rdf-syntax-ns#"
   xmlns:svg="http://www.w3.org/2000/svg"
   xmlns="http://www.w3.org/2000/svg"
   xmlns:sodipodi="http://sodipodi.sourceforge.net/DTD/sodipodi-0.dtd"
   xmlns:inkscape="http://www.inkscape.org/namespaces/inkscape"
   version="1.1"
   id="Capa_1"
   x="0px"
   y="0px"
   width="512"
   height="512"
   viewBox="0 0 512 512"
   xml:space="preserve"
   sodipodi:docname="reddit-circle.svg"
   inkscape:version="0.92.3 (2405546, 2018-03-11)"><metadata
   id="metadata65"><rdf:RDF><cc:Work
       rdf:about=""><dc:format>image/svg+xml</dc:format><dc:type
         rdf:resource="http://purl.org/dc/dcmitype/StillImage" /><dc:title></dc:title></cc:Work></rdf:RDF></metadata><defs
   id="defs63" /><sodipodi:namedview
   pagecolor="#ffffff"
   bordercolor="#666666"
   borderopacity="1"
   objecttolerance="10"
   gridtolerance="10"
   guidetolerance="10"
   inkscape:pageopacity="0"
   inkscape:pageshadow="2"
   inkscape:window-width="1366"
   inkscape:window-height="743"
   id="namedview61"
   showgrid="false"
   inkscape:showpageshadow="false"
   inkscape:zoom="0.85359182"
   inkscape:cx="190.06257"
   inkscape:cy="122.95845"
   inkscape:window-x="0"
   inkscape:window-y="0"
   inkscape:window-maximized="1"
   inkscape:current-layer="Capa_1" />
<ellipse
   style="opacity:1;fill:#ffffff;fill-opacity:1;fill-rule:nonzero;stroke:none;stroke-width:1.60000002;stroke-miterlimit:4;stroke-dasharray:none;stroke-opacity:1"
   id="path880"
   cx="256.5629"
   cy="256.02286"
   rx="256.5629"
   ry="255.97714" /><g
   id="g28"
   transform="matrix(5.2426407,0,0,5.2426407,0,-0.468127)"
   style="fill:#ff4500;fill-opacity:1">
	<g
   id="g26"
   style="fill:#ff4500;fill-opacity:1">
		<path
   d="m 53.688,81.593 h 0.939 7.889 c 0.014,-0.104 0.021,-0.206 0.021,-0.305 0,-1.937 -2.021,-3.509 -4.508,-3.509 -0.579,0 -1.139,0.091 -1.668,0.256 -0.793,1.424 -1.691,2.626 -2.673,3.558 z"
   id="path2"
   inkscape:connector-curvature="0"
   style="fill:#ff4500;fill-opacity:1" />
		<path
   d="m 39.577,77.779 c -2.485,0 -4.506,1.572 -4.506,3.509 0,0.099 0.007,0.198 0.021,0.305 h 8.101 0.666 c -0.985,-0.933 -1.886,-2.142 -2.681,-3.567 -0.51,-0.154 -1.045,-0.247 -1.601,-0.247 z"
   id="path4"
   inkscape:connector-curvature="0"
   style="fill:#ff4500;fill-opacity:1" />
		<path
   d="m 58.902,53.117 -1.104,0.347 c -5.729,1.794 -12.295,1.797 -18.037,0.006 l -1.104,-0.346 -0.182,1.144 c -0.362,2.289 -0.546,4.59 -0.546,6.838 0,9.949 3.269,18.732 7.948,21.359 l 0.228,0.128 h 5.336 l 0.229,-0.128 c 4.68,-2.626 7.948,-11.408 7.948,-21.359 0,-2.301 -0.181,-4.603 -0.534,-6.844 z m -7.995,27.476 h -4.269 c -3.901,-2.423 -6.71,-10.538 -6.71,-19.487 0,-1.775 0.121,-3.588 0.359,-5.398 5.456,1.479 11.539,1.479 16.982,-0.005 0.23,1.778 0.348,3.592 0.348,5.403 0.001,8.949 -2.808,17.064 -6.71,19.487 z"
   id="path6"
   inkscape:connector-curvature="0"
   style="fill:#ff4500;fill-opacity:1" />
		<path
   d="m 58.874,71.537 c 2.78,-1.13 4.707,-4.309 4.707,-8.021 0,-3.179 -1.488,-6.068 -3.729,-7.508 0.188,1.664 0.293,3.365 0.293,5.098 -0.002,3.73 -0.459,7.285 -1.271,10.431 z"
   id="path8"
   inkscape:connector-curvature="0"
   style="fill:#ff4500;fill-opacity:1" />
		<path
   d="m 37.69,56.053 c -2.223,1.448 -3.652,4.272 -3.652,7.463 0,3.688 1.907,6.819 4.623,7.976 -0.805,-3.138 -1.258,-6.673 -1.258,-10.386 0,-1.715 0.101,-3.404 0.287,-5.053 z"
   id="path10"
   inkscape:connector-curvature="0"
   style="fill:#ff4500;fill-opacity:1" />
		<path
   d="m 65.686,22.014 c 1.614,0 2.93,-1.314 2.93,-2.931 0,-1.617 -1.314,-2.931 -2.93,-2.931 -1.616,0 -2.932,1.314 -2.932,2.931 0,1.617 1.316,2.931 2.932,2.931 z"
   id="path12"
   inkscape:connector-curvature="0"
   style="fill:#ff4500;fill-opacity:1" />
		<path
   d="m 25.794,34.767 c 0,1.256 0.606,2.409 1.587,3.138 0.816,-2.332 2.471,-4.452 4.75,-6.211 -0.688,-0.539 -1.534,-0.851 -2.417,-0.851 -2.161,0 -3.92,1.761 -3.92,3.924 z"
   id="path14"
   inkscape:connector-curvature="0"
   style="fill:#ff4500;fill-opacity:1" />
		<path
   d="M 48.875,0 C 21.882,0 0,21.883 0,48.875 0,75.867 21.882,97.75 48.875,97.75 75.868,97.75 97.75,75.867 97.75,48.875 97.75,21.883 75.868,0 48.875,0 Z m 21.727,39.559 c 0.092,0.544 0.15,1.092 0.15,1.651 0,5.448 -4.52,10.201 -11.189,12.711 0.015,0.082 0.025,0.161 0.037,0.242 3.305,1.442 5.506,5.122 5.506,9.353 0,4.785 -2.816,8.827 -6.729,9.769 -0.34,1.073 -0.723,2.089 -1.146,3.032 0.266,-0.029 0.527,-0.062 0.799,-0.062 3.326,0 6.033,2.258 6.033,5.034 0,0.409 -0.072,0.834 -0.223,1.299 -0.102,0.317 -0.395,0.53 -0.727,0.53 H 54.626 52.945 51.56 l -0.011,0.006 h -5.555 l -0.01,-0.006 h -1.326 -1.466 -8.698 c -0.33,0 -0.623,-0.213 -0.725,-0.526 -0.152,-0.465 -0.225,-0.891 -0.225,-1.303 0,-2.776 2.705,-5.034 6.031,-5.034 0.25,0 0.492,0.036 0.737,0.061 -0.423,-0.939 -0.805,-1.955 -1.144,-3.025 -3.852,-0.961 -6.658,-4.988 -6.658,-9.771 0,-4.188 2.17,-7.854 5.428,-9.318 0.014,-0.092 0.025,-0.184 0.041,-0.276 -6.67,-2.511 -11.188,-7.265 -11.188,-12.711 0,-0.595 0.069,-1.177 0.174,-1.751 -1.653,-0.97 -2.698,-2.748 -2.698,-4.692 0,-3.005 2.442,-5.448 5.445,-5.448 1.373,0 2.679,0.545 3.683,1.471 3.878,-2.528 9.152,-4.104 14.975,-4.175 l 3.395,-10.726 c 0.119,-0.379 0.519,-0.604 0.901,-0.512 l 8.876,2.091 c 0.648,-1.659 2.256,-2.841 4.143,-2.841 2.457,0 4.453,1.998 4.453,4.456 0,2.457 -1.996,4.456 -4.453,4.456 -2.457,0 -4.455,-1.999 -4.455,-4.456 0,-0.041 0.011,-0.079 0.012,-0.119 l -8.235,-1.939 -3.041,9.617 c 5.568,0.199 10.599,1.767 14.312,4.225 1.01,-0.974 2.332,-1.548 3.757,-1.548 3.004,0 5.448,2.443 5.448,5.448 -0.003,2.034 -1.116,3.847 -2.881,4.787 z"
   id="path16"
   inkscape:connector-curvature="0"
   style="fill:#ff4500;fill-opacity:1" />
		<path
   d="m 41.006,47.043 c -0.297,0.298 -0.297,0.78 0,1.078 1.634,1.635 4.198,2.429 7.841,2.429 0.01,0 0.019,-0.005 0.028,-0.005 0.009,0 0.018,0.005 0.026,0.005 3.642,0 6.207,-0.794 7.841,-2.429 0.298,-0.298 0.298,-0.78 0.001,-1.078 -0.298,-0.298 -0.781,-0.298 -1.079,0 -1.334,1.333 -3.546,1.982 -6.763,1.982 -0.009,0 -0.018,0.005 -0.026,0.005 -0.01,0 -0.019,-0.005 -0.028,-0.005 -3.217,0 -5.429,-0.649 -6.762,-1.982 -0.297,-0.298 -0.78,-0.298 -1.079,0 z"
   id="path18"
   inkscape:connector-curvature="0"
   style="fill:#ff4500;fill-opacity:1" />
		<path
   d="m 56.355,35.265 c -1.787,0 -3.242,1.454 -3.242,3.243 0,1.788 1.455,3.241 3.242,3.241 1.787,0 3.242,-1.453 3.242,-3.241 10e-4,-1.789 -1.454,-3.243 -3.242,-3.243 z"
   id="path20"
   inkscape:connector-curvature="0"
   style="fill:#ff4500;fill-opacity:1" />
		<path
   d="m 41.407,41.749 c 1.789,0 3.242,-1.453 3.242,-3.241 0,-1.789 -1.453,-3.243 -3.242,-3.243 -1.787,0 -3.242,1.454 -3.242,3.243 0,1.788 1.455,3.241 3.242,3.241 z"
   id="path22"
   inkscape:connector-curvature="0"
   style="fill:#ff4500;fill-opacity:1" />
		<path
   d="m 68.033,30.843 c -0.936,0 -1.812,0.338 -2.516,0.927 2.267,1.772 3.9,3.904 4.69,6.25 1.077,-0.716 1.748,-1.916 1.748,-3.253 0.002,-2.163 -1.76,-3.924 -3.922,-3.924 z"
   id="path24"
   inkscape:connector-curvature="0"
   style="fill:#ff4500;fill-opacity:1" />
	</g>
</g>
<g
   id="g30"
   transform="translate(0,414.25)">
</g>
<g
   id="g32"
   transform="translate(0,414.25)">
</g>
<g
   id="g34"
   transform="translate(0,414.25)">
</g>
<g
   id="g36"
   transform="translate(0,414.25)">
</g>
<g
   id="g38"
   transform="translate(0,414.25)">
</g>
<g
   id="g40"
   transform="translate(0,414.25)">
</g>
<g
   id="g42"
   transform="translate(0,414.25)">
</g>
<g
   id="g44"
   transform="translate(0,414.25)">
</g>
<g
   id="g46"
   transform="translate(0,414.25)">
</g>
<g
   id="g48"
   transform="translate(0,414.25)">
</g>
<g
   id="g50"
   transform="translate(0,414.25)">
</g>
<g
   id="g52"
   transform="translate(0,414.25)">
</g>
<g
   id="g54"
   transform="translate(0,414.25)">
</g>
<g
   id="g56"
   transform="translate(0,414.25)">
</g>
<g
   id="g58"
   transform="translate(0,414.25)">
</g>
</svg>