<?xml version="1.0" encoding="UTF-8" standalone="no"?>
<svg
   xmlns:dc="http://purl.org/dc/elements/1.1/"
   xmlns:cc="http://creativecommons.org/ns#"
   xmlns:rdf="http://www.w3.org/1999/02/22-rdf-syntax-ns#"
   xmlns:svg="http://www.w3.org/2000/svg"
   xmlns="http://www.w3.org/2000/svg"
   xmlns:sodipodi="http://sodipodi.sourceforge.net/DTD/sodipodi-0.dtd"
   xmlns:inkscape="http://www.inkscape.org/namespaces/inkscape"
   viewBox="0 0 256 256"
   width="512"
   height="512"
   version="1.1"
   id="svg4"
   sodipodi:docname="reddit-square.svg"
   style="fill:#000000"
   inkscape:version="0.92.3 (2405546, 2018-03-11)">
  <metadata
     id="metadata10">
    <rdf:RDF>
      <cc:Work
         rdf:about="">
        <dc:format>image/svg+xml</dc:format>
        <dc:type
           rdf:resource="http://purl.org/dc/dcmitype/StillImage" />
        <dc:title></dc:title>
      </cc:Work>
    </rdf:RDF>
  </metadata>
  <defs
     id="defs8" />
  <sodipodi:namedview
     pagecolor="#ffffff"
     bordercolor="#666666"
     borderopacity="1"
     objecttolerance="10"
     gridtolerance="10"
     guidetolerance="10"
     inkscape:pageopacity="0"
     inkscape:pageshadow="2"
     inkscape:window-width="1366"
     inkscape:window-height="743"
     id="namedview6"
     showgrid="false"
     inkscape:showpageshadow="false"
     inkscape:zoom="0.834386"
     inkscape:cx="158.07659"
     inkscape:cy="308.30423"
     inkscape:window-x="0"
     inkscape:window-y="0"
     inkscape:window-maximized="1"
     inkscape:current-layer="svg4"
     showguides="true"
     inkscape:guide-bbox="true">
    <sodipodi:guide
       position="112.65769,128.23801"
       orientation="0,1"
       id="guide983"
       inkscape:locked="false" />
    <sodipodi:guide
       position="128.83725,251.08283"
       orientation="1,0"
       id="guide985"
       inkscape:locked="false" />
  </sodipodi:namedview>
  <rect
     style="opacity:1;fill:#ff4500;fill-opacity:1;fill-rule:nonzero;stroke:none;stroke-width:0.80000001;stroke-miterlimit:4;stroke-dasharray:none;stroke-opacity:1"
     id="rect817"
     width="257.6745"
     height="255.87677"
     x="-0.59924304"
     y="0.1232243" />
  <g
     id="g981"
     transform="matrix(2.0180593,0,0,1.8213189,31.130282,23.007243)"
     style="fill:#ffffff;fill-opacity:1">
    <g
       id="g921"
       style="fill:#ffffff;fill-opacity:1">
	<g
   id="g919"
   style="fill:#ffffff;fill-opacity:1">
		<path
   id="path911"
   d="m 82.613,28.269 c 0,-4.218 -3.431,-7.648 -7.647,-7.648 -2,0 -3.855,0.807 -5.271,2.173 -5.212,-3.45 -12.273,-5.65 -20.09,-5.93 l 4.27,-13.5 11.561,2.723 c -0.002,0.057 -0.018,0.11 -0.018,0.167 0,3.449 2.807,6.255 6.256,6.255 3.447,0 6.252,-2.806 6.252,-6.255 C 77.924,2.805 75.12,0 71.672,0 69.025,0 66.768,1.658 65.858,3.987 L 53.397,1.052 c -0.539,-0.13 -1.1,0.187 -1.268,0.718 l -4.763,15.056 c -8.174,0.099 -15.578,2.311 -21.021,5.86 -1.407,-1.3 -3.241,-2.065 -5.168,-2.065 -4.215,0 -7.644,3.431 -7.644,7.648 0,2.729 1.467,5.225 3.787,6.586 -0.146,0.806 -0.244,1.623 -0.244,2.458 0,7.646 6.342,14.317 15.704,17.842 -0.021,0.13 -0.038,0.259 -0.058,0.39 -4.573,2.057 -7.618,7.2 -7.618,13.079 0,6.716 3.939,12.368 9.346,13.718 0.476,1.502 1.011,2.928 1.604,4.248 -0.343,-0.035 -0.684,-0.086 -1.036,-0.086 -4.668,0 -8.465,3.17 -8.465,7.066 0,0.578 0.103,1.177 0.315,1.829 0.144,0.44 0.554,0.739 1.018,0.739 h 12.208 2.059 1.86 l 0.015,0.008 h 7.8 l 0.014,-0.008 h 1.944 2.358 11.914 c 0.467,0 0.879,-0.301 1.021,-0.746 0.209,-0.651 0.31,-1.248 0.31,-1.822 0,-3.896 -3.797,-7.066 -8.467,-7.066 -0.379,0 -0.75,0.047 -1.121,0.088 0.596,-1.324 1.131,-2.75 1.607,-4.258 5.49,-1.32 9.443,-6.992 9.443,-13.71 0,-5.938 -3.09,-11.104 -7.728,-13.128 -0.018,-0.113 -0.034,-0.226 -0.053,-0.341 9.362,-3.522 15.708,-10.193 15.708,-17.842 0,-0.785 -0.082,-1.555 -0.211,-2.317 2.482,-1.319 4.046,-3.865 4.046,-6.727 z M 71.672,2.14 c 2.266,0 4.109,1.845 4.109,4.113 0,2.268 -1.844,4.114 -4.109,4.114 -2.27,0 -4.117,-1.846 -4.117,-4.114 0,-2.268 1.848,-4.113 4.117,-4.113 z M 15.676,28.269 c 0,-3.036 2.469,-5.508 5.503,-5.508 1.239,0 2.427,0.438 3.392,1.194 -3.199,2.468 -5.521,5.443 -6.667,8.718 -1.376,-1.023 -2.228,-2.641 -2.228,-4.404 z m 45.342,27.585 c 0.476,3.019 0.73,6.164 0.731,9.386 0,13.344 -4.376,25.354 -10.44,28.759 H 44.552 C 38.488,90.595 34.111,78.584 34.111,65.24 c 0,-3.219 0.273,-6.356 0.751,-9.378 3.974,1.24 8.393,1.957 13.068,1.957 4.682,-0.001 9.107,-0.719 13.088,-1.965 z m -33.772,12.77 c 0,-4.479 2.006,-8.442 5.126,-10.476 -0.26,2.314 -0.403,4.685 -0.403,7.091 0,5.212 0.637,10.176 1.765,14.578 -3.81,-1.621 -6.488,-6.016 -6.488,-11.193 z m 1.481,25.374 c -0.021,-0.146 -0.031,-0.289 -0.031,-0.428 0,-2.717 2.837,-4.925 6.325,-4.925 0.783,0 1.533,0.13 2.25,0.345 1.117,2.002 2.379,3.698 3.763,5.008 h -0.936 z m 32.197,-5.352 c 3.488,0 6.328,2.208 6.328,4.925 0,0.139 -0.012,0.279 -0.033,0.428 h -11.07 -1.32 c 1.38,-1.308 2.641,-2.994 3.755,-4.994 0.742,-0.233 1.527,-0.359 2.34,-0.359 z m 7.791,-20.022 c 0,5.212 -2.705,9.673 -6.605,11.261 1.139,-4.418 1.781,-9.406 1.781,-14.646 -0.002,-2.431 -0.148,-4.817 -0.412,-7.153 3.148,2.018 5.236,6.075 5.236,10.538 z M 47.929,55.678 c -15.832,0 -28.711,-8.238 -28.711,-18.363 0,-10.126 12.879,-18.365 28.711,-18.365 15.832,0 28.712,8.239 28.712,18.365 0,10.123 -12.881,18.363 -28.712,18.363 z M 78.018,32.836 c -1.108,-3.293 -3.404,-6.286 -6.582,-8.773 0.982,-0.827 2.216,-1.301 3.529,-1.301 3.037,0 5.508,2.472 5.508,5.508 -0.002,1.876 -0.941,3.56 -2.455,4.566 z"
   inkscape:connector-curvature="0"
   style="fill:#ffffff;fill-opacity:1" />

		<path
   id="path913"
   d="m 42.142,33.521 c 0,-2.512 -2.041,-4.553 -4.55,-4.553 -2.51,0 -4.553,2.041 -4.553,4.553 0,2.51 2.043,4.55 4.553,4.55 2.509,-10e-4 4.55,-2.041 4.55,-4.55 z"
   inkscape:connector-curvature="0"
   style="fill:#ffffff;fill-opacity:1" />

		<path
   id="path915"
   d="m 58.574,28.968 c -2.509,0 -4.55,2.041 -4.55,4.553 0,2.51 2.041,4.55 4.55,4.55 2.508,0 4.549,-2.04 4.549,-4.55 0.001,-2.512 -2.04,-4.553 -4.549,-4.553 z"
   inkscape:connector-curvature="0"
   style="fill:#ffffff;fill-opacity:1" />

		<path
   id="path917"
   d="m 57.604,45.502 c -1.873,1.87 -4.979,2.781 -9.493,2.781 -0.013,0 -0.025,0.008 -0.038,0.008 -0.013,0 -0.025,-0.008 -0.038,-0.008 -4.516,0 -7.621,-0.911 -9.492,-2.781 -0.418,-0.419 -1.096,-0.419 -1.514,0 -0.418,0.417 -0.418,1.095 -0.001,1.513 2.293,2.295 5.894,3.409 11.007,3.409 0.013,0 0.025,-0.007 0.038,-0.007 0.013,0 0.025,0.007 0.038,0.007 5.11,0 8.712,-1.113 11.006,-3.409 0.418,-0.418 0.418,-1.096 0.001,-1.513 -0.418,-0.419 -1.096,-0.419 -1.514,0 z"
   inkscape:connector-curvature="0"
   style="fill:#ffffff;fill-opacity:1" />

	</g>

</g>
    <g
       id="g923"
       style="fill:#ffffff;fill-opacity:1">
</g>
    <g
       id="g925"
       style="fill:#ffffff;fill-opacity:1">
</g>
    <g
       id="g927"
       style="fill:#ffffff;fill-opacity:1">
</g>
    <g
       id="g929"
       style="fill:#ffffff;fill-opacity:1">
</g>
    <g
       id="g931"
       style="fill:#ffffff;fill-opacity:1">
</g>
    <g
       id="g933"
       style="fill:#ffffff;fill-opacity:1">
</g>
    <g
       id="g935"
       style="fill:#ffffff;fill-opacity:1">
</g>
    <g
       id="g937"
       style="fill:#ffffff;fill-opacity:1">
</g>
    <g
       id="g939"
       style="fill:#ffffff;fill-opacity:1">
</g>
    <g
       id="g941"
       style="fill:#ffffff;fill-opacity:1">
</g>
    <g
       id="g943"
       style="fill:#ffffff;fill-opacity:1">
</g>
    <g
       id="g945"
       style="fill:#ffffff;fill-opacity:1">
</g>
    <g
       id="g947"
       style="fill:#ffffff;fill-opacity:1">
</g>
    <g
       id="g949"
       style="fill:#ffffff;fill-opacity:1">
</g>
    <g
       id="g951"
       style="fill:#ffffff;fill-opacity:1">
</g>
  </g>
</svg>
