<?xml version="1.0" encoding="UTF-8" standalone="no"?>
<svg
   xmlns:dc="http://purl.org/dc/elements/1.1/"
   xmlns:cc="http://creativecommons.org/ns#"
   xmlns:rdf="http://www.w3.org/1999/02/22-rdf-syntax-ns#"
   xmlns:svg="http://www.w3.org/2000/svg"
   xmlns="http://www.w3.org/2000/svg"
   xmlns:sodipodi="http://sodipodi.sourceforge.net/DTD/sodipodi-0.dtd"
   xmlns:inkscape="http://www.inkscape.org/namespaces/inkscape"
   viewBox="0 0 512 512"
   version="1.1"
   id="svg6"
   sodipodi:docname="skype-square.svg"
   inkscape:version="0.92.3 (2405546, 2018-03-11)">
  <metadata
     id="metadata12">
    <rdf:RDF>
      <cc:Work
         rdf:about="">
        <dc:format>image/svg+xml</dc:format>
        <dc:type
           rdf:resource="http://purl.org/dc/dcmitype/StillImage" />
        <dc:title></dc:title>
      </cc:Work>
    </rdf:RDF>
  </metadata>
  <defs
     id="defs10" />
  <sodipodi:namedview
     pagecolor="#ffffff"
     bordercolor="#666666"
     borderopacity="1"
     objecttolerance="10"
     gridtolerance="10"
     guidetolerance="10"
     inkscape:pageopacity="0"
     inkscape:pageshadow="2"
     inkscape:window-width="1366"
     inkscape:window-height="743"
     id="namedview8"
     showgrid="false"
     inkscape:showpageshadow="false"
     inkscape:zoom="0.4609375"
     inkscape:cx="28.20339"
     inkscape:cy="256"
     inkscape:window-x="0"
     inkscape:window-y="0"
     inkscape:window-maximized="1"
     inkscape:current-layer="svg6" />
  <rect
     style="opacity:1;fill:#00aff0;fill-opacity:1;fill-rule:nonzero;stroke:none;stroke-width:1.60000002;stroke-miterlimit:4;stroke-dasharray:none;stroke-opacity:1"
     id="rect832"
     width="514.16949"
     height="512"
     x="0"
     y="0" />
  <g
     id="g852"
     transform="translate(-7.3479378,-19.29789)"
     style="fill:#ffffff">
    <path
       id="path848"
       d="m 113.9,263 c 3.7,-12.9 -0.8,-25.1 -4.5,-38 -14.3,-50 18.9,-99.4 70.6,-105.7 16.4,-2 32.2,0.8 47.1,8.2 2.2,1.1 5.1,1.6 7.6,1.4 66.2,-6.8 125,30.9 145.6,93.8 6.3,19.1 8,38.7 5.6,58.7 -0.3,2.4 0.3,5.3 1.5,7.4 23.3,43.6 6.2,96 -38.5,116.5 -25.6,11.8 -51.1,10.3 -75.8,-3.3 -3.5,-1.9 -6.7,-2.8 -10.8,-2.4 -69.2,6.4 -133,-42.2 -145.4,-110.6 -1.5,-8.3 -2,-16.8 -3,-26 z m 12.1,3.5 c 1.2,7.8 2.1,18.3 4.5,28.5 14,59.1 74.6,100.4 134.7,92.1 3.9,-0.5 6.9,0.2 10.2,2.3 16.6,10.6 34.7,14.3 54,9.7 48.9,-11.7 71.1,-64.4 45.5,-107.8 -1.4,-2.3 -2.1,-5.7 -1.7,-8.3 3.6,-23.9 0.5,-46.8 -9.1,-68.9 -21.2,-48.7 -73.2,-81.5 -132.2,-73.1 -2.5,0.4 -5.4,-0.7 -7.9,-1.5 -8.8,-2.7 -17.5,-7.2 -26.5,-8.2 -28.1,-3 -51.3,7.2 -67.2,30.7 -16,23.6 -16.7,48.8 -4,74.4 1.1,2.2 1.5,5 1.4,7.5 -0.1,6.7 -0.9,13.4 -1.7,22.6 z"
       inkscape:connector-curvature="0"
       style="fill:#ffffff" />
    <path
       id="path850"
       d="m 249.6,340.9 c -18.3,-0.6 -35.4,-3.4 -49.8,-15 -6.5,-5.3 -11.4,-11.6 -12.4,-20.3 -0.8,-6.7 1.8,-12 7,-14.8 5.7,-3 12.2,-2.4 17.1,2.3 3.7,3.6 6.9,7.7 10.3,11.6 10.3,11.7 31.5,15 44.9,7 6.5,-3.9 10.5,-9.2 9.7,-17.1 -0.8,-8.1 -6.5,-11.6 -13.5,-13.5 -13.5,-3.6 -27.1,-6.9 -40.6,-10.4 -9.5,-2.5 -18,-6.6 -25.2,-13.6 -13.9,-13.6 -16.8,-49.7 12.9,-63.9 27.9,-13.3 55.5,-11.4 81.7,5.6 6,3.9 10.6,9.1 12.2,16.4 1.5,6.9 -0.3,12 -5.4,15.3 -5.8,3.7 -13.1,3.6 -18.2,-0.6 -3.2,-2.7 -6.2,-5.6 -8.8,-8.8 -9.8,-11.6 -31.9,-12.2 -41.8,-7.2 -5.7,2.9 -9.4,7.3 -9.6,14 -0.2,6.6 4.2,10.4 9.5,12.1 11.2,3.6 22.7,6.2 34.1,9.3 6.7,1.8 13.6,3.3 20.1,5.7 16.5,6.3 25.8,18.3 26.6,36.2 0.9,17.9 -6.4,31.7 -21.9,40.8 -12.2,7 -25.8,8.4 -38.9,8.9 z"
       inkscape:connector-curvature="0"
       style="fill:#ffffff" />
  </g>
</svg>
