<?xml version="1.0" encoding="UTF-8" standalone="no"?>
<svg
   xmlns:dc="http://purl.org/dc/elements/1.1/"
   xmlns:cc="http://creativecommons.org/ns#"
   xmlns:rdf="http://www.w3.org/1999/02/22-rdf-syntax-ns#"
   xmlns:svg="http://www.w3.org/2000/svg"
   xmlns="http://www.w3.org/2000/svg"
   xmlns:sodipodi="http://sodipodi.sourceforge.net/DTD/sodipodi-0.dtd"
   xmlns:inkscape="http://www.inkscape.org/namespaces/inkscape"
   viewBox="0 0 512 512"
   version="1.1"
   id="svg10"
   sodipodi:docname="spotify.svg"
   inkscape:version="0.92.3 (2405546, 2018-03-11)">
  <metadata
     id="metadata16">
    <rdf:RDF>
      <cc:Work
         rdf:about="">
        <dc:format>image/svg+xml</dc:format>
        <dc:type
           rdf:resource="http://purl.org/dc/dcmitype/StillImage" />
        <dc:title></dc:title>
      </cc:Work>
    </rdf:RDF>
  </metadata>
  <defs
     id="defs14" />
  <sodipodi:namedview
     pagecolor="#ffffff"
     bordercolor="#666666"
     borderopacity="1"
     objecttolerance="10"
     gridtolerance="10"
     guidetolerance="10"
     inkscape:pageopacity="0"
     inkscape:pageshadow="2"
     inkscape:window-width="1366"
     inkscape:window-height="743"
     id="namedview12"
     showgrid="false"
     inkscape:showpageshadow="false"
     inkscape:zoom="0.4609375"
     inkscape:cx="-145.35593"
     inkscape:cy="256"
     inkscape:window-x="0"
     inkscape:window-y="0"
     inkscape:window-maximized="1"
     inkscape:current-layer="svg10" />
  <path
     d="m256 0c-140.960938 0-256 115.050781-256 256 0 140.960938 115.050781 256 256 256 140.960938 0 256-115.050781 256-256 0-140.960938-115.050781-256-256-256zm0 482c-124.617188 0-226-101.382812-226-226s101.382812-226 226-226 226 101.382812 226 226-101.382812 226-226 226zm0 0"
     id="path2" />
  <path
     d="m99.066406 148.667969 5.195313 29.546875c109.394531-19.234375 220.378906-4.640625 317.398437 37.136718l11.863282-27.550781c-102.253907-44.035156-219.179688-59.402343-334.457032-39.132812zm0 0"
     id="path4" />
  <path
     d="m103.832031 239.34375-.765625.152344 5.890625 29.417968.757813-.152343c95.839844-19.128907 197.550781-7.15625 286.394531 33.710937l12.535156-27.253906c-94.550781-43.496094-202.796875-56.238281-304.8125-35.875zm0 0"
     id="path6" />
  <path
     d="m129.703125 326.050781 5.277344 29.53125c73.082031-13.058593 147.707031-4.347656 215.808593 25.203125l11.941407-27.523437c-73.539063-31.902344-154.121094-41.3125-233.027344-27.210938zm0 0"
     id="path8" />
</svg>
