<?xml version="1.0" encoding="UTF-8" standalone="no"?>
<svg
   xmlns:dc="http://purl.org/dc/elements/1.1/"
   xmlns:cc="http://creativecommons.org/ns#"
   xmlns:rdf="http://www.w3.org/1999/02/22-rdf-syntax-ns#"
   xmlns:svg="http://www.w3.org/2000/svg"
   xmlns="http://www.w3.org/2000/svg"
   xmlns:sodipodi="http://sodipodi.sourceforge.net/DTD/sodipodi-0.dtd"
   xmlns:inkscape="http://www.inkscape.org/namespaces/inkscape"
   id="Bold"
   enable-background="new 0 0 24 24"
   height="512"
   viewBox="0 0 24 24"
   width="512"
   version="1.1"
   sodipodi:docname="trello-circle.svg"
   inkscape:version="0.92.3 (2405546, 2018-03-11)">
  <metadata
     id="metadata9">
    <rdf:RDF>
      <cc:Work
         rdf:about="">
        <dc:format>image/svg+xml</dc:format>
        <dc:type
           rdf:resource="http://purl.org/dc/dcmitype/StillImage" />
        <dc:title></dc:title>
      </cc:Work>
    </rdf:RDF>
  </metadata>
  <defs
     id="defs7">
    <filter
       style="color-interpolation-filters:sRGB;"
       inkscape:label="Drop Shadow"
       id="filter857">
      <feFlood
         flood-opacity="0.498039"
         flood-color="rgb(0,0,0)"
         result="flood"
         id="feFlood847" />
      <feComposite
         in="flood"
         in2="SourceGraphic"
         operator="in"
         result="composite1"
         id="feComposite849" />
      <feGaussianBlur
         in="composite1"
         stdDeviation="0.5"
         result="blur"
         id="feGaussianBlur851" />
      <feOffset
         dx="1"
         dy="1"
         result="offset"
         id="feOffset853" />
      <feComposite
         in="SourceGraphic"
         in2="offset"
         operator="over"
         result="composite2"
         id="feComposite855" />
    </filter>
  </defs>
  <sodipodi:namedview
     pagecolor="#ffffff"
     bordercolor="#666666"
     borderopacity="1"
     objecttolerance="10"
     gridtolerance="10"
     guidetolerance="10"
     inkscape:pageopacity="0"
     inkscape:pageshadow="2"
     inkscape:window-width="1366"
     inkscape:window-height="743"
     id="namedview5"
     showgrid="false"
     inkscape:zoom="0.65186406"
     inkscape:cx="111.49414"
     inkscape:cy="243.26134"
     inkscape:window-x="0"
     inkscape:window-y="0"
     inkscape:window-maximized="1"
     inkscape:current-layer="g824"
     inkscape:showpageshadow="false" />
  <g
     id="g824"
     transform="matrix(0.61049203,0,0,0.61049203,4.9617323,4.0988223)">
    <circle
       style="opacity:1;fill:#0079bf;fill-opacity:1;fill-rule:nonzero;stroke:none;stroke-width:0.12285173;stroke-miterlimit:4;stroke-dasharray:none;stroke-opacity:1"
       id="path845"
       cx="11.661098"
       cy="12.927847"
       r="19.670742" />
    <path
       style="fill:#ffffff;fill-opacity:1;filter:url(#filter857)"
       id="path2"
       d="M 21.235578,1.5312553 H 3.2355777 c -1.657,0 -2.99999997,1.343 -2.99999997,3 V 22.531255 c 0,1.656 1.34299997,3 2.99999997,3 H 21.235578 c 1.656,0 3,-1.344 3,-3 V 4.5312553 c 0,-1.657 -1.344,-3 -3,-3 z m -10.56,18.1799997 c 0,0.795 -0.645,1.44 -1.4400003,1.44 h -4.44 c -0.795,0 -1.44,-0.646 -1.44,-1.44 V 6.0912553 c 0,-0.795 0.645,-1.44 1.44,-1.44 h 4.44 c 0.7950003,0 1.4400003,0.645 1.4400003,1.44 z m 10.44,-6 c 0,0.794 -0.645,1.44 -1.44,1.44 h -4.44 c -0.795,0 -1.44,-0.646 -1.44,-1.44 V 6.0912553 c 0,-0.795 0.646,-1.44 1.44,-1.44 h 4.44 c 0.795,0 1.44,0.645 1.44,1.44 z"
       inkscape:connector-curvature="0" />
  </g>
</svg>
