<?xml version="1.0" encoding="UTF-8" standalone="no"?>
<svg
   xmlns:dc="http://purl.org/dc/elements/1.1/"
   xmlns:cc="http://creativecommons.org/ns#"
   xmlns:rdf="http://www.w3.org/1999/02/22-rdf-syntax-ns#"
   xmlns:svg="http://www.w3.org/2000/svg"
   xmlns="http://www.w3.org/2000/svg"
   xmlns:sodipodi="http://sodipodi.sourceforge.net/DTD/sodipodi-0.dtd"
   xmlns:inkscape="http://www.inkscape.org/namespaces/inkscape"
   id="Bold"
   enable-background="new 0 0 24 24"
   height="512"
   viewBox="0 0 24 24"
   width="512"
   version="1.1"
   sodipodi:docname="trello-square.svg"
   inkscape:version="0.92.3 (2405546, 2018-03-11)">
  <metadata
     id="metadata9">
    <rdf:RDF>
      <cc:Work
         rdf:about="">
        <dc:format>image/svg+xml</dc:format>
        <dc:type
           rdf:resource="http://purl.org/dc/dcmitype/StillImage" />
        <dc:title></dc:title>
      </cc:Work>
    </rdf:RDF>
  </metadata>
  <defs
     id="defs7" />
  <sodipodi:namedview
     pagecolor="#ffffff"
     bordercolor="#666666"
     borderopacity="1"
     objecttolerance="10"
     gridtolerance="10"
     guidetolerance="10"
     inkscape:pageopacity="0"
     inkscape:pageshadow="2"
     inkscape:window-width="1366"
     inkscape:window-height="743"
     id="namedview5"
     showgrid="false"
     inkscape:zoom="0.65186406"
     inkscape:cx="-172.30736"
     inkscape:cy="243.26134"
     inkscape:window-x="0"
     inkscape:window-y="0"
     inkscape:window-maximized="1"
     inkscape:current-layer="Bold"
     inkscape:showpageshadow="false" />
  <g
     id="g824">
    <rect
       y="1.1328858"
       x="1.4381833"
       height="20.63793"
       width="21.069386"
       id="rect819"
       style="opacity:1;fill:#ffffff;fill-opacity:1;fill-rule:nonzero;stroke:none;stroke-width:0.075;stroke-miterlimit:4;stroke-dasharray:none;stroke-opacity:1" />
    <path
       style="fill:#0079bf;fill-opacity:1"
       id="path2"
       d="m21 0h-18c-1.657 0-3 1.343-3 3v18c0 1.656 1.343 3 3 3h18c1.656 0 3-1.344 3-3v-18c0-1.657-1.344-3-3-3zm-10.56 18.18c0 .795-.645 1.44-1.44 1.44h-4.44c-.795 0-1.44-.646-1.44-1.44v-13.62c0-.795.645-1.44 1.44-1.44h4.44c.795 0 1.44.645 1.44 1.44zm10.44-6c0 .794-.645 1.44-1.44 1.44h-4.44c-.795 0-1.44-.646-1.44-1.44v-7.62c0-.795.646-1.44 1.44-1.44h4.44c.795 0 1.44.645 1.44 1.44z" />
  </g>
</svg>
