<?xml version="1.0" encoding="UTF-8" standalone="no"?>
<svg
   xmlns:dc="http://purl.org/dc/elements/1.1/"
   xmlns:cc="http://creativecommons.org/ns#"
   xmlns:rdf="http://www.w3.org/1999/02/22-rdf-syntax-ns#"
   xmlns:svg="http://www.w3.org/2000/svg"
   xmlns="http://www.w3.org/2000/svg"
   xmlns:sodipodi="http://sodipodi.sourceforge.net/DTD/sodipodi-0.dtd"
   xmlns:inkscape="http://www.inkscape.org/namespaces/inkscape"
   id="Layer_1"
   data-name="Layer 1"
   viewBox="0 0 512 512"
   version="1.1"
   sodipodi:docname="tumblr-circle.svg"
   inkscape:version="0.92.3 (2405546, 2018-03-11)">
  <metadata
     id="metadata14">
    <rdf:RDF>
      <cc:Work
         rdf:about="">
        <dc:format>image/svg+xml</dc:format>
        <dc:type
           rdf:resource="http://purl.org/dc/dcmitype/StillImage" />
      </cc:Work>
    </rdf:RDF>
  </metadata>
  <defs
     id="defs12">
    <filter
       style="color-interpolation-filters:sRGB;"
       inkscape:label="Drop Shadow"
       id="filter831">
      <feFlood
         flood-opacity="0.498039"
         flood-color="rgb(0,0,0)"
         result="flood"
         id="feFlood821" />
      <feComposite
         in="flood"
         in2="SourceGraphic"
         operator="in"
         result="composite1"
         id="feComposite823" />
      <feGaussianBlur
         in="composite1"
         stdDeviation="1"
         result="blur"
         id="feGaussianBlur825" />
      <feOffset
         dx="2"
         dy="2"
         result="offset"
         id="feOffset827" />
      <feComposite
         in="SourceGraphic"
         in2="offset"
         operator="over"
         result="composite2"
         id="feComposite829" />
    </filter>
  </defs>
  <sodipodi:namedview
     pagecolor="#ffffff"
     bordercolor="#666666"
     borderopacity="1"
     objecttolerance="10"
     gridtolerance="10"
     guidetolerance="10"
     inkscape:pageopacity="0"
     inkscape:pageshadow="2"
     inkscape:window-width="1366"
     inkscape:window-height="743"
     id="namedview10"
     showgrid="false"
     inkscape:zoom="0.4609375"
     inkscape:cx="28.20339"
     inkscape:cy="256"
     inkscape:window-x="0"
     inkscape:window-y="0"
     inkscape:window-maximized="1"
     inkscape:current-layer="Tumblr" />
  <title
     id="title2">tumbler-flat</title>
  <g
     id="Tumblr">
    <circle
       id="back"
       cx="256"
       cy="256"
       r="256"
       fill="#3b445c"
       style="fill:#2c4762;fill-opacity:1" />
    <g
       id="Tumblr-2"
       data-name="Tumblr"
       style="filter:url(#filter831)">
      <path
         d="M294.5,409.6c30.74,0,61.2-10.95,71.27-24.2l2-2.66-19.05-56.48a1.28,1.28,0,0,0-1.22-.87H305a1.27,1.27,0,0,1-1.25-.93,29.61,29.61,0,0,1-.84-7V248.36a1.28,1.28,0,0,1,1.29-1.28h50.08a1.29,1.29,0,0,0,1.29-1.29V175.13a1.29,1.29,0,0,0-1.29-1.28H304.37a1.29,1.29,0,0,1-1.28-1.29V103.68a1.29,1.29,0,0,0-1.29-1.28H214.35a14.86,14.86,0,0,0-14.53,13.23c-4.37,35.55-20.67,56.88-51.31,67.13l-3.42,1.14a1.28,1.28,0,0,0-.88,1.22v60.67a1.29,1.29,0,0,0,1.29,1.29h31.3V321.8C176.79,381.46,218.11,409.6,294.5,409.6Zm58.57-28.84c-9.59,9.23-29.28,16.08-48.15,16.39l-2.11,0h0c-62.06,0-78.62-47.38-78.62-75.37v-86a1.29,1.29,0,0,0-1.29-1.29h-30a1.28,1.28,0,0,1-1.29-1.28V194a1.27,1.27,0,0,1,.82-1.18c32.07-12.49,50-37.3,54.7-75.67a2.25,2.25,0,0,1,2-2.2h40.06a1.29,1.29,0,0,1,1.29,1.29v68.88a1.28,1.28,0,0,0,1.29,1.28h49.87a1.28,1.28,0,0,1,1.28,1.29v45.5a1.28,1.28,0,0,1-1.28,1.28H291.57a1.29,1.29,0,0,0-1.29,1.29v81.75c.3,18.41,9.2,27.74,26.48,27.74a64.57,64.57,0,0,0,22.21-4.4,1.27,1.27,0,0,1,1.66.77l12.74,37.77A1.29,1.29,0,0,1,353.07,380.77Z"
         fill="#fff"
         id="path5" />
    </g>
  </g>
</svg>
