<?xml version="1.0" encoding="UTF-8" standalone="no"?>
<!-- Generator: Adobe Illustrator 19.0.0, SVG Export Plug-In . SVG Version: 6.00 Build 0)  -->

<svg
   xmlns:dc="http://purl.org/dc/elements/1.1/"
   xmlns:cc="http://creativecommons.org/ns#"
   xmlns:rdf="http://www.w3.org/1999/02/22-rdf-syntax-ns#"
   xmlns:svg="http://www.w3.org/2000/svg"
   xmlns="http://www.w3.org/2000/svg"
   xmlns:sodipodi="http://sodipodi.sourceforge.net/DTD/sodipodi-0.dtd"
   xmlns:inkscape="http://www.inkscape.org/namespaces/inkscape"
   version="1.1"
   id="Layer_1"
   x="0px"
   y="0px"
   viewBox="0 0 512 512"
   xml:space="preserve"
   sodipodi:docname="twitter.svg"
   width="512"
   height="512"
   inkscape:version="0.92.3 (2405546, 2018-03-11)"><metadata
   id="metadata43"><rdf:RDF><cc:Work
       rdf:about=""><dc:format>image/svg+xml</dc:format><dc:type
         rdf:resource="http://purl.org/dc/dcmitype/StillImage" /><dc:title></dc:title></cc:Work></rdf:RDF></metadata><defs
   id="defs41" /><sodipodi:namedview
   pagecolor="#ffffff"
   bordercolor="#666666"
   borderopacity="1"
   objecttolerance="10"
   gridtolerance="10"
   guidetolerance="10"
   inkscape:pageopacity="0"
   inkscape:pageshadow="2"
   inkscape:window-width="1366"
   inkscape:window-height="743"
   id="namedview39"
   showgrid="false"
   inkscape:showpageshadow="false"
   inkscape:zoom="0.46159474"
   inkscape:cx="217.72345"
   inkscape:cy="255.6355"
   inkscape:window-x="0"
   inkscape:window-y="0"
   inkscape:window-maximized="1"
   inkscape:current-layer="Layer_1" />
<g
   id="g6"
   transform="translate(0,0.72900391)">
	<g
   id="g4">
		<path
   d="M 508.342,94.243 C 505.739,91.64 501.4,90.772 497.928,91.64 l -17.356,6.075 c 10.414,-12.149 17.356,-25.166 21.695,-37.315 1.736,-4.339 0.868,-7.81 -1.736,-10.414 -2.603,-2.603 -6.942,-3.471 -10.414,-1.736 -24.298,10.414 -45.125,19.092 -62.481,24.298 0,0.868 -0.868,0 -1.736,0 -13.885,-7.81 -47.729,-25.166 -72.027,-25.166 -61.614,0.868 -111.078,52.936 -111.078,116.285 v 3.471 C 152.544,149.782 103.08,123.748 49.276,67.341 L 40.6,58.663 35.393,69.077 c -29.505,56.407 -8.678,107.607 25.166,142.319 -15.62,-2.603 -26.034,-7.81 -35.58,-15.62 -3.471,-2.603 -7.81,-3.471 -12.149,-0.868 -3.471,1.736 -5.207,6.942 -4.339,11.281 12.149,40.786 42.522,73.763 75.498,93.722 -15.62,0 -28.637,-1.736 -41.654,-10.414 -3.471,-1.736 -8.678,-1.736 -12.149,0.868 -3.471,2.604 -5.207,6.942 -3.471,11.281 15.62,44.258 45.993,67.688 94.59,73.763 -25.166,14.753 -58.142,26.902 -109.342,27.77 -5.207,0 -9.546,3.471 -11.281,7.81 -1.736,5.207 0,9.546 3.471,13.017 31.241,25.166 100.664,39.919 186.576,39.919 152.732,0 277.695,-136.244 277.695,-303.729 v -2.603 c 19.092,-9.546 34.712,-27.77 42.522,-52.936 0.867,-3.472 -0.001,-7.811 -2.604,-10.414 z m -52.068,49.464 -5.207,1.736 v 14.753 c 0,157.939 -117.153,286.373 -260.339,286.373 -78.97,0 -131.905,-13.017 -160.542,-26.902 59.878,-4.339 94.59,-23.431 121.492,-44.258 l 21.695,-15.62 h -26.034 c -49.464,0 -79.837,-13.885 -97.193,-46.861 15.62,5.207 32.108,5.207 50.332,4.339 6.942,-0.868 13.885,-0.868 20.827,-0.868 l 2.603,-17.356 c -32.976,-9.546 -72.027,-39.051 -91.119,-78.969 17.356,7.81 36.447,9.546 53.803,9.546 h 26.902 L 91.8,213.999 C 73.576,200.982 19.773,154.989 45.807,89.036 c 55.539,54.671 108.475,79.837 203.932,97.193 l 10.414,1.736 v -24.298 c 0,-53.803 41.654,-98.061 93.722,-98.929 19.959,-0.868 52.936,17.356 62.481,22.563 5.207,2.603 10.414,3.471 15.62,1.736 13.017,-4.339 28.637,-10.414 45.993,-17.356 -7.81,13.017 -18.224,25.166 -32.108,36.448 -3.471,2.603 -4.339,7.81 -2.603,12.149 1.736,4.339 6.942,6.075 11.281,4.339 l 33.844,-11.281 c -6.075,11.28 -15.621,24.297 -32.109,30.371 z"
   id="path2"
   inkscape:connector-curvature="0" />
	</g>
</g>
<g
   id="g8"
   transform="translate(0,0.72900391)">
</g>
<g
   id="g10"
   transform="translate(0,0.72900391)">
</g>
<g
   id="g12"
   transform="translate(0,0.72900391)">
</g>
<g
   id="g14"
   transform="translate(0,0.72900391)">
</g>
<g
   id="g16"
   transform="translate(0,0.72900391)">
</g>
<g
   id="g18"
   transform="translate(0,0.72900391)">
</g>
<g
   id="g20"
   transform="translate(0,0.72900391)">
</g>
<g
   id="g22"
   transform="translate(0,0.72900391)">
</g>
<g
   id="g24"
   transform="translate(0,0.72900391)">
</g>
<g
   id="g26"
   transform="translate(0,0.72900391)">
</g>
<g
   id="g28"
   transform="translate(0,0.72900391)">
</g>
<g
   id="g30"
   transform="translate(0,0.72900391)">
</g>
<g
   id="g32"
   transform="translate(0,0.72900391)">
</g>
<g
   id="g34"
   transform="translate(0,0.72900391)">
</g>
<g
   id="g36"
   transform="translate(0,0.72900391)">
</g>
</svg>