<?xml version="1.0" encoding="UTF-8" standalone="no"?>
<!-- Generator: Adobe Illustrator 19.0.0, SVG Export Plug-In . SVG Version: 6.00 Build 0)  -->

<svg
   xmlns:dc="http://purl.org/dc/elements/1.1/"
   xmlns:cc="http://creativecommons.org/ns#"
   xmlns:rdf="http://www.w3.org/1999/02/22-rdf-syntax-ns#"
   xmlns:svg="http://www.w3.org/2000/svg"
   xmlns="http://www.w3.org/2000/svg"
   xmlns:sodipodi="http://sodipodi.sourceforge.net/DTD/sodipodi-0.dtd"
   xmlns:inkscape="http://www.inkscape.org/namespaces/inkscape"
   version="1.1"
   id="Layer_1"
   x="0px"
   y="0px"
   viewBox="0 0 512 512"
   style="enable-background:new 0 0 512 512;"
   xml:space="preserve"
   sodipodi:docname="viber-circle.svg"
   inkscape:version="0.92.3 (2405546, 2018-03-11)"><metadata
   id="metadata83"><rdf:RDF><cc:Work
       rdf:about=""><dc:format>image/svg+xml</dc:format><dc:type
         rdf:resource="http://purl.org/dc/dcmitype/StillImage" /><dc:title></dc:title></cc:Work></rdf:RDF></metadata><defs
   id="defs81"><filter
     style="color-interpolation-filters:sRGB;"
     inkscape:label="Drop Shadow"
     id="filter900"><feFlood
       flood-opacity="0.498039"
       flood-color="rgb(0,0,0)"
       result="flood"
       id="feFlood890" /><feComposite
       in="flood"
       in2="SourceGraphic"
       operator="in"
       result="composite1"
       id="feComposite892" /><feGaussianBlur
       in="composite1"
       stdDeviation="0.5"
       result="blur"
       id="feGaussianBlur894" /><feOffset
       dx="1"
       dy="1"
       result="offset"
       id="feOffset896" /><feComposite
       in="SourceGraphic"
       in2="offset"
       operator="over"
       result="composite2"
       id="feComposite898" /></filter></defs><sodipodi:namedview
   pagecolor="#ffffff"
   bordercolor="#666666"
   borderopacity="1"
   objecttolerance="10"
   gridtolerance="10"
   guidetolerance="10"
   inkscape:pageopacity="0"
   inkscape:pageshadow="2"
   inkscape:window-width="1366"
   inkscape:window-height="743"
   id="namedview79"
   showgrid="false"
   inkscape:zoom="0.921875"
   inkscape:cx="246.04827"
   inkscape:cy="270.656"
   inkscape:window-x="0"
   inkscape:window-y="0"
   inkscape:window-maximized="1"
   inkscape:current-layer="Layer_1"
   inkscape:showpageshadow="false" />
<circle
   style="fill:#59267c;fill-opacity:1"
   cx="256"
   cy="256"
   r="256"
   id="circle2" />

<g
   id="g16"
   style="filter:url(#filter900)">
	<path
   style="fill:#FFFFFF;"
   d="M391.427,179.924l-0.084-0.338c-6.84-27.653-37.678-57.325-65.998-63.498l-0.319-0.066   c-45.806-8.738-92.251-8.738-138.047,0l-0.329,0.066c-28.31,6.173-59.149,35.847-65.998,63.498l-0.076,0.338   c-8.456,38.617-8.456,77.781,0,116.398l0.076,0.338c6.558,26.472,35.099,54.782,62.362,62.567v30.868   c0,11.173,13.615,16.66,21.357,8.597l31.275-32.509c6.784,0.379,13.571,0.591,20.356,0.591c23.057,0,46.125-2.181,69.023-6.549   l0.319-0.066c28.32-6.173,59.158-35.847,65.998-63.498l0.084-0.338C399.882,257.705,399.882,218.543,391.427,179.924z    M366.676,290.723c-4.567,18.041-27.981,40.469-46.585,44.613c-24.355,4.632-48.904,6.611-73.428,5.932   c-0.488-0.014-0.957,0.176-1.296,0.526c-3.481,3.572-22.835,23.442-22.835,23.442l-24.288,24.928   c-1.776,1.852-4.896,0.591-4.896-1.964v-51.136c0-0.845-0.603-1.562-1.433-1.726c-0.005-0.002-0.009-0.002-0.014-0.003   c-18.604-4.144-42.01-26.572-46.585-44.613c-7.611-34.906-7.611-70.292,0-105.198c4.575-18.041,27.981-40.469,46.585-44.613   c42.536-8.09,85.664-8.09,128.191,0c18.613,4.144,42.018,26.572,46.585,44.613C374.296,220.431,374.296,255.817,366.676,290.723z"
   id="path6" />
	<path
   style="fill:#FFFFFF;"
   d="M296.47,314.327c-2.86-0.869-5.585-1.452-8.118-2.501c-26.231-10.883-50.371-24.923-69.492-46.444   c-10.874-12.238-19.385-26.055-26.579-40.677c-3.412-6.934-6.287-14.139-9.218-21.299c-2.672-6.528,1.264-13.272,5.408-18.192   c3.889-4.617,8.894-8.149,14.314-10.754c4.23-2.032,8.402-0.86,11.492,2.725c6.678,7.752,12.814,15.9,17.78,24.886   c3.055,5.527,2.217,12.283-3.32,16.044c-1.346,0.914-2.572,1.988-3.825,3.02c-1.1,0.905-2.134,1.819-2.888,3.044   c-1.377,2.241-1.443,4.886-0.557,7.323c6.827,18.761,18.334,33.351,37.219,41.21c3.022,1.257,6.056,2.72,9.538,2.315   c5.83-0.681,7.718-7.077,11.804-10.418c3.993-3.265,9.097-3.308,13.398-0.586c4.303,2.724,8.473,5.646,12.619,8.601   c4.07,2.9,8.121,5.735,11.874,9.042c3.61,3.179,4.853,7.349,2.82,11.662c-3.72,7.901-9.135,14.472-16.944,18.668   C301.59,313.178,298.956,313.561,296.47,314.327C293.61,313.458,298.956,313.561,296.47,314.327z"
   id="path8" />
	<path
   style="fill:#FFFFFF;"
   d="M256.071,165.426c34.309,0.962,62.49,23.731,68.529,57.651c1.029,5.78,1.395,11.688,1.853,17.555   c0.193,2.467-1.205,4.811-3.867,4.844c-2.75,0.033-3.987-2.269-4.167-4.734c-0.353-4.882-0.598-9.787-1.271-14.627   c-3.551-25.559-23.931-46.704-49.371-51.241c-3.829-0.683-7.745-0.862-11.624-1.269c-2.451-0.257-5.661-0.405-6.204-3.453   c-0.455-2.555,1.701-4.589,4.134-4.72C254.742,165.393,255.407,165.424,256.071,165.426   C290.382,166.388,255.407,165.424,256.071,165.426z"
   id="path10" />
	<path
   style="fill:#FFFFFF;"
   d="M308.212,233.019c-0.057,0.429-0.086,1.436-0.338,2.384c-0.91,3.444-6.134,3.875-7.335,0.4   c-0.357-1.031-0.41-2.205-0.412-3.315c-0.012-7.266-1.591-14.526-5.256-20.849c-3.767-6.499-9.523-11.96-16.272-15.267   c-4.082-1.998-8.495-3.241-12.969-3.98c-1.955-0.324-3.931-0.519-5.896-0.793c-2.381-0.331-3.653-1.848-3.539-4.194   c0.105-2.198,1.712-3.781,4.108-3.644c7.873,0.446,15.479,2.15,22.48,5.856c14.234,7.539,22.366,19.437,24.74,35.326   c0.107,0.721,0.279,1.433,0.334,2.155C307.991,228.88,308.076,230.665,308.212,233.019   C308.155,233.446,308.076,230.665,308.212,233.019z"
   id="path12" />
	<path
   style="fill:#FFFFFF;"
   d="M286.872,232.188c-2.87,0.052-4.406-1.538-4.703-4.168c-0.205-1.834-0.369-3.694-0.807-5.48   c-0.862-3.517-2.731-6.775-5.689-8.93c-1.396-1.017-2.979-1.758-4.636-2.238c-2.105-0.609-4.293-0.441-6.392-0.955   c-2.281-0.559-3.543-2.407-3.184-4.546c0.326-1.948,2.22-3.468,4.349-3.313c13.302,0.96,22.809,7.837,24.166,23.497   c0.097,1.105,0.209,2.272-0.036,3.331C289.518,231.193,288.178,232.1,286.872,232.188   C284.001,232.239,288.178,232.1,286.872,232.188z"
   id="path14" />
</g>

<path
   style="fill:#FFFFFF;"
   d="M296.47,314.327C298.956,313.561,293.61,313.458,296.47,314.327L296.47,314.327z"
   id="path20" />

<g
   id="g28">
	<path
   style="fill:#FFFFFF;"
   d="M256.159,165.431c-0.029,0-0.057-0.003-0.086-0.003   C256.045,165.426,256.081,165.428,256.159,165.431z"
   id="path24" />
	<path
   style="fill:#FFFFFF;"
   d="M256.072,165.426c0.029,0,0.057,0.003,0.086,0.003C258.062,165.497,289.03,166.35,256.072,165.426z"
   id="path26" />
</g>

<g
   id="g44">
	<path
   style="fill:#FFFFFF;"
   d="M308.212,233.019C308.076,230.665,308.155,233.446,308.212,233.019L308.212,233.019z"
   id="path36" />
	<path
   style="fill:#FFFFFF;"
   d="M286.872,232.188c0.045-0.003,0.088-0.026,0.131-0.031c-0.121,0-0.307,0.003-0.498,0.01   C286.629,232.17,286.742,232.189,286.872,232.188z"
   id="path38" />
	<path
   style="fill:#FFFFFF;"
   d="M286.872,232.188c-0.129,0.002-0.243-0.017-0.367-0.021   C285.884,232.184,285.243,232.217,286.872,232.188z"
   id="path40" />
	<path
   style="fill:#FFFFFF;"
   d="M287.003,232.157c-0.045,0.005-0.088,0.028-0.131,0.031   C287.208,232.165,287.179,232.157,287.003,232.157z"
   id="path42" />
</g>

<g
   id="g48">
</g>
<g
   id="g50">
</g>
<g
   id="g52">
</g>
<g
   id="g54">
</g>
<g
   id="g56">
</g>
<g
   id="g58">
</g>
<g
   id="g60">
</g>
<g
   id="g62">
</g>
<g
   id="g64">
</g>
<g
   id="g66">
</g>
<g
   id="g68">
</g>
<g
   id="g70">
</g>
<g
   id="g72">
</g>
<g
   id="g74">
</g>
<g
   id="g76">
</g>
</svg>