<?xml version="1.0" encoding="UTF-8" standalone="no"?>
<!-- Generator: Adobe Illustrator 18.0.0, SVG Export Plug-In . SVG Version: 6.00 Build 0)  -->

<svg
   xmlns:dc="http://purl.org/dc/elements/1.1/"
   xmlns:cc="http://creativecommons.org/ns#"
   xmlns:rdf="http://www.w3.org/1999/02/22-rdf-syntax-ns#"
   xmlns:svg="http://www.w3.org/2000/svg"
   xmlns="http://www.w3.org/2000/svg"
   xmlns:sodipodi="http://sodipodi.sourceforge.net/DTD/sodipodi-0.dtd"
   xmlns:inkscape="http://www.inkscape.org/namespaces/inkscape"
   version="1.1"
   id="Capa_1"
   x="0px"
   y="0px"
   viewBox="0 0 512.00001 512.00001"
   xml:space="preserve"
   sodipodi:docname="viber-square.svg"
   width="512"
   height="512"
   inkscape:version="0.92.3 (2405546, 2018-03-11)"><metadata
   id="metadata53"><rdf:RDF><cc:Work
       rdf:about=""><dc:format>image/svg+xml</dc:format><dc:type
         rdf:resource="http://purl.org/dc/dcmitype/StillImage" /><dc:title></dc:title></cc:Work></rdf:RDF></metadata><defs
   id="defs51" /><sodipodi:namedview
   pagecolor="#ffffff"
   bordercolor="#666666"
   borderopacity="1"
   objecttolerance="10"
   gridtolerance="10"
   guidetolerance="10"
   inkscape:pageopacity="0"
   inkscape:pageshadow="2"
   inkscape:window-width="1366"
   inkscape:window-height="743"
   id="namedview49"
   showgrid="false"
   inkscape:showpageshadow="false"
   inkscape:zoom="0.51784936"
   inkscape:cx="194.07188"
   inkscape:cy="227.86549"
   inkscape:window-x="0"
   inkscape:window-y="0"
   inkscape:window-maximized="1"
   inkscape:current-layer="Capa_1" />
<g
   id="g16"
   transform="matrix(1.1271186,0,0,1.1228814,0,0.26817031)">
	<rect
   x="0"
   y="0"
   style="fill:#7d3daf"
   width="455.73099"
   height="455.73099"
   id="rect2" />
	<g
   id="g14">
		<path
   style="fill:#ffffff"
   d="m 371.996,146.901 -0.09,-0.36 c -7.28,-29.43 -40.1,-61.01 -70.24,-67.58 l -0.34,-0.07 c -48.75,-9.3 -98.18,-9.3 -146.92,0 l -0.35,0.07 c -30.13,6.57 -62.95,38.15 -70.24,67.58 l -0.08,0.36 c -9,41.1 -9,82.78 0,123.88 l 0.08,0.36 c 6.979,28.174 37.355,58.303 66.37,66.589 v 32.852 c 0,11.89 14.49,17.73 22.73,9.15 l 33.285,-34.599 c 7.219,0.404 14.442,0.629 21.665,0.629 24.54,0 49.09,-2.32 73.46,-6.97 l 0.34,-0.07 c 30.14,-6.57 62.96,-38.15 70.24,-67.58 l 0.09,-0.36 c 9,-41.101 9,-82.781 0,-123.881 z m -26.34,117.92 c -4.86,19.2 -29.78,43.07 -49.58,47.48 -25.921,4.929 -52.047,7.036 -78.147,6.313 -0.519,-0.014 -1.018,0.187 -1.38,0.559 -3.704,3.802 -24.303,24.948 -24.303,24.948 l -25.85,26.53 c -1.89,1.97 -5.21,0.63 -5.21,-2.09 v -54.422 c 0,-0.899 -0.642,-1.663 -1.525,-1.836 -0.005,-10e-4 -0.01,-0.002 -0.015,-0.003 -19.8,-4.41 -44.71,-28.28 -49.58,-47.48 -8.1,-37.15 -8.1,-74.81 0,-111.96 4.87,-19.2 29.78,-43.07 49.58,-47.48 45.27,-8.61 91.17,-8.61 136.43,0 19.81,4.41 44.72,28.28 49.58,47.48 8.109,37.151 8.109,74.811 0,111.961 z"
   id="path4"
   inkscape:connector-curvature="0" />
		<path
   style="fill:#ffffff"
   d="m 270.937,289.942 c -3.044,-0.924 -5.945,-1.545 -8.639,-2.663 -27.916,-11.582 -53.608,-26.524 -73.959,-49.429 -11.573,-13.025 -20.631,-27.73 -28.288,-43.292 -3.631,-7.38 -6.691,-15.049 -9.81,-22.668 -2.844,-6.948 1.345,-14.126 5.756,-19.361 4.139,-4.913 9.465,-8.673 15.233,-11.444 4.502,-2.163 8.943,-0.916 12.231,2.9 7.108,8.25 13.637,16.922 18.924,26.485 3.251,5.882 2.359,13.072 -3.533,17.075 -1.432,0.973 -2.737,2.115 -4.071,3.214 -1.17,0.963 -2.271,1.936 -3.073,3.24 -1.466,2.386 -1.536,5.2 -0.592,7.794 7.266,19.968 19.513,35.495 39.611,43.858 3.216,1.338 6.446,2.896 10.151,2.464 6.205,-0.725 8.214,-7.531 12.562,-11.087 4.25,-3.475 9.681,-3.521 14.259,-0.624 4.579,2.898 9.018,6.009 13.43,9.153 4.331,3.086 8.643,6.105 12.638,9.623 3.841,3.383 5.164,7.821 3.001,12.412 -3.96,8.408 -9.722,15.403 -18.034,19.868 -2.347,1.259 -5.15,1.667 -7.797,2.482 -3.044,-0.925 2.647,-0.815 0,0 z"
   id="path6"
   inkscape:connector-curvature="0" />
		<path
   style="fill:#ffffff"
   d="m 227.942,131.471 c 36.515,1.023 66.506,25.256 72.933,61.356 1.095,6.151 1.485,12.44 1.972,18.683 0.205,2.626 -1.282,5.121 -4.116,5.155 -2.927,0.035 -4.244,-2.414 -4.434,-5.039 -0.376,-5.196 -0.637,-10.415 -1.353,-15.568 -3.78,-27.201 -25.47,-49.705 -52.545,-54.534 -4.074,-0.727 -8.244,-0.918 -12.371,-1.351 -2.609,-0.274 -6.026,-0.432 -6.604,-3.675 -0.485,-2.719 1.81,-4.884 4.399,-5.023 0.704,-0.039 1.412,-0.007 2.119,-0.004 36.515,1.023 -0.707,-0.003 0,0 z"
   id="path8"
   inkscape:connector-curvature="0" />
		<path
   style="fill:#ffffff"
   d="m 283.434,203.407 c -0.06,0.456 -0.092,1.528 -0.359,2.538 -0.969,3.666 -6.527,4.125 -7.807,0.425 -0.379,-1.098 -0.436,-2.347 -0.438,-3.529 -0.013,-7.734 -1.694,-15.46 -5.594,-22.189 -4.009,-6.916 -10.134,-12.73 -17.318,-16.248 -4.344,-2.127 -9.042,-3.449 -13.803,-4.237 -2.081,-0.344 -4.184,-0.553 -6.275,-0.844 -2.534,-0.352 -3.887,-1.967 -3.767,-4.464 0.112,-2.34 1.822,-4.023 4.372,-3.879 8.38,0.476 16.474,2.287 23.924,6.232 15.15,8.023 23.804,20.687 26.33,37.597 0.114,0.766 0.298,1.525 0.356,2.294 0.143,1.899 0.233,3.8 0.379,6.304 -0.06,0.456 -0.146,-2.504 0,0 z"
   id="path10"
   inkscape:connector-curvature="0" />
		<path
   style="fill:#ffffff"
   d="m 260.722,202.523 c -3.055,0.055 -4.69,-1.636 -5.005,-4.437 -0.219,-1.953 -0.392,-3.932 -0.858,-5.832 -0.918,-3.742 -2.907,-7.21 -6.055,-9.503 -1.486,-1.083 -3.17,-1.872 -4.934,-2.381 -2.241,-0.647 -4.568,-0.469 -6.804,-1.017 -2.428,-0.595 -3.771,-2.561 -3.389,-4.839 0.347,-2.073 2.364,-3.691 4.629,-3.527 14.157,1.022 24.275,8.341 25.719,25.007 0.102,1.176 0.222,2.419 -0.039,3.544 -0.447,1.926 -1.873,2.891 -3.264,2.985 -3.055,0.055 1.391,-0.094 0,0 z"
   id="path12"
   inkscape:connector-curvature="0" />
	</g>
</g>
<g
   id="g18"
   transform="translate(0,56.269012)">
</g>
<g
   id="g20"
   transform="translate(0,56.269012)">
</g>
<g
   id="g22"
   transform="translate(0,56.269012)">
</g>
<g
   id="g24"
   transform="translate(0,56.269012)">
</g>
<g
   id="g26"
   transform="translate(0,56.269012)">
</g>
<g
   id="g28"
   transform="translate(0,56.269012)">
</g>
<g
   id="g30"
   transform="translate(0,56.269012)">
</g>
<g
   id="g32"
   transform="translate(0,56.269012)">
</g>
<g
   id="g34"
   transform="translate(0,56.269012)">
</g>
<g
   id="g36"
   transform="translate(0,56.269012)">
</g>
<g
   id="g38"
   transform="translate(0,56.269012)">
</g>
<g
   id="g40"
   transform="translate(0,56.269012)">
</g>
<g
   id="g42"
   transform="translate(0,56.269012)">
</g>
<g
   id="g44"
   transform="translate(0,56.269012)">
</g>
<g
   id="g46"
   transform="translate(0,56.269012)">
</g>
</svg>