<?xml version="1.0" encoding="UTF-8" standalone="no"?>
<svg
   xmlns:dc="http://purl.org/dc/elements/1.1/"
   xmlns:cc="http://creativecommons.org/ns#"
   xmlns:rdf="http://www.w3.org/1999/02/22-rdf-syntax-ns#"
   xmlns:svg="http://www.w3.org/2000/svg"
   xmlns="http://www.w3.org/2000/svg"
   xmlns:sodipodi="http://sodipodi.sourceforge.net/DTD/sodipodi-0.dtd"
   xmlns:inkscape="http://www.inkscape.org/namespaces/inkscape"
   id="Layer_1"
   data-name="Layer 1"
   viewBox="0 0 512 512"
   version="1.1"
   sodipodi:docname="vine-square.svg"
   inkscape:version="0.92.3 (2405546, 2018-03-11)">
  <metadata
     id="metadata14">
    <rdf:RDF>
      <cc:Work
         rdf:about="">
        <dc:format>image/svg+xml</dc:format>
        <dc:type
           rdf:resource="http://purl.org/dc/dcmitype/StillImage" />
        <dc:title>vine-square-flat</dc:title>
      </cc:Work>
    </rdf:RDF>
  </metadata>
  <defs
     id="defs12" />
  <sodipodi:namedview
     pagecolor="#ffffff"
     bordercolor="#666666"
     borderopacity="1"
     objecttolerance="10"
     gridtolerance="10"
     guidetolerance="10"
     inkscape:pageopacity="0"
     inkscape:pageshadow="2"
     inkscape:window-width="1366"
     inkscape:window-height="743"
     id="namedview10"
     showgrid="false"
     inkscape:showpageshadow="false"
     inkscape:zoom="0.4609375"
     inkscape:cx="218.0339"
     inkscape:cy="256"
     inkscape:window-x="0"
     inkscape:window-y="0"
     inkscape:window-maximized="1"
     inkscape:current-layer="Layer_1" />
  <title
     id="title2">vine-square-flat</title>
  <g
     id="Vine">
    <rect
       id="back"
       width="512"
       height="512"
       fill="#00b389" />
    <g
       id="Vine-2"
       data-name="Vine">
      <path
         d="M362.19,257.52c-33.81,0-69.05-17.95-68.15-64.67.38-20.13,7.78-30.6,18.79-30.6,10.46,0,17.45,9.4,17.45,28.45,0,10.84-2.91,22.71-5,29.73,0,0,10.42,18.18,38.91,12.61,6-13.44,9.34-30.84,9.34-46.09,0-41.06-20.93-64.95-59.31-64.95-39.45,0-62.53,30.33-62.53,70.32,0,39.61,18.52,73.62,49.06,89.1-12.84,25.69-29.18,48.31-46.22,65.38-30.91-37.38-58.86-87.24-70.33-184.54H138.53C159.61,324.3,222.41,375.89,239,385.8c9.39,5.64,17.48,5.37,26.07.54,13.48-7.67,54-48.14,76.4-95.55,3.69,0,16-.18,20.13-.53"
         fill="#fff"
         id="path5" />
    </g>
  </g>
</svg>
