<?xml version="1.0" encoding="UTF-8" standalone="no"?>
<!-- Generator: Adobe Illustrator 19.0.0, SVG Export Plug-In . SVG Version: 6.00 Build 0)  -->

<svg
   xmlns:dc="http://purl.org/dc/elements/1.1/"
   xmlns:cc="http://creativecommons.org/ns#"
   xmlns:rdf="http://www.w3.org/1999/02/22-rdf-syntax-ns#"
   xmlns:svg="http://www.w3.org/2000/svg"
   xmlns="http://www.w3.org/2000/svg"
   xmlns:sodipodi="http://sodipodi.sourceforge.net/DTD/sodipodi-0.dtd"
   xmlns:inkscape="http://www.inkscape.org/namespaces/inkscape"
   version="1.1"
   id="Layer_1"
   x="0px"
   y="0px"
   viewBox="0 0 512 512"
   xml:space="preserve"
   sodipodi:docname="vk-square.svg"
   width="512"
   height="512"
   inkscape:version="0.92.3 (2405546, 2018-03-11)"><metadata
   id="metadata39"><rdf:RDF><cc:Work
       rdf:about=""><dc:format>image/svg+xml</dc:format><dc:type
         rdf:resource="http://purl.org/dc/dcmitype/StillImage" /><dc:title /></cc:Work></rdf:RDF></metadata><defs
   id="defs37" /><sodipodi:namedview
   pagecolor="#ffffff"
   bordercolor="#666666"
   borderopacity="1"
   objecttolerance="10"
   gridtolerance="10"
   guidetolerance="10"
   inkscape:pageopacity="0"
   inkscape:pageshadow="2"
   inkscape:window-width="1366"
   inkscape:window-height="743"
   id="namedview35"
   showgrid="false"
   inkscape:showpageshadow="false"
   inkscape:zoom="2.9341046"
   inkscape:cx="328.83941"
   inkscape:cy="193.52954"
   inkscape:window-x="0"
   inkscape:window-y="0"
   inkscape:window-maximized="1"
   inkscape:current-layer="Layer_1" />
<path
   style="clip-rule:evenodd;fill:#4a76a8;fill-opacity:1;fill-rule:evenodd;stroke:none;stroke-width:1.13134801"
   d="M 0,-0.83898305 V 512 H 516.69492 V -0.83898305 Z M 387.34857,282.88721 c 11.86128,11.48534 24.40391,22.29892 35.05009,34.99591 4.70363,5.6108 9.15288,11.39855 12.54377,17.89977 4.81377,9.31451 0.45083,19.51944 -7.93212,20.08187 l -52.09534,-0.0225 c -13.44656,1.09669 -24.16202,-4.28418 -33.19907,-13.41497 -7.18603,-7.26991 -13.90307,-15.05154 -20.84041,-22.56829 -2.82308,-3.09507 -5.80856,-5.98951 -9.35615,-8.29785 -7.11677,-4.57723 -13.28985,-3.18749 -17.35754,4.16921 -4.13697,7.49421 -5.10903,15.8146 -5.4906,24.15979 -0.56666,12.18077 -4.26982,15.36714 -16.58761,15.95324 -26.35485,1.21165 -51.34925,-2.76257 -74.56192,-15.9307 C 177.02195,328.29548 161.15771,311.87111 147.34662,293.29957 120.4308,257.09201 99.816372,217.34192 81.307339,176.4478 c -4.183526,-9.21645 -1.127644,-14.15548 9.08361,-14.33357 17.022541,-0.33362 34.038271,-0.29305 51.036971,-0.0225 6.91462,0.11497 11.50242,4.03734 14.14721,10.52053 9.19944,22.43642 20.45204,43.78856 34.57654,63.59992 3.77813,5.27154 7.61984,10.52053 13.06387,14.24227 6.03454,4.12864 10.64618,2.77948 13.49198,-3.92801 1.81128,-4.2605 2.60392,-8.79152 2.98548,-13.34621 1.35362,-15.59143 1.51602,-31.19977 -0.81536,-46.74499 -1.44674,-9.71689 -6.98276,-15.99945 -16.74431,-17.83665 -4.97618,-0.94227 -4.2301,-2.75693 -1.83399,-5.58826 4.20623,-4.86351 8.16378,-7.89659 16.00392,-7.89659 h 58.8771 c 9.28574,1.79776 11.36842,5.94893 12.63007,15.21272 l 0.0465,64.94345 c -0.11015,3.58875 1.81127,14.2186 8.29664,16.57315 5.19535,1.70533 8.6555,-2.44697 11.77384,-5.72012 14.10066,-14.85092 24.16202,-32.41143 33.15251,-50.58171 3.98025,-7.98789 7.41769,-16.28573 10.76201,-24.59034 2.46424,-6.14506 6.30595,-9.17137 13.28985,-9.06204 l 56.68427,0.0688 c 1.67159,0 3.39088,0 5.03977,0.26938 9.53444,1.63657 12.15652,5.72012 9.19375,14.98278 -4.62867,14.51166 -13.69524,26.62818 -22.53016,38.76274 -9.47198,12.99004 -19.55038,25.52586 -28.95195,38.58465 -8.58736,11.95761 -7.91054,17.96966 2.78106,28.33013 z"
   id="path2"
   inkscape:connector-curvature="0" />
<g
   id="g4"
   transform="translate(0,57)">
</g>
<g
   id="g6"
   transform="translate(0,57)">
</g>
<g
   id="g8"
   transform="translate(0,57)">
</g>
<g
   id="g10"
   transform="translate(0,57)">
</g>
<g
   id="g12"
   transform="translate(0,57)">
</g>
<g
   id="g14"
   transform="translate(0,57)">
</g>
<g
   id="g16"
   transform="translate(0,57)">
</g>
<g
   id="g18"
   transform="translate(0,57)">
</g>
<g
   id="g20"
   transform="translate(0,57)">
</g>
<g
   id="g22"
   transform="translate(0,57)">
</g>
<g
   id="g24"
   transform="translate(0,57)">
</g>
<g
   id="g26"
   transform="translate(0,57)">
</g>
<g
   id="g28"
   transform="translate(0,57)">
</g>
<g
   id="g30"
   transform="translate(0,57)">
</g>
<g
   id="g32"
   transform="translate(0,57)">
</g>
<path
   style="opacity:1;fill:#ffffff;fill-opacity:1;fill-rule:nonzero;stroke:none;stroke-width:3.08474588;stroke-miterlimit:4;stroke-dasharray:none;stroke-opacity:1"
   d="M 242.51265,353.93757 C 200.012,347.97049 168.41477,324.1264 133.79326,271.89512 111.28858,237.94371 77.966571,171.93607 80.945127,167.20812 c 2.917615,-4.63122 63.093993,-5.82599 68.038943,-1.35087 1.77295,1.6045 9.46464,15.29104 17.09264,30.41454 35.58105,70.54409 54.70818,76.04909 54.70818,15.74565 0,-30.32214 -2.22758,-37.05625 -14.10739,-42.64748 l -7.6337,-3.59279 5.04375,-4.74346 c 4.88025,-4.58969 6.08689,-4.76302 37.2243,-5.34691 18.70271,-0.35071 34.33702,0.21644 37.32947,1.35417 7.62723,2.89986 9.21381,11.78696 9.22604,51.67885 0.01,34.21104 0.12474,35.21041 4.62436,40.4415 4.31939,5.02159 4.93902,5.18947 9.71664,2.63256 10.86289,-5.81364 36.81173,-46.00628 47.34402,-73.33202 2.24789,-5.83209 5.50691,-11.68829 7.24227,-13.01377 3.99118,-3.04849 70.20941,-3.41026 75.80767,-0.41415 9.11372,4.87752 0.61554,22.90577 -30.73687,65.20589 -18.92459,25.53271 -23.37293,32.76049 -23.37293,37.97698 0,5.66402 2.76563,9.19475 22.88342,29.21402 32.78176,32.62122 40.09575,45.55187 30.94277,54.70484 -3.8091,3.8091 -5.69305,3.97971 -37.11335,3.36108 -40.31938,-0.79386 -42.01302,-1.48357 -64.76117,-26.37314 -8.66595,-9.48176 -18.23944,-18.26812 -21.27441,-19.52524 -10.90656,-4.51764 -18.51113,4.73837 -20.64192,25.1246 -1.75301,16.772 -4.59273,19.50956 -21.00154,20.24602 -7.36319,0.33049 -18.61934,-0.13361 -25.01367,-1.03142 z"
   id="path827"
   inkscape:connector-curvature="0" /></svg>