<?xml version="1.0" encoding="UTF-8" standalone="no"?>
<svg
   xmlns:dc="http://purl.org/dc/elements/1.1/"
   xmlns:cc="http://creativecommons.org/ns#"
   xmlns:rdf="http://www.w3.org/1999/02/22-rdf-syntax-ns#"
   xmlns:svg="http://www.w3.org/2000/svg"
   xmlns="http://www.w3.org/2000/svg"
   xmlns:sodipodi="http://sodipodi.sourceforge.net/DTD/sodipodi-0.dtd"
   xmlns:inkscape="http://www.inkscape.org/namespaces/inkscape"
   viewBox="1 -104 512 512"
   version="1.1"
   id="svg4"
   sodipodi:docname="vk.svg"
   width="512"
   height="512"
   inkscape:version="0.92.3 (2405546, 2018-03-11)">
  <metadata
     id="metadata10">
    <rdf:RDF>
      <cc:Work
         rdf:about="">
        <dc:format>image/svg+xml</dc:format>
        <dc:type
           rdf:resource="http://purl.org/dc/dcmitype/StillImage" />
        <dc:title></dc:title>
      </cc:Work>
    </rdf:RDF>
  </metadata>
  <defs
     id="defs8" />
  <sodipodi:namedview
     pagecolor="#ffffff"
     bordercolor="#666666"
     borderopacity="1"
     objecttolerance="10"
     gridtolerance="10"
     guidetolerance="10"
     inkscape:pageopacity="0"
     inkscape:pageshadow="2"
     inkscape:window-width="800"
     inkscape:window-height="480"
     id="namedview6"
     showgrid="false"
     inkscape:showpageshadow="false"
     inkscape:zoom="0.46183953"
     inkscape:cx="28.647817"
     inkscape:cy="255.5"
     inkscape:window-x="0"
     inkscape:window-y="0"
     inkscape:window-maximized="0"
     inkscape:current-layer="svg4" />
  <path
     d="m 456.73828,203.10156 -0.27734,-0.25781 c -4.3711,-4.03516 -17.76172,-17.06641 -22.27735,-22.76172 -5.30078,-7.10547 -4.07812,-11.76172 -0.10547,-18.73828 5.01954,-8.81641 15.07813,-22.33984 25.72266,-36.66016 C 493.89453,78.832031 515.90625,47.089844 511.375,24.542969 L 508.93359,12.5 383.02344,12.554688 c -0.44141,1.1875 -7.01172,30.050781 -34.73828,79.199218 -20.10547,35.636724 -33.29297,46.832034 -37.9375,48.808594 l -0.71875,-0.21875 c -1.51172,-1.86719 -4.15235,-6.90625 -5.23829,-19.89453 -1.13281,-13.60547 -0.1289,-30.078126 0.84375,-46.007814 1.13672,-18.679687 2.11719,-34.8125 -0.23046,-46.355468 L 301.17969,9.28125 C 296.55859,8.542969 279.64062,2.015625 232.50391,1.519531 191.69531,1.101562 179.70703,6.996094 173.82031,12.191406 L 154.34766,29.375 l 24.61328,8.28125 c 9.36718,3.152344 12.47656,6.789062 15.02734,24.816406 1.66406,11.75 2.53516,31.496094 0.73828,49.125004 -2.58203,25.27734 -8.77344,29.98046 -9.09375,30.23046 -1.0664,-0.36328 -10.10937,-4.32031 -25.80859,-37.51171 C 148.93359,81.296875 139.38672,54.066406 132.41016,34.183594 124.42578,11.414062 125.86328,16.261719 121.8125,5.503906 L 0,5.5 7.882812,25.890625 C 40.746094,110.98047 70.898438,177.42969 111.25,225.15625 c 44.58203,52.73047 99.98828,80.33984 174.62109,80.33984 h 15 v -15 c 0,-14.02343 1.16016,-24.12109 3.64844,-31.77734 1.51953,-4.66406 3.53906,-8.51953 5.66016,-12.5625 3.14843,-5.95313 6.22656,-8.50391 7.90625,-8.88281 1.52343,-0.34766 4.20312,0.76953 7.17187,2.98437 8.52344,6.35547 15.28906,14.70703 22.45313,23.55078 10.33593,12.76172 21.02343,25.95313 37.98047,34.58985 9.26562,4.71875 26.25,7.10156 35.59765,7.10156 2.47266,0 90.60157,-0.004 90.71094,-0.004 l -0.64453,-15.61718 c -0.96094,-23.35157 -19.33985,-52.55078 -54.61719,-86.77735 z m -34.86719,72.39453 h -0.24218 c -6.44532,0.10547 -18.7461,-2.00781 -22.32422,-3.82812 -11.27344,-5.74219 -19.15235,-15.47266 -28.28125,-26.73828 -8.01172,-9.89453 -16.29688,-20.125 -27.83203,-28.72266 -9.32813,-6.95703 -17.80079,-8.99219 -24.52735,-8.99219 -2.6875,0 -5.10156,0.32422 -7.17187,0.79297 -7.8086,1.75781 -18.97657,7.375 -27.85547,24.16797 -2.50391,4.77734 -5.34375,10.1875 -7.64453,17.26563 -2.41016,7.40625 -3.91016,15.63671 -4.625,25.64843 C 215.125,271.89453 171.23828,249.64453 134.16016,205.78906 99.6875,165.01172 72.566406,107.97656 43.84375,35.488281 c 2.078125,0 54.152344,0.0078 57.22656,0.0078 0.94141,2.644531 1.95703,5.542968 3.03516,8.613281 7.51953,21.449219 17.82031,50.820313 29.95703,75.867188 17.37891,35.86719 33.25,51.86328 51.45703,51.86328 9.08984,0 17.24219,-3.85156 23.57422,-11.14453 9.02734,-10.39453 14.26953,-27.55078 16.02734,-52.45312 1.38672,-19.636724 0.0977,-39.195318 -1.42578,-49.972662 -1.25781,-8.867187 -3.05078,-18.175781 -7.42578,-26.515625 18.64453,-0.839844 43.60938,0.488282 59.42578,2.757813 1.4375,7.828125 0.5,23.214843 -0.40625,38.101562 -2.1914,35.960942 -4.45312,73.070312 14.58203,90.433592 3.34766,3.05469 6.89844,4.69141 7,4.75782 l 9.6875,2.97265 c 3.73828,-1.15234 25.39063,9.83203 66.39063,-61.71875 13.13672,-22.925781 25.36719,-49.343749 31.95312,-66.597655 15.27344,-0.03125 67.3086,0.02734 73.42188,0.03516 -8.66016,19.058594 -29.1836,46.242187 -42.59766,64.285155 -11.69531,15.72656 -21.79297,29.30859 -27.71875,39.71484 -11.00781,19.33203 -9.15625,36.5625 2.3086,51.76172 l 0.17968,0.23438 c 6.39844,8.14453 22.19922,23.22265 25.47657,26.26172 23.74218,23.05078 35.18359,39.60937 40.6289,50.73828 h -54.73047 z m 0,0"
     id="path2"
     inkscape:connector-curvature="0" />
</svg>
