<?xml version="1.0" encoding="UTF-8" standalone="no"?>
<svg
   xmlns:dc="http://purl.org/dc/elements/1.1/"
   xmlns:cc="http://creativecommons.org/ns#"
   xmlns:rdf="http://www.w3.org/1999/02/22-rdf-syntax-ns#"
   xmlns:svg="http://www.w3.org/2000/svg"
   xmlns="http://www.w3.org/2000/svg"
   xmlns:sodipodi="http://sodipodi.sourceforge.net/DTD/sodipodi-0.dtd"
   xmlns:inkscape="http://www.inkscape.org/namespaces/inkscape"
   enable-background="new 0 0 144.083 144"
   height="512"
   id="WeChat"
   version="1.1"
   viewBox="0 0 512.00003 512"
   width="512"
   xml:space="preserve"
   sodipodi:docname="wechat-circle.svg"
   inkscape:version="0.92.3 (2405546, 2018-03-11)"><metadata
     id="metadata17"><rdf:RDF><cc:Work
         rdf:about=""><dc:format>image/svg+xml</dc:format><dc:type
           rdf:resource="http://purl.org/dc/dcmitype/StillImage" /><dc:title></dc:title></cc:Work></rdf:RDF></metadata><defs
     id="defs15"><filter
       style="color-interpolation-filters:sRGB;"
       inkscape:label="Drop Shadow"
       id="filter853"><feFlood
         flood-opacity="0.498039"
         flood-color="rgb(0,0,0)"
         result="flood"
         id="feFlood843" /><feComposite
         in="flood"
         in2="SourceGraphic"
         operator="in"
         result="composite1"
         id="feComposite845" /><feGaussianBlur
         in="composite1"
         stdDeviation="0.5"
         result="blur"
         id="feGaussianBlur847" /><feOffset
         dx="1"
         dy="1"
         result="offset"
         id="feOffset849" /><feComposite
         in="SourceGraphic"
         in2="offset"
         operator="over"
         result="composite2"
         id="feComposite851" /></filter></defs><sodipodi:namedview
     pagecolor="#ffffff"
     bordercolor="#666666"
     borderopacity="1"
     objecttolerance="10"
     gridtolerance="10"
     guidetolerance="10"
     inkscape:pageopacity="0"
     inkscape:pageshadow="2"
     inkscape:window-width="1366"
     inkscape:window-height="743"
     id="namedview13"
     showgrid="false"
     inkscape:showpageshadow="false"
     inkscape:zoom="0.57943472"
     inkscape:cx="107.28924"
     inkscape:cy="348.54695"
     inkscape:window-x="0"
     inkscape:window-y="0"
     inkscape:window-maximized="1"
     inkscape:current-layer="WeChat" /><circle
     style="opacity:1;fill:#7bb32e;fill-opacity:1;fill-rule:nonzero;stroke:none;stroke-width:1.61084759;stroke-miterlimit:4;stroke-dasharray:none;stroke-opacity:1"
     id="path841"
     cx="257.14719"
     cy="254.85283"
     r="257.14716" /><g
     id="g828"
     transform="matrix(15.658248,0,0,13.835544,76.084009,91.726563)"
     style="fill:#ffffff;filter:url(#filter853)"><path
       id="path824"
       d="M 20.449,9.588 C 14.061,6.34 6.801,12.303 10.121,17.774 c 1.541,2.57 5.099,4.193 9.309,2.975 0.842,0.327 1.592,0.857 2.408,1.251 -0.211,-0.71 -0.436,-1.412 -0.676,-2.111 4.35,-3.099 3.398,-8.213 -0.713,-10.301 z m -5.099,3.688 c -0.209,0.655 -1.156,0.851 -1.615,0.353 -0.506,-0.461 -0.309,-1.424 0.355,-1.63 0.734,-0.31 1.582,0.541 1.26,1.277 z m 4.78,0.094 h 0.014 c -0.257,0.587 -1.141,0.725 -1.575,0.27 -0.209,-0.192 -0.27,-0.481 -0.344,-0.733 0.104,-0.46 0.42,-0.937 0.93,-0.959 0.705,-0.098 1.336,0.776 0.975,1.422 z"
       inkscape:connector-curvature="0"
       style="fill:#ffffff" /><path
       id="path826"
       d="m 17.414,8.248 c -0.436,-2.144 -1.936,-3.955 -3.824,-5 h 0.027 V 3.247 c -6.7,-3.786 -15.042,1.495 -13.43,7.723 0.433,1.848 1.711,3.397 3.262,4.431 -0.3,0.853 -0.585,1.706 -0.855,2.565 0.975,-0.512 1.95,-1.047 2.926,-1.567 1.17,0.377 2.415,0.561 3.66,0.52 -1.538,-4.412 2.407,-9.086 8.234,-8.671 z M 11.337,5.687 c 0.785,-0.316 1.713,0.345 1.651,1.19 L 12.99,6.889 C 12.998,7.854 11.715,8.456 10.995,7.802 10.248,7.264 10.46,5.957 11.337,5.687 Z M 6.932,7.134 C 6.76,7.972 5.641,8.377 4.986,7.814 4.227,7.277 4.44,5.946 5.331,5.675 6.204,5.337 7.196,6.227 6.932,7.134 Z"
       inkscape:connector-curvature="0"
       style="fill:#ffffff" /></g></svg>