<svg id="regular" enable-background="new 0 0 24 24" height="512" viewBox="0 0 24 24" width="512" xmlns="http://www.w3.org/2000/svg"><path d="m16.481 7.804c.088.405.487.664.892.573.405-.088.662-.488.573-.893-1.171-5.382-8.096-8.228-13.528-5.356-5.13 2.728-6.099 9.13-1.333 13.034-.209.663-.412 1.33-.609 1.998-.185.63.471 1.173 1.052.885.833-.411 1.672-.995 2.445-1.343.537.149 1.062.263 1.562.338.968.156 1.213-1.335.223-1.483-2.088-.314-1.47-.797-3.3.241.192-.615.465-1.128-.055-1.51-4.39-3.225-3.546-8.568.718-10.834 4.642-2.456 10.418.032 11.36 4.35z"/><path d="m20.284 9.744.001.001z"/><path d="m20.284 9.744c-3.816-1.986-7.709-.611-9.714 1.508-1.997 2.111-2.345 4.928-.909 7.35 1.465 2.497 4.88 4.439 9.276 3.254.622.285 1.268.728 1.965 1.072.581.288 1.236-.256 1.052-.882-.15-.516-.308-1.028-.473-1.538 1.756-1.459 2.666-3.414 2.514-5.436-.167-2.215-1.554-4.207-3.711-5.328zm-.123 9.892c-.404.295-.319.683-.199 1.054-.513-.269-.844-.447-1.187-.347-3.74 1.108-6.623-.457-7.821-2.502-1.099-1.852-.834-3.929.706-5.557 1.892-2 5.112-2.675 7.932-1.208h.001c1.692.88 2.778 2.417 2.906 4.11.127 1.677-.703 3.258-2.338 4.45z"/><path d="m3.913 6.628c0 .952.775 1.727 1.729 1.727s1.728-.774 1.728-1.727-.775-1.727-1.728-1.727-1.729.775-1.729 1.727zm1.957 0c0 .25-.457.25-.457 0 0-.3.457-.3.457 0z"/><path d="m9.782 6.628c0 .952.775 1.727 1.729 1.727s1.729-.774 1.729-1.727-.775-1.727-1.729-1.727-1.729.775-1.729 1.727zm1.957 0c0 .25-.457.25-.457 0 0-.3.457-.3.457 0z"/><path d="m13.468 12.715c-.953 0-1.729.775-1.729 1.727s.775 1.727 1.729 1.727c.952 0 1.728-.774 1.728-1.727s-.776-1.727-1.728-1.727zm-.229 1.727c0-.3.456-.301.456 0 0 .251-.456.249-.456 0z"/><path d="m19.337 12.715c-.953 0-1.729.775-1.729 1.727s.775 1.727 1.729 1.727 1.729-.774 1.729-1.727-.776-1.727-1.729-1.727zm-.229 1.727c0-.3.457-.3.457 0 0 .25-.457.25-.457 0z"/></svg>