<?xml version="1.0" encoding="UTF-8" standalone="no"?>
<!-- Generator: Adobe Illustrator 19.0.0, SVG Export Plug-In . SVG Version: 6.00 Build 0)  -->

<svg
   xmlns:dc="http://purl.org/dc/elements/1.1/"
   xmlns:cc="http://creativecommons.org/ns#"
   xmlns:rdf="http://www.w3.org/1999/02/22-rdf-syntax-ns#"
   xmlns:svg="http://www.w3.org/2000/svg"
   xmlns="http://www.w3.org/2000/svg"
   xmlns:sodipodi="http://sodipodi.sourceforge.net/DTD/sodipodi-0.dtd"
   xmlns:inkscape="http://www.inkscape.org/namespaces/inkscape"
   version="1.1"
   id="Layer_1"
   x="0px"
   y="0px"
   viewBox="0 0 512 512"
   style="enable-background:new 0 0 512 512;"
   xml:space="preserve"
   sodipodi:docname="wordpress-square.svg"
   inkscape:version="0.92.3 (2405546, 2018-03-11)"><metadata
   id="metadata43"><rdf:RDF><cc:Work
       rdf:about=""><dc:format>image/svg+xml</dc:format><dc:type
         rdf:resource="http://purl.org/dc/dcmitype/StillImage" /><dc:title></dc:title></cc:Work></rdf:RDF></metadata><defs
   id="defs41" /><sodipodi:namedview
   pagecolor="#ffffff"
   bordercolor="#666666"
   borderopacity="1"
   objecttolerance="10"
   gridtolerance="10"
   guidetolerance="10"
   inkscape:pageopacity="0"
   inkscape:pageshadow="2"
   inkscape:window-width="1366"
   inkscape:window-height="743"
   id="namedview39"
   showgrid="false"
   inkscape:showpageshadow="false"
   inkscape:zoom="0.4609375"
   inkscape:cx="-154.0339"
   inkscape:cy="256"
   inkscape:window-x="0"
   inkscape:window-y="0"
   inkscape:window-maximized="1"
   inkscape:current-layer="Layer_1" />
<rect
   style="opacity:1;fill:#21759b;fill-opacity:1;fill-rule:nonzero;stroke:none;stroke-width:1.60000002;stroke-miterlimit:4;stroke-dasharray:none;stroke-opacity:1"
   id="rect871"
   width="514.16949"
   height="516.33899"
   x="0"
   y="-2.1694915" /><g
   id="g6"
   transform="matrix(0.66525424,0,0,0.66714761,80.271183,98.22716)"
   style="fill:#ffffff">
	<g
   id="g4"
   style="fill:#ffffff">
		<path
   d="M 505.289,80.809 C 493.952,51.36 480.823,40.91 429.714,40.91 c -31.278,0 -54.857,23.579 -54.857,54.857 0,16.741 8.704,32.146 17.902,48.466 3.557,6.309 7.232,12.818 10.423,19.474 l 3.511,7.186 c 8.064,16.357 13.879,28.178 13.879,52.873 0,9.426 -1.874,20.645 -6.071,36.224 -0.101,0.229 -0.192,0.466 -0.283,0.713 L 383.771,351.2 304.841,128.773 c 2.286,-0.329 4.562,-0.603 6.839,-0.978 14.757,-0.439 26.606,-12.571 26.606,-27.419 0,-15.131 -12.297,-27.429 -27.429,-27.429 -0.494,0 -1.006,0.046 -1.499,0.119 -35.41,5.897 -71.305,5.897 -106.715,0 -0.485,-0.073 -0.997,-0.119 -1.499,-0.119 -15.122,0 -27.429,12.297 -27.429,27.429 0,14.848 11.858,26.981 26.615,27.419 3.154,0.512 6.318,0.933 9.49,1.362 l 36.471,94.811 -45.394,134.464 -82.359,-230.418 c 0.439,-0.082 0.869,-0.137 1.307,-0.219 14.665,-0.521 26.441,-12.617 26.441,-27.41 0,-15.131 -12.297,-27.429 -27.429,-27.429 -0.594,0 -1.198,0.055 -1.792,0.174 -29.138,5.824 -58.697,5.824 -87.835,0 C 28.636,73.011 28.032,72.956 27.429,72.956 12.306,72.955 0,85.253 0,100.384 0,115.031 11.557,126.99 26.021,127.73 l 111.881,307.026 c 6.208,17.399 20.626,30.4 38.574,34.798 4.27,1.033 8.558,1.536 12.8,1.536 23.049,0 44.562,-14.757 52.105,-37.394 l 51.493,-154.459 55.259,155.017 c 5.102,12.352 13.641,21.275 24.027,25.143 9.161,3.401 19.099,2.661 27.977,-1.838 11.84,-4.736 20.946,-14.373 24.987,-26.459 L 493.065,228.43 C 508.718,189.262 512,154.702 512,132.613 V 117.6 c 0,-12.818 -2.258,-25.198 -6.711,-36.791 z"
   id="path2"
   inkscape:connector-curvature="0"
   style="fill:#ffffff" />
	</g>
</g>
<g
   id="g8">
</g>
<g
   id="g10">
</g>
<g
   id="g12">
</g>
<g
   id="g14">
</g>
<g
   id="g16">
</g>
<g
   id="g18">
</g>
<g
   id="g20">
</g>
<g
   id="g22">
</g>
<g
   id="g24">
</g>
<g
   id="g26">
</g>
<g
   id="g28">
</g>
<g
   id="g30">
</g>
<g
   id="g32">
</g>
<g
   id="g34">
</g>
<g
   id="g36">
</g>
</svg>