<?xml version="1.0" encoding="UTF-8" standalone="no"?>
<!-- Generator: Adobe Illustrator 19.0.0, SVG Export Plug-In . SVG Version: 6.00 Build 0)  -->

<svg
   xmlns:dc="http://purl.org/dc/elements/1.1/"
   xmlns:cc="http://creativecommons.org/ns#"
   xmlns:rdf="http://www.w3.org/1999/02/22-rdf-syntax-ns#"
   xmlns:svg="http://www.w3.org/2000/svg"
   xmlns="http://www.w3.org/2000/svg"
   xmlns:sodipodi="http://sodipodi.sourceforge.net/DTD/sodipodi-0.dtd"
   xmlns:inkscape="http://www.inkscape.org/namespaces/inkscape"
   version="1.1"
   id="Layer_1"
   x="0px"
   y="0px"
   viewBox="0 0 512 512"
   xml:space="preserve"
   sodipodi:docname="yahoo-square.svg"
   width="512"
   height="512"
   inkscape:version="0.92.3 (2405546, 2018-03-11)"><metadata
   id="metadata39"><rdf:RDF><cc:Work
       rdf:about=""><dc:format>image/svg+xml</dc:format><dc:type
         rdf:resource="http://purl.org/dc/dcmitype/StillImage" /><dc:title></dc:title></cc:Work></rdf:RDF></metadata><defs
   id="defs37" /><sodipodi:namedview
   pagecolor="#ffffff"
   bordercolor="#666666"
   borderopacity="1"
   objecttolerance="10"
   gridtolerance="10"
   guidetolerance="10"
   inkscape:pageopacity="0"
   inkscape:pageshadow="2"
   inkscape:window-width="1366"
   inkscape:window-height="743"
   id="namedview35"
   showgrid="false"
   inkscape:measure-start="0,0"
   inkscape:measure-end="0,0"
   inkscape:showpageshadow="false"
   inkscape:zoom="0.51868132"
   inkscape:cx="25.063559"
   inkscape:cy="227.5"
   inkscape:window-x="0"
   inkscape:window-y="0"
   inkscape:window-maximized="1"
   inkscape:current-layer="Layer_1" />
<rect
   style="opacity:1;fill:#ffffff;fill-opacity:1;fill-rule:nonzero;stroke:none;stroke-width:1.60000002;stroke-miterlimit:4;stroke-dasharray:none;stroke-opacity:1"
   id="rect846"
   width="414.51273"
   height="279.55508"
   x="50.127117"
   y="114.83898" /><path
   style="clip-rule:evenodd;fill-rule:evenodd;stroke-width:1.12499797;fill:#410093;fill-opacity:1"
   d="M 0,1.0889831 V 512 H 512.83898 V 1.0889831 Z M 364.8855,202.89883 c -8.68896,2.33897 -88.18351,63.74598 -93.4201,78.8128 -1.15868,5.19782 0.11384,55.66909 1.27252,63.23057 5.23659,1.16892 43.04916,0.15272 49.98207,1.30142 l -0.82843,15.60244 c -6.79991,-0.5154 -54.83883,-0.3829 -82.24698,-0.3829 -13.94583,0 -58.72964,1.51813 -72.48838,1.12962 l 2.60365,-14.85123 c 7.54944,-0.55471 38.79317,1.38002 45.63252,-5.89064 3.40728,-3.61119 2.3275,-51.58292 1.17333,-59.68339 -2.88993,-8.67089 -72.54135,-95.63805 -90.74319,-109.87955 H 78.898305 V 150.4322 H 237.11871 v 1.51814 c 0.133,0 0.40464,0.0146 0.53764,0.0348 l -0.53764,3.70438 v 16.59956 H 189.4044 c 21.2676,30.99377 51.75729,68.39358 64.76085,86.35407 l 63.73969,-57.53195 h -37.89035 l -5.33578,-21.83668 h 138.76747 l -1.02117,1.55295 c 0.11384,0 0.32574,0.0202 0.4779,0.0202 l -9.89723,14.3347 c -0.0992,0 -0.25135,0.0202 -0.33025,0.0393 l -3.98436,5.89064 h -25.6025 c -3.31148,0.731 -6.23635,1.38339 -8.20317,1.7865 z m 41.87471,159.75346 -11.6127,-0.84441 -10.78991,-0.93873 -0.11384,-23.33459 13.67421,1.67084 12.23374,0.59401 z m 2.42669,-38.76074 -21.28338,-1.70903 -0.57709,-98.61593 c 4.8917,0.95782 42.47209,4.50949 46.61425,4.64199 z"
   id="path2"
   inkscape:connector-curvature="0" />
<g
   id="g4"
   transform="translate(0,57)">
</g>
<g
   id="g6"
   transform="translate(0,57)">
</g>
<g
   id="g8"
   transform="translate(0,57)">
</g>
<g
   id="g10"
   transform="translate(0,57)">
</g>
<g
   id="g12"
   transform="translate(0,57)">
</g>
<g
   id="g14"
   transform="translate(0,57)">
</g>
<g
   id="g16"
   transform="translate(0,57)">
</g>
<g
   id="g18"
   transform="translate(0,57)">
</g>
<g
   id="g20"
   transform="translate(0,57)">
</g>
<g
   id="g22"
   transform="translate(0,57)">
</g>
<g
   id="g24"
   transform="translate(0,57)">
</g>
<g
   id="g26"
   transform="translate(0,57)">
</g>
<g
   id="g28"
   transform="translate(0,57)">
</g>
<g
   id="g30"
   transform="translate(0,57)">
</g>
<g
   id="g32"
   transform="translate(0,57)">
</g>
</svg>