<?xml version="1.0" encoding="UTF-8" standalone="no"?>
<!-- Generator: Adobe Illustrator 19.0.0, SVG Export Plug-In . SVG Version: 6.00 Build 0)  -->

<svg
   xmlns:dc="http://purl.org/dc/elements/1.1/"
   xmlns:cc="http://creativecommons.org/ns#"
   xmlns:rdf="http://www.w3.org/1999/02/22-rdf-syntax-ns#"
   xmlns:svg="http://www.w3.org/2000/svg"
   xmlns="http://www.w3.org/2000/svg"
   xmlns:sodipodi="http://sodipodi.sourceforge.net/DTD/sodipodi-0.dtd"
   xmlns:inkscape="http://www.inkscape.org/namespaces/inkscape"
   version="1.1"
   id="Layer_1"
   x="0px"
   y="0px"
   viewBox="0 0 512.00001 512.00001"
   xml:space="preserve"
   sodipodi:docname="yahoo.svg"
   width="512"
   height="512"
   inkscape:version="0.92.3 (2405546, 2018-03-11)"><metadata
   id="metadata43"><rdf:RDF><cc:Work
       rdf:about=""><dc:format>image/svg+xml</dc:format><dc:type
         rdf:resource="http://purl.org/dc/dcmitype/StillImage" /><dc:title></dc:title></cc:Work></rdf:RDF></metadata><defs
   id="defs41" /><sodipodi:namedview
   pagecolor="#ffffff"
   bordercolor="#666666"
   borderopacity="1"
   objecttolerance="10"
   gridtolerance="10"
   guidetolerance="10"
   inkscape:pageopacity="0"
   inkscape:pageshadow="2"
   inkscape:window-width="800"
   inkscape:window-height="480"
   id="namedview39"
   showgrid="false"
   inkscape:showpageshadow="false"
   inkscape:zoom="0.4655163"
   inkscape:cx="351.47637"
   inkscape:cy="253.48199"
   inkscape:window-x="0"
   inkscape:window-y="0"
   inkscape:window-maximized="0"
   inkscape:current-layer="Layer_1" />
<g
   id="g6"
   transform="matrix(1.0169492,0,0,1.0170622,0,-3.5852637)">
	<g
   id="g4">
		<path
   d="m 287.895,68.826 4.197,50.361 59.593,14.269 C 344.97,153.6 317.272,193.049 269.429,251.804 230.819,175.424 199.763,109.116 177.101,57.916 L 245.088,47.005 249.285,1.68 H 0 v 50.361 l 72.184,15.108 c 8.393,11.751 27.698,41.967 72.184,126.741 47.003,91.488 55.397,114.151 57.075,120.026 l 0.839,47.003 v 24.341 c 0,50.361 -2.518,59.593 -2.518,60.433 0,0.839 -3.357,5.036 -25.18,7.554 l -41.128,2.518 -6.715,49.521 h 234.177 l 14.269,-52.879 -76.38,-1.679 -4.197,-62.951 3.357,-73.862 c 2.518,-10.911 15.948,-36.931 64.63,-98.203 48.682,-63.79 62.951,-75.541 65.469,-77.22 l 58.754,-19.305 20.144,-50.361 z m 187.174,36.931 -52.879,17.626 c -8.393,3.357 -23.502,18.466 -73.023,82.256 -41.967,52.039 -63.79,87.292 -67.987,105.757 l -3.357,76.38 5.036,78.898 70.505,1.679 -5.036,20.144 H 146.046 l 2.518,-16.787 27.698,-0.839 c 20.144,-2.518 32.734,-6.715 37.77,-15.108 2.518,-2.518 5.036,-7.554 5.036,-69.666 v -24.341 l -0.839,-48.682 v -1.679 C 214.872,293.769 179.619,225.782 159.475,186.333 122.544,116.667 96.524,70.503 83.934,54.556 L 81.416,52.038 16.787,38.61 V 18.466 H 230.82 l -0.839,13.43 -76.381,11.75 4.197,10.072 c 24.341,55.397 59.594,130.098 103.239,216.551 l 5.875,12.59 8.393,-10.072 C 358.399,172.905 370.15,143.528 370.989,128.42 v -6.715 L 308.877,106.597 307.2,86.452 h 176.262 z"
   id="path2"
   inkscape:connector-curvature="0" />
	</g>
</g>
<g
   id="g8"
   transform="translate(0,5.0360107)">
</g>
<g
   id="g10"
   transform="translate(0,5.0360107)">
</g>
<g
   id="g12"
   transform="translate(0,5.0360107)">
</g>
<g
   id="g14"
   transform="translate(0,5.0360107)">
</g>
<g
   id="g16"
   transform="translate(0,5.0360107)">
</g>
<g
   id="g18"
   transform="translate(0,5.0360107)">
</g>
<g
   id="g20"
   transform="translate(0,5.0360107)">
</g>
<g
   id="g22"
   transform="translate(0,5.0360107)">
</g>
<g
   id="g24"
   transform="translate(0,5.0360107)">
</g>
<g
   id="g26"
   transform="translate(0,5.0360107)">
</g>
<g
   id="g28"
   transform="translate(0,5.0360107)">
</g>
<g
   id="g30"
   transform="translate(0,5.0360107)">
</g>
<g
   id="g32"
   transform="translate(0,5.0360107)">
</g>
<g
   id="g34"
   transform="translate(0,5.0360107)">
</g>
<g
   id="g36"
   transform="translate(0,5.0360107)">
</g>
</svg>