<?xml version="1.0" encoding="UTF-8" standalone="no"?>
<!-- Generator: Adobe Illustrator 19.0.0, SVG Export Plug-In . SVG Version: 6.00 Build 0)  -->

<svg
   xmlns:dc="http://purl.org/dc/elements/1.1/"
   xmlns:cc="http://creativecommons.org/ns#"
   xmlns:rdf="http://www.w3.org/1999/02/22-rdf-syntax-ns#"
   xmlns:svg="http://www.w3.org/2000/svg"
   xmlns="http://www.w3.org/2000/svg"
   xmlns:sodipodi="http://sodipodi.sourceforge.net/DTD/sodipodi-0.dtd"
   xmlns:inkscape="http://www.inkscape.org/namespaces/inkscape"
   version="1.1"
   id="Layer_1"
   x="0px"
   y="0px"
   viewBox="0 0 512 512"
   xml:space="preserve"
   sodipodi:docname="yahoo-circle.svg"
   width="512"
   height="512"
   inkscape:version="0.92.3 (2405546, 2018-03-11)"><metadata
   id="metadata43"><rdf:RDF><cc:Work
       rdf:about=""><dc:format>image/svg+xml</dc:format><dc:type
         rdf:resource="http://purl.org/dc/dcmitype/StillImage" /><dc:title></dc:title></cc:Work></rdf:RDF></metadata><defs
   id="defs41"><filter
     style="color-interpolation-filters:sRGB;"
     inkscape:label="Drop Shadow"
     id="filter860"><feFlood
       flood-opacity="0.498039"
       flood-color="rgb(0,0,0)"
       result="flood"
       id="feFlood850" /><feComposite
       in="flood"
       in2="SourceGraphic"
       operator="in"
       result="composite1"
       id="feComposite852" /><feGaussianBlur
       in="composite1"
       stdDeviation="0.5"
       result="blur"
       id="feGaussianBlur854" /><feOffset
       dx="1"
       dy="1"
       result="offset"
       id="feOffset856" /><feComposite
       in="SourceGraphic"
       in2="offset"
       operator="over"
       result="composite2"
       id="feComposite858" /></filter></defs><sodipodi:namedview
   pagecolor="#ffffff"
   bordercolor="#666666"
   borderopacity="1"
   objecttolerance="10"
   gridtolerance="10"
   guidetolerance="10"
   inkscape:pageopacity="0"
   inkscape:pageshadow="2"
   inkscape:window-width="1366"
   inkscape:window-height="743"
   id="namedview39"
   showgrid="false"
   inkscape:showpageshadow="false"
   inkscape:zoom="0.40505425"
   inkscape:cx="-58.199233"
   inkscape:cy="216.8644"
   inkscape:window-x="0"
   inkscape:window-y="0"
   inkscape:window-maximized="1"
   inkscape:current-layer="g6" />
<g
   id="g6"
   transform="matrix(1.779661,0,0,1.7627119,0,-1.5114576)">
	<path
   style="fill:#410093;fill-opacity:1"
   d="m 145.659,0 c 80.45,0 145.66,65.219 145.66,145.66 0,80.45 -65.21,145.659 -145.66,145.659 C 65.209,291.319 0,226.109 0,145.66 0,65.219 65.21,0 145.659,0 Z"
   id="path2"
   inkscape:connector-curvature="0" />
	<path
   style="fill:#ffffff;filter:url(#filter860)"
   d="m 212.353,114.98 0.155,-0.027 4.825,-5.371 -0.237,-0.018 0.51,-0.801 h -67.595 l 2.604,9.249 h 18.444 l -31.044,28.722 c -6.336,-9.24 -21.184,-30.479 -31.544,-46.411 h 19.254 v -6.555 l 0.264,-1.884 -0.264,-0.036 V 91.083 H 54.631 v 9.24 H 77.49 c 8.876,7.328 47.358,54.049 48.76,58.51 0.564,4.179 1.366,28.841 -0.291,30.698 -1.994,2.868 -22.814,1.32 -26.483,1.593 l -0.137,9.058 c 6.7,0.2 26.801,-0.009 33.584,-0.009 13.364,0 36.77,-0.346 40.065,-0.082 l 0.41,-8.576 -26.901,-0.401 c -0.564,-3.887 -1.183,-28.422 -0.619,-31.098 2.54,-7.765 43.816,-39.902 48.059,-41.112 l 3.997,-0.901 h 12.472 c -0.001,-0.001 1.947,-3.023 1.947,-3.023 z m -10.087,64.099 11.689,0.892 13.628,-49.979 c -2.276,-0.082 -22.95,-1.93 -25.636,-2.431 z m -2.021,8.012 0.064,12.208 5.917,0.492 6.391,0.446 1.875,-11.944 -6.737,-0.31 c 0.001,0 -7.51,-0.892 -7.51,-0.892 z"
   id="path4"
   inkscape:connector-curvature="0" />
</g>
<g
   id="g8"
   transform="translate(0,220.681)">
</g>
<g
   id="g10"
   transform="translate(0,220.681)">
</g>
<g
   id="g12"
   transform="translate(0,220.681)">
</g>
<g
   id="g14"
   transform="translate(0,220.681)">
</g>
<g
   id="g16"
   transform="translate(0,220.681)">
</g>
<g
   id="g18"
   transform="translate(0,220.681)">
</g>
<g
   id="g20"
   transform="translate(0,220.681)">
</g>
<g
   id="g22"
   transform="translate(0,220.681)">
</g>
<g
   id="g24"
   transform="translate(0,220.681)">
</g>
<g
   id="g26"
   transform="translate(0,220.681)">
</g>
<g
   id="g28"
   transform="translate(0,220.681)">
</g>
<g
   id="g30"
   transform="translate(0,220.681)">
</g>
<g
   id="g32"
   transform="translate(0,220.681)">
</g>
<g
   id="g34"
   transform="translate(0,220.681)">
</g>
<g
   id="g36"
   transform="translate(0,220.681)">
</g>
</svg>