<?xml version="1.0" encoding="UTF-8" standalone="no"?>
<!-- Created with Inkscape (http://www.inkscape.org/) -->

<svg
   xmlns:dc="http://purl.org/dc/elements/1.1/"
   xmlns:cc="http://creativecommons.org/ns#"
   xmlns:rdf="http://www.w3.org/1999/02/22-rdf-syntax-ns#"
   xmlns:svg="http://www.w3.org/2000/svg"
   xmlns="http://www.w3.org/2000/svg"
   xmlns:sodipodi="http://sodipodi.sourceforge.net/DTD/sodipodi-0.dtd"
   xmlns:inkscape="http://www.inkscape.org/namespaces/inkscape"
   width="512"
   height="505"
   viewBox="0 0 135.4667 133.61461"
   version="1.1"
   id="svg8"
   sodipodi:docname="logo.svg"
   inkscape:version="0.92.3 (2405546, 2018-03-11)"
   inkscape:export-filename="/var/www/rep/wp-content/plugins/social-networks-admin/svg/logo-128.png"
   inkscape:export-xdpi="29.317602"
   inkscape:export-ydpi="29.317602">
  <title
     id="title825">SNA logo</title>
  <defs
     id="defs2" />
  <sodipodi:namedview
     id="base"
     pagecolor="#ffffff"
     bordercolor="#666666"
     borderopacity="1.0"
     inkscape:pageopacity="0.0"
     inkscape:pageshadow="2"
     inkscape:zoom="0.7"
     inkscape:cx="443.72466"
     inkscape:cy="259.22704"
     inkscape:document-units="mm"
     inkscape:current-layer="layer1"
     showgrid="false"
     units="px"
     inkscape:showpageshadow="false"
     inkscape:window-width="1061"
     inkscape:window-height="568"
     inkscape:window-x="0"
     inkscape:window-y="0"
     inkscape:window-maximized="0" />
  <metadata
     id="metadata5">
    <rdf:RDF>
      <cc:Work
         rdf:about="">
        <dc:format>image/svg+xml</dc:format>
        <dc:type
           rdf:resource="http://purl.org/dc/dcmitype/StillImage" />
        <dc:title>SNA logo</dc:title>
        <dc:date>2019-12-28</dc:date>
        <dc:creator>
          <cc:Agent>
            <dc:title>Robert Pérez</dc:title>
          </cc:Agent>
        </dc:creator>
        <dc:rights>
          <cc:Agent>
            <dc:title>Robert Pérez</dc:title>
          </cc:Agent>
        </dc:rights>
        <dc:publisher>
          <cc:Agent>
            <dc:title>Inkscape</dc:title>
          </cc:Agent>
        </dc:publisher>
        <dc:identifier>logo-sna</dc:identifier>
        <dc:language>es_VE</dc:language>
        <dc:subject>
          <rdf:Bag>
            <rdf:li>logo</rdf:li>
            <rdf:li>redes</rdf:li>
          </rdf:Bag>
        </dc:subject>
        <dc:description>Logotipo del Plugins SNA</dc:description>
      </cc:Work>
    </rdf:RDF>
  </metadata>
  <g
     inkscape:label="Capa 1"
     inkscape:groupmode="layer"
     id="layer1"
     transform="translate(0,-163.38538)">
    <path
       style="opacity:1;fill:#07aef0;fill-opacity:1;stroke:#000000;stroke-width:0.45578223;stroke-miterlimit:4;stroke-dasharray:none;stroke-opacity:1"
       d="m 62.901663,255.56544 c -2.136334,-0.34959 -5.425006,-1.52147 -8.159717,-2.90759 -10.935875,-5.54296 -16.906763,-17.17414 -14.566115,-28.3745 1.35162,-6.46769 6.663856,-13.29317 12.798953,-16.44484 1.715272,-0.88116 3.200896,-1.52173 3.301382,-1.4235 0.100486,0.0982 -0.775924,0.78587 -1.947583,1.52806 -4.473922,2.83407 -8.337486,8.33113 -9.419058,13.40142 -2.148843,10.07353 3.378762,19.80186 13.222505,23.27097 3.040051,1.07138 9.645708,1.14179 13.961656,0.14883 6.010691,-1.38285 10.598094,-4.99528 13.412172,-10.56162 1.486592,-2.94054 1.649808,-3.60308 1.802371,-7.31632 0.248334,-6.0443 -1.304464,-10.45136 -5.2797,-14.98453 -1.98726,-2.26618 -6.609315,-5.26118 -9.893502,-6.41081 l -2.576753,-0.90199 2.019197,0.22223 c 8.937334,0.98363 17.691973,8.47245 20.653378,17.66713 1.374703,4.26824 1.266622,10.57541 -0.254221,14.83494 -3.004411,8.41465 -9.596271,14.68989 -18.618881,17.72457 -2.313373,0.7781 -7.36701,1.03307 -10.456084,0.52755 z"
       id="path852"
       inkscape:connector-curvature="0"
       inkscape:export-xdpi="117.03773"
       inkscape:export-ydpi="117.03773" />
    <path
       style="opacity:1;fill:#07aef0;fill-opacity:1;stroke:#000000;stroke-width:0.45578223;stroke-miterlimit:4;stroke-dasharray:none;stroke-opacity:1"
       d="m 59.465993,267.98142 c -19.331684,-2.16225 -35.236892,-17.32527 -38.261982,-36.47653 -0.676961,-4.28571 -0.24902,-11.94212 0.903448,-16.16376 3.579763,-13.11316 12.865805,-23.78973 25.969038,-29.85773 2.231291,-1.0333 5.465159,-2.18358 7.186371,-2.55618 4.349474,-0.94156 14.040384,-0.91354 18.563204,0.0537 17.373237,3.71529 31.025988,16.3652 35.525838,32.91634 1.33053,4.89389 1.53131,12.64524 0.45872,17.70881 -1.68247,7.94264 -5.12349,14.38964 -10.814812,20.26232 -3.294025,3.399 -8.817427,7.80084 -9.2535,7.37455 -0.09663,-0.0944 0.964427,-1.13336 2.357919,-2.30864 9.187823,-7.74913 14.176753,-18.03326 14.176753,-29.22384 0,-10.90986 -4.09807,-20.06726 -12.36355,-27.62718 -5.337153,-4.88155 -11.637287,-8.09167 -18.529249,-9.44124 -6.933041,-1.35761 -17.175861,-0.16332 -24.959588,2.91023 -12.623684,4.98471 -21.886291,17.07951 -23.133511,30.20696 -1.504611,15.8366 7.379726,30.86435 22.512079,38.07891 4.420516,2.10756 7.505556,3.04359 13.098492,3.97421 3.802734,0.63275 1.654766,0.73847 -3.43567,0.1691 z"
       id="path854"
       inkscape:connector-curvature="0"
       inkscape:export-xdpi="117.03773"
       inkscape:export-ydpi="117.03773" />
    <path
       style="opacity:1;fill:#07aef0;fill-opacity:1;stroke:#000000;stroke-width:0.45578223;stroke-miterlimit:4;stroke-dasharray:none;stroke-opacity:1"
       d="M 60.32491,289.81116 C 56.125011,289.33899 48.895842,287.5631 44.96275,286.03733 24.410313,278.06444 9.6524838,261.29323 5.1045182,240.74132 4.1658056,236.49936 3.8173109,226.23784 4.4609978,221.79271 c 1.44538,-9.9814 5.6776192,-19.81874 11.9606152,-27.80105 2.652583,-3.37 7.729555,-8.48604 8.080645,-8.14281 0.157155,0.15363 -0.917902,1.56229 -2.389017,3.13035 -13.1280688,13.99316 -17.6966025,34.66918 -11.75026,53.17865 5.341699,16.62739 19.909146,30.86849 36.917549,36.09052 8.870274,2.72341 19.060561,3.3021 27.59278,1.56694 10.840403,-2.20455 22.062749,-7.49025 29.46366,-13.87727 9.52773,-8.22249 15.96246,-19.25871 18.04903,-30.95596 0.83295,-4.66952 0.82077,-13.68878 -0.0249,-18.42955 -3.00035,-16.8199 -15.09874,-32.40701 -31.329876,-40.36424 -8.350172,-4.09363 -16.719146,-6.03189 -26.411711,-6.11697 -4.250723,-0.0373 -5.545627,-0.1458 -4.079859,-0.34178 1.181012,-0.1579 4.592108,-0.30365 7.580216,-0.32388 28.714463,-0.1944 53.87255,19.67823 60.54457,47.82475 1.26001,5.31548 1.54867,15.28584 0.61382,21.2018 -3.13865,19.86238 -17.06399,37.87816 -36.029513,46.61286 -9.151619,4.21483 -21.686576,6.02941 -32.923824,4.76609 z"
       id="path856"
       inkscape:connector-curvature="0"
       inkscape:export-xdpi="117.03773"
       inkscape:export-ydpi="117.03773" />
    <path
       style="opacity:1;fill:#f00907;fill-opacity:1;stroke:#000000;stroke-width:0.08057168;stroke-miterlimit:4;stroke-dasharray:none;stroke-opacity:1"
       d="m 65.453122,232.90331 c -0.873572,-0.44879 -1.519076,-1.03722 -2.069972,-1.88698 -0.617214,-0.95205 -0.712027,-2.19261 -0.234502,-3.0684 0.388867,-0.71319 1.046804,-1.12255 1.898193,-1.18103 0.423873,-0.0291 0.522912,-0.0111 0.702245,0.12784 0.164232,0.12723 0.208776,0.22392 0.208776,0.45321 0,0.28159 0.0086,0.29148 0.256222,0.29148 0.223361,0 0.262006,-0.0283 0.3013,-0.22033 0.0248,-0.12118 0.118378,-0.29199 0.207967,-0.37957 0.224176,-0.21916 0.812095,-0.16912 1.393863,0.11865 1.258006,0.62223 1.642383,2.06516 0.938404,3.52274 -0.35237,0.72957 -1.404872,1.72283 -2.26549,2.13797 -0.356476,0.17196 -0.703183,0.31265 -0.770453,0.31265 -0.06727,0 -0.32222,-0.10275 -0.566553,-0.22823 z"
       id="path898"
       inkscape:connector-curvature="0"
       inkscape:export-xdpi="117.03773"
       inkscape:export-ydpi="117.03773" />
    <text
       xml:space="preserve"
       style="font-style:normal;font-weight:normal;font-size:11.88938999px;line-height:1.25;font-family:sans-serif;letter-spacing:0px;word-spacing:0px;fill:#ffffff;fill-opacity:1;stroke:none;stroke-width:0.29723474"
       x="-63.822769"
       y="294.13019"
       id="text902"
       transform="matrix(0.91641471,-0.41831551,0.42790144,0.895885,0,0)"
       inkscape:export-xdpi="117.03773"
       inkscape:export-ydpi="117.03773"><tspan
         sodipodi:role="line"
         id="tspan900"
         x="-63.822769"
         y="294.13019"
         style="font-style:normal;font-variant:normal;font-weight:normal;font-stretch:normal;font-family:Nilus;-inkscape-font-specification:Nilus;fill:#ffffff;fill-opacity:1;stroke-width:0.29723474">S</tspan></text>
    <text
       xml:space="preserve"
       style="font-style:normal;font-weight:normal;font-size:11.88938999px;line-height:1.25;font-family:sans-serif;letter-spacing:0px;word-spacing:0px;fill:#ffffff;fill-opacity:1;stroke:none;stroke-width:0.29723474"
       x="-17.154469"
       y="301.01218"
       id="text906"
       transform="matrix(0.96621176,-0.292219,0.29891537,0.94456649,0,0)"
       inkscape:export-xdpi="117.03773"
       inkscape:export-ydpi="117.03773"><tspan
         sodipodi:role="line"
         id="tspan904"
         x="-17.154469"
         y="301.01218"
         style="font-style:normal;font-variant:normal;font-weight:normal;font-stretch:normal;font-family:Nilus;-inkscape-font-specification:Nilus;fill:#ffffff;fill-opacity:1;stroke-width:0.29723474">N</tspan></text>
    <text
       xml:space="preserve"
       style="font-style:normal;font-weight:normal;font-size:11.88938999px;line-height:1.25;font-family:sans-serif;letter-spacing:0px;word-spacing:0px;fill:#ffffff;fill-opacity:1;stroke:none;stroke-width:0.29723474"
       x="-45.090076"
       y="298.07578"
       id="text910"
       transform="matrix(0.92198745,-0.40644409,0.41575798,0.9013329,0,0)"
       inkscape:export-xdpi="117.03773"
       inkscape:export-ydpi="117.03773"><tspan
         sodipodi:role="line"
         id="tspan908"
         x="-45.090076"
         y="298.07578"
         style="font-style:normal;font-variant:normal;font-weight:normal;font-stretch:normal;font-family:Nilus;-inkscape-font-specification:Nilus;fill:#ffffff;fill-opacity:1;stroke-width:0.29723474">A</tspan></text>
  </g>
</svg>
